<svg id="Pantalla" xmlns="http://www.w3.org/2000/svg" xmlns:xlink="http://www.w3.org/1999/xlink" viewBox="0 0 247 247"><defs><style>.cls-1{fill:#fff;}.cls-2{fill:url(#Degradado_sin_nombre_2);}.cls-3{fill:url(#Degradado_sin_nombre_3);}</style><linearGradient id="Degradado_sin_nombre_2" x1="122.88" y1="5.62" x2="122.3" y2="198.05" gradientUnits="userSpaceOnUse"><stop offset="0" stop-color="#00a6be"/><stop offset="0.51" stop-color="#4fbac0"/><stop offset="1" stop-color="#80cada"/></linearGradient><linearGradient id="Degradado_sin_nombre_3" x1="63.5" y1="169.75" x2="185.96" y2="169.75" gradientUnits="userSpaceOnUse"><stop offset="0" stop-color="#45bae1"/><stop offset="1" stop-color="#007ba8"/></linearGradient></defs><title>Bunch Logo</title><path class="cls-1" d="M59,225.69a4.91,4.91,0,0,1-.55,2.28A5.85,5.85,0,0,1,57,229.78a6.66,6.66,0,0,1,1.38,10.45,6.82,6.82,0,0,1-2.11,1.43,6.36,6.36,0,0,1-2.57.53H47.64a1,1,0,0,1-1.06-1.06V221.47a1,1,0,0,1,1.06-1.06h6.07a5.13,5.13,0,0,1,2,.41,5.28,5.28,0,0,1,1.67,1.13,5.46,5.46,0,0,1,1.14,1.69A5.07,5.07,0,0,1,59,225.69ZM48.7,228.9h5a2.83,2.83,0,0,0,1.23-.27,3.55,3.55,0,0,0,1-.7,3.05,3.05,0,0,0,.66-1,3.27,3.27,0,0,0,0-2.45,3.06,3.06,0,0,0-.66-1,3.3,3.3,0,0,0-1-.68,3,3,0,0,0-1.23-.26h-5Zm9.51,6.65a4.41,4.41,0,0,0-.36-1.75,4.57,4.57,0,0,0-1-1.45,4.62,4.62,0,0,0-1.43-1,4.3,4.3,0,0,0-1.74-.36h-5v9.07h5a4.12,4.12,0,0,0,1.74-.38,4.88,4.88,0,0,0,1.43-1,4.62,4.62,0,0,0,1-1.43A4.28,4.28,0,0,0,58.21,235.54Z"/><path class="cls-1" d="M79,234.62V221.5a1.13,1.13,0,0,1,.31-.73,1,1,0,0,1,.78-.36.91.91,0,0,1,.75.34,1.22,1.22,0,0,1,.27.78v13.09a5.28,5.28,0,0,0,.43,2.11,5.46,5.46,0,0,0,1.16,1.72,5.62,5.62,0,0,0,1.74,1.18,5.22,5.22,0,0,0,2.13.44,5.1,5.1,0,0,0,2.11-.44,5.91,5.91,0,0,0,1.74-1.18,5.57,5.57,0,0,0,1.19-1.72,5.11,5.11,0,0,0,.44-2.11V221.5a1.13,1.13,0,0,1,.31-.73,1,1,0,0,1,.78-.36.88.88,0,0,1,.75.38,1.27,1.27,0,0,1,.27.75v13.09a7.18,7.18,0,0,1-.61,2.95,7.91,7.91,0,0,1-1.64,2.4,7.64,7.64,0,0,1-2.4,1.62,7.58,7.58,0,0,1-5.9,0,7.57,7.57,0,0,1-4-4A7.35,7.35,0,0,1,79,234.62Z"/><path class="cls-1" d="M113,221.47a1,1,0,0,1,1.06-1.06.88.88,0,0,1,.56.15,2.48,2.48,0,0,1,.39.43l11.72,16.6V221.47a1.06,1.06,0,1,1,2.11,0v19.67a1,1,0,0,1-1.06,1.06.8.8,0,0,1-.6-.22,4.44,4.44,0,0,1-.43-.49L115.13,225v16.16a1.06,1.06,0,1,1-2.11,0Z"/><path class="cls-1" d="M149.63,231.35a8.74,8.74,0,0,0,15.13,6,1.32,1.32,0,0,1,.7-.41.91.91,0,0,1,.77.14,1,1,0,0,1,.37.83,1.25,1.25,0,0,1-.31.87,10.52,10.52,0,0,1-3.54,2.54,10.76,10.76,0,0,1-4.4.9,10.55,10.55,0,0,1-4.23-.85,10.83,10.83,0,0,1-5.76-5.76,10.9,10.9,0,0,1,0-8.45,11.14,11.14,0,0,1,2.32-3.46,10.78,10.78,0,0,1,3.44-2.33,10.55,10.55,0,0,1,4.23-.85,10.42,10.42,0,0,1,4.28.89,11.21,11.21,0,0,1,3.49,2.42,1.72,1.72,0,0,1,.41.68.88.88,0,0,1-.1.78,1,1,0,0,1-.8.44,1.12,1.12,0,0,1-.9-.34,15,15,0,0,0-2.86-1.91,7.5,7.5,0,0,0-3.51-.85,8.67,8.67,0,0,0-6.19,2.56,8.89,8.89,0,0,0-1.86,2.79A8.61,8.61,0,0,0,149.63,231.35Z"/><path class="cls-1" d="M185.31,221.47a1.06,1.06,0,1,1,2.11,0V231H198.3v-9.58a1.06,1.06,0,1,1,2.11,0v19.67a1.06,1.06,0,1,1-2.11,0v-8H187.43v8a1.06,1.06,0,1,1-2.11,0Z"/><path class="cls-2" d="M186.42,68.54A63.73,63.73,0,0,0,59,68.54V195.12L158,121.57h0A63.67,63.67,0,0,0,186.42,68.54Z"/><path class="cls-3" d="M155.68,139.48a30.13,30.13,0,0,0-18.52,6.33L63.5,200h92.18a30.28,30.28,0,0,0,0-60.55Z"/></svg>