<svg id="Capa_1" data-name="Capa 1" xmlns="http://www.w3.org/2000/svg" viewBox="0 0 72 50"><title>alertas menu off-01</title><path d="M46.4,24.91c-0.22-.34-0.44-0.66-0.67-1l-0.48-.69L45,22.88c-0.42-.62-0.85-1.27-1.24-1.91a8.54,8.54,0,0,1-1.23-3.73,29.23,29.23,0,0,0-.44-3A5.33,5.33,0,0,0,40.29,11a4.36,4.36,0,0,0-3.88-.83,1.91,1.91,0,0,1-2.1-.78A2,2,0,0,1,34,8.34a2,2,0,0,1,3.82-.64A1,1,0,1,0,39.64,7a3.88,3.88,0,0,0-6.38-1.36,3.86,3.86,0,0,0-.6,4.74A3.8,3.8,0,0,0,36.86,12a2.47,2.47,0,0,1,2.22.44h0a3.46,3.46,0,0,1,1.16,2.1,28.37,28.37,0,0,1,.41,2.81A10.55,10.55,0,0,0,42.14,22c0.42,0.67.86,1.33,1.28,2l0.24,0.36c0.17,0.25.34,0.5,0.51,0.73s0.43,0.61.62,0.91a0.89,0.89,0,0,1,.18.51,0.94,0.94,0,0,1-.34.45,4.15,4.15,0,0,1-1.48.72,22.45,22.45,0,0,1-5.88,1H34.73a22.06,22.06,0,0,1-5.88-1,4.29,4.29,0,0,1-1.48-.72A1,1,0,0,1,27,26.44a0.93,0.93,0,0,1,.18-0.51c0.2-.3.4-0.6,0.62-0.91s0.34-.48.51-0.73l0.24-.36c0.43-.64.87-1.3,1.28-2a10.43,10.43,0,0,0,1.5-4.56,26.88,26.88,0,0,1,.41-2.81,4.36,4.36,0,0,1,.33-1,1,1,0,0,0-1.74-.82,6.48,6.48,0,0,0-.48,1.48,29.23,29.23,0,0,0-.44,3A8.42,8.42,0,0,1,28.22,21c-0.39.64-.83,1.29-1.24,1.91l-0.24.36-0.48.69c-0.22.31-.45,0.64-0.67,1a2.46,2.46,0,0,0,.53,3.46,6,6,0,0,0,2.14,1.1,24.14,24.14,0,0,0,6.4,1h2.67a24.14,24.14,0,0,0,6.4-1,5.79,5.79,0,0,0,2.14-1.1A2.45,2.45,0,0,0,46.4,24.91Z"/><path d="M21,43.93a0.56,0.56,0,0,1-.17.42,0.54,0.54,0,0,1-.39.17,0.52,0.52,0,0,1-.33-0.11,0.71,0.71,0,0,1-.22-0.3L19.38,42.9h-3l-0.52,1.22a0.62,0.62,0,0,1-.22.29A0.51,0.51,0,0,1,14.82,44a0.66,0.66,0,0,1,0-.19l2.49-6a0.66,0.66,0,0,1,.24-0.31,0.52,0.52,0,0,1,.36-0.09,0.6,0.6,0,0,1,.56.4L21,43.69A0.68,0.68,0,0,1,21,43.93Zm-4.12-2.18h2l-1-2.34Z"/><path d="M26.15,43.46a0.56,0.56,0,0,1,.18.42,0.55,0.55,0,0,1-.18.42,0.61,0.61,0,0,1-.44.17H22.47a0.6,0.6,0,0,1-.61-0.61V38.08A0.58,0.58,0,0,1,22,37.64a0.63,0.63,0,0,1,.46-0.17,0.6,0.6,0,0,1,.43.17,0.58,0.58,0,0,1,.18.44V43.3h2.61A0.61,0.61,0,0,1,26.15,43.46Z"/><path d="M31.87,43.5a0.55,0.55,0,0,1,.17.4,0.53,0.53,0,0,1-.17.41,0.62,0.62,0,0,1-.44.16H28.08a0.6,0.6,0,0,1-.61-0.61V38.08a0.6,0.6,0,0,1,.61-0.61h3.35a0.61,0.61,0,0,1,.44.17,0.56,0.56,0,0,1,.17.42,0.52,0.52,0,0,1-.17.41,0.63,0.63,0,0,1-.44.16H28.73v1.7H31a0.61,0.61,0,0,1,.44.17,0.56,0.56,0,0,1,.18.43,0.52,0.52,0,0,1-.17.4,0.63,0.63,0,0,1-.44.16H28.73v1.85h2.71A0.59,0.59,0,0,1,31.87,43.5Z"/><path d="M38.89,43.7A0.52,0.52,0,0,1,39,44a0.52,0.52,0,0,1-.12.33,0.56,0.56,0,0,1-.46.18,0.89,0.89,0,0,1-.44-0.11,1.76,1.76,0,0,1-.72-1.67A0.73,0.73,0,0,0,37,42.13a1,1,0,0,0-.67-0.21H34.45v1.94a0.65,0.65,0,0,1-.15.44,0.48,0.48,0,0,1-.38.17,0.78,0.78,0,0,1-.51-0.17,0.54,0.54,0,0,1-.21-0.44V38.08a0.6,0.6,0,0,1,.61-0.61h2.88a1.86,1.86,0,0,1,1,.28,2.07,2.07,0,0,1,.74.77,2.22,2.22,0,0,1,.27,1.1,2,2,0,0,1-.27,1,2.16,2.16,0,0,1-.7.75,1.53,1.53,0,0,1,.69,1.18,1.73,1.73,0,0,1,0,.31,3.2,3.2,0,0,0,.08.45,0.33,0.33,0,0,0,.18.2A0.59,0.59,0,0,1,38.89,43.7Zm-1.9-3a1.29,1.29,0,0,0,.28-0.46,1.69,1.69,0,0,0,.11-0.62,1.2,1.2,0,0,0-.11-0.51A1.06,1.06,0,0,0,37,38.76a0.54,0.54,0,0,0-.35-0.14H34.45v2.27h2.19A0.5,0.5,0,0,0,37,40.72Z"/><path d="M45,37.63a0.55,0.55,0,0,1,.17.42,0.53,0.53,0,0,1-.17.42,0.63,0.63,0,0,1-.44.16H42.94v5.24a0.57,0.57,0,0,1-.19.44,0.67,0.67,0,0,1-.47.17,0.63,0.63,0,0,1-.46-0.17,0.58,0.58,0,0,1-.18-0.44V38.62H40.08a0.62,0.62,0,0,1-.44-0.16A0.55,0.55,0,0,1,39.46,38a0.53,0.53,0,0,1,.17-0.41,0.62,0.62,0,0,1,.44-0.16h4.44A0.62,0.62,0,0,1,45,37.63Z"/><path d="M51.21,43.93a0.56,0.56,0,0,1-.17.42,0.54,0.54,0,0,1-.39.17,0.52,0.52,0,0,1-.32-0.11,0.7,0.7,0,0,1-.22-0.3L49.58,42.9h-3l-0.52,1.22a0.62,0.62,0,0,1-.21.29,0.53,0.53,0,0,1-.32.1A0.48,0.48,0,0,1,45,44a0.67,0.67,0,0,1,0-.19l2.49-6a0.67,0.67,0,0,1,.24-0.31,0.52,0.52,0,0,1,.36-0.09,0.59,0.59,0,0,1,.33.11,0.59,0.59,0,0,1,.22.29l2.46,5.86A0.68,0.68,0,0,1,51.21,43.93Zm-4.12-2.18h2l-1-2.34Z"/><path d="M53,44.39a3,3,0,0,1-1-.61,0.7,0.7,0,0,1-.27-0.53,0.57,0.57,0,0,1,.17-0.41,0.55,0.55,0,0,1,.41-0.17,0.53,0.53,0,0,1,.34.12,2.94,2.94,0,0,0,.78.48,2.44,2.44,0,0,0,.9.15,1.8,1.8,0,0,0,1-.25,0.72,0.72,0,0,0,.41-0.62,0.8,0.8,0,0,0-.4-0.71A3.39,3.39,0,0,0,54,41.46q-2.19-.32-2.19-2a1.84,1.84,0,0,1,.33-1.09,2.09,2.09,0,0,1,.9-0.71,3.19,3.19,0,0,1,1.27-.24,3.66,3.66,0,0,1,1.19.19,2.89,2.89,0,0,1,.92.5,0.67,0.67,0,0,1,.29.53,0.57,0.57,0,0,1-.17.41,0.54,0.54,0,0,1-.4.17,0.44,0.44,0,0,1-.27-0.09,2.64,2.64,0,0,0-.73-0.39,2.41,2.41,0,0,0-.83-0.17,1.72,1.72,0,0,0-1,.24,0.75,0.75,0,0,0,0,1.26,3.38,3.38,0,0,0,1.12.36,5.79,5.79,0,0,1,1.38.38,1.76,1.76,0,0,1,.77.64,2,2,0,0,1,.26,1.08,1.8,1.8,0,0,1-.36,1.11,2.28,2.28,0,0,1-.95.73,3.16,3.16,0,0,1-1.27.25A4.18,4.18,0,0,1,53,44.39Z"/></svg>