<?xml version="1.0" encoding="utf-8"?>
<!-- Generator: Adobe Illustrator 21.0.0, SVG Export Plug-In . SVG Version: 6.00 Build 0)  -->
<svg version="1.1" id="Capa_1" xmlns="http://www.w3.org/2000/svg" xmlns:xlink="http://www.w3.org/1999/xlink" x="0px" y="0px"
	 viewBox="0 0 72 50" style="enable-background:new 0 0 72 50;" xml:space="preserve">
<style type="text/css">
	.st0{fill:#FFFFFF;}
</style>
<title>perfil menu on-01</title>
<path class="st0" d="M35.9,18.5h0.2c1.4,0,2.8-0.6,3.8-1.6c2.1-2.3,1.7-6.3,1.7-6.7c-0.1-2.9-1.5-4.3-2.6-4.9
	c-0.9-0.5-1.9-0.8-2.9-0.8H36c-1,0-2,0.3-2.9,0.7c-1.1,0.6-2.5,2-2.6,4.9c0,0.4-0.4,4.4,1.7,6.7C33.1,17.9,34.5,18.5,35.9,18.5z
	 M31.9,10.3L31.9,10.3C32,6.4,34.8,6,36,6l0,0c1.5,0,3.9,0.6,4.1,4.3l0,0c0,0,0.4,3.7-1.3,5.6c-0.7,0.8-1.7,1.2-2.8,1.2l0,0
	c-1.1,0.1-2.1-0.4-2.8-1.2C31.5,14,31.9,10.3,31.9,10.3L31.9,10.3z"/>
<path class="st0" d="M47.1,25.1L47.1,25.1c0,0,0-0.1,0-0.1c0-1.1-0.1-3.6-2.4-4.4h0c-1.6-0.4-3.1-1.1-4.5-2c-0.3-0.3-0.8-0.2-1,0.1
	c-0.3,0.3-0.2,0.8,0.1,1c0,0,0.1,0.1,0.1,0.1c1.5,1,3.2,1.7,4.9,2.1c1.3,0.5,1.4,1.8,1.4,3c0,0,0,0.1,0,0.1c0,0.6,0,1.1-0.1,1.7
	c-2.9,1.5-6.2,2.3-9.5,2.3c-3.3,0.1-6.6-0.7-9.5-2.2c-0.1-0.5-0.1-1.1-0.1-1.7c0,0,0-0.1,0-0.1c0-1.2,0.2-2.6,1.4-3
	c1.8-0.5,3.4-1.2,4.9-2.3c0.4-0.2,0.5-0.6,0.3-1c-0.2-0.4-0.6-0.5-1-0.3c0,0-0.1,0.1-0.1,0.1c-1.4,0.9-2.9,1.6-4.5,2h0
	C25,21.4,25,23.9,24.9,25c0,0,0,0.1,0,0.1l0,0c0,0.8,0.1,1.6,0.3,2.4c0.1,0.1,0.2,0.3,0.3,0.3c3.2,1.8,6.8,2.7,10.5,2.6
	c3.7,0.1,7.3-0.8,10.5-2.6c0.1-0.1,0.2-0.2,0.3-0.3C47,26.8,47.1,26,47.1,25.1z"/>
<g>
	<path class="st0" d="M3.3,39.7c-0.4,0.4-0.7,1-0.7,1.6c0,0.6,0.2,1.1,0.7,1.5c0.4,0.4,1,0.6,1.5,0.6c0.6,0,1.1-0.2,1.5-0.5
		c0.1-0.1,0.2-0.1,0.4-0.1c0.1,0,0.3,0.1,0.3,0.2c0.1,0.1,0.1,0.2,0.1,0.4c0,0.1-0.1,0.3-0.2,0.3c-0.6,0.5-1.3,0.7-2.1,0.7
		c-0.9,0-1.7-0.3-2.3-0.9c-0.6-0.6-1-1.4-1-2.3c0-0.9,0.3-1.6,1-2.3C3.3,38.4,4.1,38,5,38c0.8,0,1.5,0.2,2.1,0.7
		c0.1,0.1,0.2,0.2,0.2,0.3c0,0.1,0,0.3-0.1,0.4c-0.1,0.1-0.2,0.2-0.3,0.2c-0.1,0-0.3,0-0.4-0.1c-0.4-0.3-0.9-0.5-1.5-0.5
		C4.3,39.1,3.8,39.3,3.3,39.7z"/>
	<path class="st0" d="M12,41.6c0.4,0.3,0.6,0.7,0.6,1.3c0,0.2,0,0.4,0,0.5c0.2,0,0.3,0.2,0.3,0.3c0.1,0.2,0,0.3-0.1,0.4
		s-0.2,0.2-0.4,0.2h0c-0.3,0-0.5-0.1-0.6-0.4c-0.1-0.3-0.2-0.6-0.2-1.1c0-0.3-0.1-0.5-0.4-0.6c-0.2-0.1-0.3-0.2-0.5-0.2H9.7V44
		c0,0.1,0,0.3-0.1,0.3s-0.2,0.1-0.4,0.1s-0.3,0-0.3-0.1S8.7,44.1,8.7,44v-5.3c0-0.1,0-0.3,0.1-0.3s0.2-0.1,0.3-0.1h1.6
		c0.5,0,1,0.2,1.4,0.6c0.4,0.4,0.6,0.8,0.6,1.4S12.5,41.2,12,41.6z M10.8,41c0.3,0,0.5-0.1,0.7-0.3c0.2-0.2,0.3-0.4,0.3-0.6
		c0-0.3-0.1-0.5-0.3-0.7c-0.2-0.2-0.4-0.3-0.7-0.3H9.7V41H10.8z"/>
	<path class="st0" d="M14.9,44.5c-0.1,0-0.3,0-0.3-0.1c-0.1-0.1-0.1-0.2-0.1-0.3v-5.3c0-0.1,0-0.3,0.1-0.3c0.1-0.1,0.2-0.1,0.3-0.1
		h2.9c0.1,0,0.2,0,0.3,0.1c0.1,0.1,0.1,0.2,0.1,0.3s0,0.3-0.1,0.4c-0.1,0.1-0.2,0.1-0.3,0.1h-2.4v1.6h2.1c0.1,0,0.2,0,0.3,0.1
		s0.1,0.2,0.1,0.3s0,0.2-0.1,0.3c-0.1,0.1-0.2,0.1-0.3,0.1h-2.1v1.6h2.4c0.1,0,0.2,0,0.3,0.1c0.1,0.1,0.1,0.2,0.1,0.3
		c0,0.1,0,0.3-0.1,0.3c-0.1,0.1-0.2,0.1-0.3,0.1H14.9L14.9,44.5L14.9,44.5z"/>
	<path class="st0" d="M23.3,44.1L22.9,43h-2.2l-0.4,1.2c-0.1,0.2-0.2,0.3-0.4,0.3s-0.4-0.1-0.4-0.2c-0.1-0.1-0.1-0.3-0.1-0.5l2-5.3
		c0-0.1,0.1-0.2,0.2-0.2c0.1-0.1,0.2-0.1,0.3-0.1c0.2,0,0.4,0.1,0.5,0.3l2,5.3c0.1,0.2,0,0.3-0.1,0.5c-0.1,0.1-0.2,0.2-0.4,0.2
		C23.5,44.5,23.4,44.4,23.3,44.1z M21.1,42h1.4l-0.7-1.9L21.1,42z"/>
	<path class="st0" d="M28.6,41.6c0.4,0.3,0.6,0.7,0.6,1.3c0,0.2,0,0.4,0,0.5c0.2,0,0.3,0.2,0.3,0.3s0,0.3-0.1,0.4
		c-0.1,0.1-0.2,0.2-0.4,0.2h0c-0.3,0-0.5-0.1-0.6-0.4c-0.1-0.3-0.2-0.6-0.2-1.1c0-0.3-0.1-0.5-0.4-0.6c-0.2-0.1-0.3-0.2-0.5-0.2
		h-1.1V44c0,0.1,0,0.3-0.1,0.3s-0.2,0.1-0.4,0.1s-0.3,0-0.3-0.1c-0.1-0.1-0.1-0.2-0.1-0.3v-5.3c0-0.1,0-0.3,0.1-0.3
		c0.1-0.1,0.2-0.1,0.3-0.1h1.6c0.5,0,1,0.2,1.4,0.6s0.6,0.8,0.6,1.4S29.1,41.2,28.6,41.6z M27.4,41c0.3,0,0.5-0.1,0.7-0.3
		c0.2-0.2,0.3-0.4,0.3-0.6c0-0.3-0.1-0.5-0.3-0.7c-0.2-0.2-0.4-0.3-0.7-0.3h-1.1V41H27.4z"/>
	<path class="st0" d="M35.1,39.7c-0.4,0.4-0.7,1-0.7,1.6c0,0.6,0.2,1.1,0.7,1.5c0.4,0.4,1,0.6,1.5,0.6c0.6,0,1.1-0.2,1.5-0.5
		c0.1-0.1,0.2-0.1,0.4-0.1s0.3,0.1,0.3,0.2c0.1,0.1,0.1,0.2,0.1,0.4s-0.1,0.3-0.2,0.3c-0.6,0.5-1.3,0.7-2.1,0.7
		c-0.9,0-1.7-0.3-2.3-0.9s-1-1.4-1-2.3c0-0.9,0.3-1.6,1-2.3s1.4-0.9,2.3-0.9c0.8,0,1.5,0.2,2.1,0.7c0.1,0.1,0.2,0.2,0.2,0.3
		s0,0.3-0.1,0.4c-0.1,0.1-0.2,0.2-0.3,0.2c-0.1,0-0.3,0-0.4-0.1c-0.4-0.3-0.9-0.5-1.5-0.5C36.1,39.1,35.5,39.3,35.1,39.7z"/>
	<path class="st0" d="M45.7,41.9c0,0.7-0.3,1.3-0.8,1.8c-0.5,0.5-1.1,0.8-1.8,0.8s-1.3-0.3-1.8-0.8c-0.5-0.5-0.8-1.1-0.8-1.8v-3.2
		c0-0.1,0-0.3,0.1-0.3c0.1-0.1,0.2-0.1,0.3-0.1s0.3,0,0.4,0.1c0.1,0.1,0.1,0.2,0.1,0.3v3.2c0,0.4,0.2,0.8,0.5,1.1
		c0.3,0.3,0.7,0.5,1.1,0.5s0.8-0.2,1.1-0.5c0.3-0.3,0.5-0.7,0.5-1.1v-3.2c0-0.1,0-0.3,0.1-0.3c0.1-0.1,0.2-0.1,0.4-0.1
		s0.3,0,0.3,0.1s0.1,0.2,0.1,0.3V41.9z"/>
	<path class="st0" d="M48.3,44.5c-0.1,0-0.3,0-0.3-0.1c-0.1-0.1-0.1-0.2-0.1-0.3v-5.3c0-0.1,0-0.3,0.1-0.3c0.1-0.1,0.2-0.1,0.3-0.1
		h2.9c0.1,0,0.2,0,0.3,0.1c0.1,0.1,0.1,0.2,0.1,0.3s0,0.3-0.1,0.4c-0.1,0.1-0.2,0.1-0.3,0.1h-2.4v1.6h2.1c0.1,0,0.2,0,0.3,0.1
		c0.1,0.1,0.1,0.2,0.1,0.3s0,0.2-0.1,0.3c-0.1,0.1-0.2,0.1-0.3,0.1h-2.1v1.6h2.4c0.1,0,0.2,0,0.3,0.1c0.1,0.1,0.1,0.2,0.1,0.3
		c0,0.1,0,0.3-0.1,0.3c-0.1,0.1-0.2,0.1-0.3,0.1H48.3L48.3,44.5L48.3,44.5z"/>
	<path class="st0" d="M54.1,40.3V44c0,0.1,0,0.2-0.1,0.3c-0.1,0.1-0.2,0.1-0.3,0.1s-0.2,0-0.3-0.1c-0.1-0.1-0.1-0.2-0.1-0.3v-5.2
		c0-0.2,0-0.3,0.2-0.4c0.1-0.1,0.3-0.1,0.4-0.1c0.1,0,0.2,0.1,0.3,0.2l2.9,4v-3.7c0-0.1,0-0.2,0.1-0.3c0.1-0.1,0.2-0.1,0.3-0.1
		s0.2,0,0.3,0.1c0.1,0.1,0.1,0.2,0.1,0.3V44c0,0.1,0,0.3-0.1,0.3c-0.1,0.1-0.2,0.1-0.4,0.1s-0.3-0.1-0.4-0.2c0,0,0,0,0-0.1
		L54.1,40.3z"/>
	<path class="st0" d="M64.1,38.4c0.1,0.1,0.1,0.2,0.1,0.3s0,0.3-0.1,0.4c-0.1,0.1-0.2,0.1-0.3,0.1h-1.4V44c0,0.1,0,0.3-0.1,0.3
		c-0.1,0.1-0.2,0.1-0.3,0.1s-0.3,0-0.3-0.1c-0.1-0.1-0.1-0.2-0.1-0.3v-4.8H60c-0.1,0-0.3,0-0.3-0.1c-0.1-0.1-0.1-0.2-0.1-0.4
		s0-0.3,0.1-0.3c0.1-0.1,0.2-0.1,0.3-0.1h3.8C63.9,38.2,64,38.3,64.1,38.4z"/>
	<path class="st0" d="M69.4,44.1L68.9,43h-2.2l-0.4,1.2c-0.1,0.2-0.2,0.3-0.4,0.3s-0.4-0.1-0.4-0.2c-0.1-0.1-0.1-0.3-0.1-0.5l2-5.3
		c0-0.1,0.1-0.2,0.2-0.2c0.1-0.1,0.2-0.1,0.3-0.1c0.2,0,0.4,0.1,0.5,0.3l2,5.3c0.1,0.2,0,0.3-0.1,0.5c-0.1,0.1-0.2,0.2-0.4,0.2
		C69.6,44.5,69.4,44.4,69.4,44.1z M67.1,42h1.4l-0.7-1.9L67.1,42z"/>
</g>
</svg>
