<?xml version="1.0" encoding="utf-8"?>
<!-- Generator: Adobe Illustrator 21.0.0, SVG Export Plug-In . SVG Version: 6.00 Build 0)  -->
<svg version="1.1" id="Capa_1" xmlns="http://www.w3.org/2000/svg" xmlns:xlink="http://www.w3.org/1999/xlink" x="0px" y="0px"
	 viewBox="0 0 72 50" style="enable-background:new 0 0 72 50;" xml:space="preserve">
<style type="text/css">
	.st0{fill:#FFFFFF;}
</style>
<title>estadisticas menu on-01</title>
<path class="st0" d="M23,16.2c-0.4,0-0.7,0.3-0.7,0.7c0,0,0,0,0,0v12.9c0,0.4,0.3,0.7,0.7,0.7c0,0,0,0,0,0h6.3
	c0.4,0,0.7-0.3,0.7-0.7V16.9c0-0.4-0.3-0.7-0.7-0.7c0,0,0,0,0,0S23,16.2,23,16.2z M28.6,29.1h-5V17.6h4.9L28.6,29.1L28.6,29.1z"/>
<path class="st0" d="M32.2,5.2v24.6c0,0.4,0.3,0.7,0.7,0.7h6.3c0.4,0,0.7-0.3,0.7-0.7V5.2c0-0.4-0.3-0.7-0.7-0.7h-6.3
	C32.5,4.5,32.2,4.8,32.2,5.2z M33.5,5.9h4.9v23.2h-4.9L33.5,5.9C33.5,5.9,33.5,5.9,33.5,5.9z"/>
<path class="st0" d="M49,30.5c0.4,0,0.7-0.3,0.7-0.7V13.2c0-0.4-0.3-0.7-0.7-0.7c0,0,0,0,0,0h-6.3c-0.4,0-0.7,0.3-0.7,0.7v16.6
	c0,0.4,0.3,0.7,0.7,0.7L49,30.5L49,30.5z M43.4,13.9h4.9v15.2h-4.9V13.9L43.4,13.9z"/>
<path class="st0" d="M7.5,43.5c0.1,0.1,0.2,0.2,0.2,0.4c0,0.2-0.1,0.3-0.2,0.4c-0.1,0.1-0.3,0.2-0.4,0.2H3.7c-0.3,0-0.6-0.3-0.6-0.6
	c0,0,0,0,0,0v-5.8c0-0.3,0.3-0.6,0.6-0.6c0,0,0,0,0,0H7c0.2,0,0.3,0.1,0.4,0.2c0.1,0.1,0.2,0.3,0.2,0.4c0,0.2-0.1,0.3-0.2,0.4
	c-0.1,0.1-0.3,0.2-0.4,0.2H4.3v1.7h2.3c0.2,0,0.3,0.1,0.4,0.2c0.1,0.1,0.2,0.3,0.2,0.4c0,0.2-0.1,0.3-0.2,0.4
	c-0.1,0.1-0.3,0.2-0.4,0.2H4.3v1.8H7C7.2,43.3,7.3,43.4,7.5,43.5z"/>
<path class="st0" d="M9.8,44.4c-0.4-0.1-0.7-0.3-1.1-0.6c-0.2-0.1-0.3-0.3-0.3-0.5c0-0.2,0.1-0.3,0.2-0.4c0.1-0.1,0.2-0.2,0.4-0.2
	c0.1,0,0.2,0,0.3,0.1c0.2,0.2,0.5,0.4,0.8,0.5c0.3,0.1,0.6,0.2,0.9,0.2c0.4,0,0.7-0.1,1-0.3c0.2-0.1,0.4-0.4,0.4-0.6
	c0-0.3-0.1-0.6-0.4-0.7c-0.4-0.2-0.8-0.3-1.3-0.4c-1.5-0.2-2.2-0.9-2.2-2c0-0.4,0.1-0.8,0.3-1.1c0.2-0.3,0.5-0.6,0.9-0.7
	c0.4-0.2,0.8-0.2,1.3-0.2c0.4,0,0.8,0.1,1.2,0.2c0.3,0.1,0.7,0.3,0.9,0.5c0.2,0.1,0.3,0.3,0.3,0.5c0,0.2-0.1,0.3-0.2,0.4
	c-0.1,0.1-0.2,0.2-0.4,0.2c-0.1,0-0.2,0-0.3-0.1c-0.2-0.2-0.5-0.3-0.7-0.4c-0.3-0.1-0.6-0.2-0.8-0.2c-0.4,0-0.7,0.1-1,0.2
	c-0.3,0.2-0.4,0.7-0.2,1c0.1,0.1,0.1,0.2,0.2,0.2c0.3,0.2,0.7,0.3,1.1,0.4c0.5,0.1,0.9,0.2,1.4,0.4c0.3,0.1,0.6,0.4,0.8,0.6
	c0.2,0.3,0.3,0.7,0.3,1.1c0,0.4-0.1,0.8-0.4,1.1c-0.2,0.3-0.6,0.6-0.9,0.7c-0.4,0.2-0.8,0.3-1.3,0.3C10.6,44.6,10.2,44.5,9.8,44.4z"
	/>
<path class="st0" d="M19.8,37.6c0.1,0.1,0.2,0.2,0.2,0.4c0,0.2-0.1,0.3-0.2,0.4c-0.1,0.1-0.3,0.2-0.4,0.2h-1.6v5.2
	c0,0.2-0.1,0.3-0.2,0.4c-0.1,0.1-0.3,0.2-0.5,0.2c-0.2,0-0.3-0.1-0.5-0.2c-0.1-0.1-0.2-0.3-0.2-0.4v-5.2h-1.6
	c-0.2,0-0.3-0.1-0.4-0.2c-0.1-0.1-0.2-0.3-0.2-0.5c0-0.2,0.1-0.3,0.2-0.4c0.1-0.1,0.3-0.2,0.4-0.2h4.4
	C19.5,37.4,19.7,37.5,19.8,37.6z"/>
<path class="st0" d="M26.1,43.9c0,0.2-0.1,0.3-0.2,0.4c-0.1,0.1-0.2,0.2-0.4,0.2c-0.1,0-0.2,0-0.3-0.1c-0.1-0.1-0.2-0.2-0.2-0.3
	l-0.5-1.2h-3l-0.5,1.2c0,0.1-0.1,0.2-0.2,0.3c-0.2,0.2-0.5,0.1-0.7-0.1c-0.1-0.1-0.1-0.2-0.1-0.3c0-0.1,0-0.1,0-0.2l2.5-6
	c0-0.1,0.1-0.2,0.2-0.3c0.1-0.1,0.3-0.1,0.4-0.1c0.3,0,0.5,0.2,0.6,0.4l2.4,5.9C26,43.8,26.1,43.8,26.1,43.9z M22,41.8h2l-1-2.3
	L22,41.8z"/>
<path class="st0" d="M31.5,37.9c0.4,0.3,0.8,0.8,1,1.3c0.5,1.1,0.5,2.4,0,3.5c-0.2,0.5-0.6,0.9-1,1.3c-0.5,0.3-1,0.5-1.6,0.5h-2.4
	c-0.3,0-0.6-0.3-0.6-0.6c0,0,0,0,0,0v-5.8c0-0.3,0.3-0.6,0.6-0.6c0,0,0,0,0,0h2.4C30.5,37.5,31.1,37.6,31.5,37.9z M31.2,42.7
	c0.6-1,0.6-2.3,0-3.4c-0.3-0.4-0.8-0.7-1.4-0.7h-1.6v4.7h1.6C30.4,43.3,30.9,43.1,31.2,42.7L31.2,42.7z"/>
<path class="st0" d="M35.1,44.3c-0.1,0.1-0.3,0.2-0.4,0.2c-0.2,0-0.3-0.1-0.5-0.2c-0.1-0.1-0.2-0.3-0.2-0.4v-5.8
	c0-0.2,0.1-0.3,0.2-0.4c0.1-0.1,0.3-0.2,0.5-0.2c0.2,0,0.3,0.1,0.4,0.2c0.1,0.1,0.2,0.3,0.2,0.4v5.8C35.3,44,35.3,44.2,35.1,44.3z"
	/>
<path class="st0" d="M37.8,44.4c-0.4-0.1-0.7-0.3-1-0.6c-0.2-0.1-0.3-0.3-0.3-0.5c0-0.2,0.1-0.3,0.2-0.4c0.1-0.1,0.2-0.2,0.4-0.2
	c0.1,0,0.2,0,0.3,0.1c0.2,0.2,0.5,0.4,0.8,0.5c0.3,0.1,0.6,0.2,0.9,0.2c0.4,0,0.7-0.1,1-0.3c0.2-0.1,0.4-0.4,0.4-0.6
	c0-0.3-0.1-0.6-0.4-0.7c-0.4-0.2-0.8-0.3-1.3-0.4c-1.5-0.2-2.2-0.9-2.2-2c0-0.4,0.1-0.8,0.3-1.1c0.2-0.3,0.5-0.6,0.9-0.7
	c0.4-0.2,0.8-0.2,1.3-0.2c0.4,0,0.8,0.1,1.2,0.2c0.3,0.1,0.6,0.3,0.9,0.5c0.2,0.1,0.3,0.3,0.3,0.5c0,0.2-0.1,0.3-0.2,0.4
	c-0.1,0.1-0.2,0.2-0.4,0.2c-0.1,0-0.2,0-0.3-0.1c-0.2-0.2-0.5-0.3-0.7-0.4c-0.3-0.1-0.6-0.2-0.8-0.2c-0.4,0-0.7,0.1-1,0.2
	c-0.3,0.2-0.4,0.7-0.2,1c0.1,0.1,0.1,0.2,0.2,0.2c0.3,0.2,0.7,0.3,1.1,0.4c0.5,0.1,0.9,0.2,1.4,0.4c0.3,0.1,0.6,0.4,0.8,0.6
	c0.2,0.3,0.3,0.7,0.3,1.1c0,0.4-0.1,0.8-0.4,1.1c-0.2,0.3-0.6,0.6-0.9,0.7c-0.4,0.2-0.8,0.3-1.3,0.3C38.6,44.6,38.2,44.5,37.8,44.4z
	"/>
<path class="st0" d="M47.8,37.6c0.1,0.1,0.2,0.2,0.2,0.4c0,0.2-0.1,0.3-0.2,0.4c-0.1,0.1-0.3,0.2-0.4,0.2h-1.6v5.2
	c0,0.2-0.1,0.3-0.2,0.4c-0.1,0.1-0.3,0.2-0.5,0.2c-0.2,0-0.3-0.1-0.5-0.2c-0.1-0.1-0.2-0.3-0.2-0.4v-5.2H43c-0.2,0-0.3-0.1-0.4-0.2
	c-0.1-0.1-0.2-0.3-0.2-0.5c0-0.2,0.1-0.3,0.2-0.4c0.1-0.1,0.3-0.2,0.4-0.2h4.4C47.6,37.4,47.7,37.5,47.8,37.6z"/>
<path class="st0" d="M50.1,44.3c-0.1,0.1-0.3,0.2-0.4,0.2c-0.2,0-0.3-0.1-0.5-0.2C49.1,44.2,49,44,49,43.9v-5.8
	c0-0.2,0.1-0.3,0.2-0.4c0.1-0.1,0.3-0.2,0.5-0.2c0.2,0,0.3,0.1,0.4,0.2c0.1,0.1,0.2,0.3,0.2,0.4v5.8C50.3,44,50.2,44.2,50.1,44.3z"
	/>
<path class="st0" d="M57,38.3c0,0.1-0.1,0.3-0.2,0.4c-0.1,0.1-0.2,0.2-0.4,0.2c-0.1,0-0.2,0-0.3-0.1c-0.3-0.2-0.7-0.2-1.1-0.2
	c-0.4,0-0.8,0.1-1.2,0.3c-0.3,0.2-0.6,0.5-0.8,0.8c-0.2,0.4-0.3,0.8-0.2,1.3c0,0.7,0.2,1.3,0.6,1.8c0.8,0.6,1.8,0.8,2.7,0.4
	c0.1,0,0.2-0.1,0.3-0.1c0.2,0,0.3,0.1,0.4,0.2c0.1,0.1,0.1,0.3,0.2,0.4c0,0.1,0,0.2-0.1,0.3c-0.1,0.1-0.1,0.2-0.2,0.2
	c-0.5,0.3-1.1,0.4-1.7,0.4c-0.6,0-1.2-0.1-1.8-0.4c-0.5-0.3-1-0.7-1.3-1.2c-0.3-0.6-0.5-1.3-0.5-2c0-0.6,0.1-1.3,0.5-1.8
	c0.3-0.5,0.8-1,1.3-1.3c0.6-0.3,1.2-0.5,1.8-0.5c0.6,0,1.1,0.1,1.7,0.4C56.9,37.9,57,38.1,57,38.3z"/>
<path class="st0" d="M63.6,43.9c0,0.2-0.1,0.3-0.2,0.4c-0.1,0.1-0.2,0.2-0.4,0.2c-0.1,0-0.2,0-0.3-0.1c-0.1-0.1-0.2-0.2-0.2-0.3
	L62,42.9h-3l-0.5,1.2c0,0.1-0.1,0.2-0.2,0.3c-0.1,0.1-0.2,0.1-0.3,0.1c-0.3,0-0.5-0.2-0.5-0.4c0,0,0-0.1,0-0.1c0-0.1,0-0.1,0-0.2
	l2.5-6c0-0.1,0.1-0.2,0.2-0.3c0.1-0.1,0.2-0.1,0.4-0.1c0.3,0,0.5,0.2,0.6,0.4l2.5,5.9C63.6,43.8,63.6,43.8,63.6,43.9z M59.5,41.8h2
	l-1-2.3L59.5,41.8z"/>
<path class="st0" d="M65.4,44.4c-0.4-0.1-0.7-0.3-1-0.6c-0.2-0.1-0.3-0.3-0.3-0.5c0-0.2,0.1-0.3,0.2-0.4c0.1-0.1,0.3-0.2,0.4-0.2
	c0.1,0,0.2,0,0.3,0.1c0.2,0.2,0.5,0.4,0.8,0.5c0.3,0.1,0.6,0.2,0.9,0.2c0.4,0,0.7-0.1,1-0.3c0.2-0.1,0.4-0.4,0.4-0.6
	c0-0.3-0.1-0.6-0.4-0.7c-0.4-0.2-0.8-0.3-1.3-0.4c-1.5-0.2-2.2-0.9-2.2-2c0-0.4,0.1-0.8,0.3-1.1c0.2-0.3,0.5-0.6,0.9-0.7
	c0.4-0.2,0.8-0.2,1.3-0.2c0.4,0,0.8,0.1,1.2,0.2c0.3,0.1,0.6,0.3,0.9,0.5c0.2,0.1,0.3,0.3,0.3,0.5c0,0.2-0.1,0.3-0.2,0.4
	c-0.1,0.1-0.2,0.2-0.4,0.2c-0.1,0-0.2,0-0.3-0.1c-0.2-0.2-0.5-0.3-0.7-0.4c-0.3-0.1-0.5-0.2-0.8-0.2c-0.4,0-0.7,0.1-1,0.2
	c-0.3,0.2-0.4,0.7-0.2,1c0.1,0.1,0.1,0.2,0.2,0.2c0.3,0.2,0.7,0.3,1.1,0.4c0.5,0.1,0.9,0.2,1.4,0.4c0.3,0.1,0.6,0.4,0.8,0.6
	c0.2,0.3,0.3,0.7,0.3,1.1c0,0.4-0.1,0.8-0.4,1.1c-0.2,0.3-0.6,0.6-0.9,0.7c-0.4,0.2-0.8,0.3-1.3,0.3C66.3,44.6,65.8,44.5,65.4,44.4z
	"/>
</svg>
