<?xml version="1.0" encoding="utf-8"?>
<!-- Generator: Adobe Illustrator 21.0.0, SVG Export Plug-In . SVG Version: 6.00 Build 0)  -->
<svg version="1.1" id="Capa_1" xmlns="http://www.w3.org/2000/svg" xmlns:xlink="http://www.w3.org/1999/xlink" x="0px" y="0px"
	 viewBox="0 0 72 50" style="enable-background:new 0 0 72 50;" xml:space="preserve">
<style type="text/css">
	.st0{fill:#FFFFFF;}
</style>
<title>mensajes menu on-01</title>
<path class="st0" d="M45.2,8.3c-5.1-5-13.3-5-18.4,0.1c-4.7,4.7-5,12.2-0.9,17.3c-0.4,1-1.1,1.8-2,2.4c-0.6,0.3-0.9,1-0.6,1.6
	c0.2,0.4,0.5,0.6,0.9,0.7c0.3,0,0.6,0.1,0.9,0.1l0,0c1.7,0,3.3-0.5,4.6-1.5c6.3,3.5,14.2,1.2,17.7-5.1C50.3,18.8,49.4,12.4,45.2,8.3
	z M44.2,25.7c-3.7,3.7-9.5,4.5-14,1.8c-0.2-0.2-0.6-0.2-0.8,0c-1.2,0.9-2.6,1.5-4.1,1.6c1-0.8,1.8-1.9,2.2-3.1
	c0.1-0.3,0.1-0.6-0.1-0.8c-4.2-4.8-3.8-12.1,1-16.3s12.1-3.8,16.3,1C48.7,14.4,48.5,21.3,44.2,25.7L44.2,25.7z"/>
<path class="st0" d="M41.4,13.2H30.6c-0.4,0-0.7,0.3-0.7,0.7c0,0.4,0.3,0.7,0.7,0.7l0,0h10.9c0.4,0,0.7-0.3,0.7-0.7
	C42.2,13.5,41.8,13.2,41.4,13.2z"/>
<path class="st0" d="M41.4,16.8H30.6c-0.4,0-0.7,0.3-0.7,0.7c0,0.4,0.3,0.7,0.7,0.7h10.9c0.4,0,0.7-0.3,0.7-0.7
	C42.2,17.1,41.8,16.8,41.4,16.8z"/>
<path class="st0" d="M41.4,20.3H30.6c-0.4,0-0.7,0.3-0.7,0.7c0,0.4,0.3,0.7,0.7,0.7h10.9c0.4,0,0.7-0.3,0.7-0.7
	C42.2,20.6,41.8,20.3,41.4,20.3z"/>
<path class="st0" d="M17.8,37.6c0.1,0.1,0.2,0.3,0.2,0.4v5.8c0,0.3-0.2,0.6-0.6,0.6c0,0,0,0-0.1,0c-0.2,0-0.3-0.1-0.4-0.2
	c-0.1-0.1-0.2-0.3-0.2-0.4v-4l-1.6,2.5c-0.1,0.1-0.1,0.1-0.2,0.2c-0.1,0-0.2,0.1-0.3,0.1c-0.1,0-0.2,0-0.3-0.1
	c-0.1-0.1-0.2-0.1-0.2-0.2l-1.6-2.6v4.1c0,0.2-0.1,0.3-0.2,0.4c-0.1,0.1-0.3,0.2-0.4,0.2c-0.2,0-0.3-0.1-0.4-0.2
	c-0.1-0.1-0.2-0.3-0.2-0.4v-5.8c0-0.2,0.1-0.3,0.2-0.4c0.1-0.1,0.3-0.2,0.4-0.2c0.1,0,0.2,0,0.3,0.1c0.1,0,0.2,0.1,0.2,0.2l2.2,3.3
	l2.2-3.3c0.1-0.1,0.1-0.1,0.2-0.2c0.1,0,0.2-0.1,0.3-0.1C17.6,37.5,17.7,37.5,17.8,37.6z"/>
<path class="st0" d="M23.9,43.5c0.1,0.1,0.2,0.2,0.2,0.4c0,0.2-0.1,0.3-0.2,0.4c-0.1,0.1-0.3,0.2-0.4,0.2h-3.3
	c-0.3,0-0.6-0.3-0.6-0.6c0,0,0,0,0,0v-5.8c0-0.3,0.3-0.6,0.6-0.6c0,0,0,0,0,0h3.4c0.2,0,0.3,0.1,0.4,0.2c0.1,0.1,0.2,0.3,0.2,0.4
	c0,0.2-0.1,0.3-0.2,0.4c-0.1,0.1-0.3,0.2-0.4,0.2h-2.7v1.7H23c0.2,0,0.3,0.1,0.4,0.2c0.1,0.1,0.2,0.3,0.2,0.4c0,0.2-0.1,0.3-0.2,0.4
	c-0.1,0.1-0.3,0.2-0.4,0.2h-2.2v1.8h2.7C23.6,43.3,23.8,43.4,23.9,43.5z"/>
<path class="st0" d="M31,37.6c0.1,0.1,0.2,0.3,0.1,0.4v5.8c0,0.3-0.3,0.6-0.6,0.6c0,0,0,0,0,0c-0.1,0-0.2,0-0.3,0
	c-0.1,0-0.2-0.1-0.2-0.2l-3.7-4.7v4.3c0,0.1-0.1,0.3-0.2,0.4c-0.1,0.1-0.3,0.2-0.4,0.2c-0.1,0-0.3-0.1-0.4-0.2
	c-0.1-0.1-0.2-0.3-0.1-0.4v-5.8c0-0.3,0.3-0.6,0.6-0.6c0,0,0,0,0,0c0.1,0,0.2,0,0.3,0.1c0.1,0,0.2,0.1,0.2,0.2l3.6,4.6V38
	c0-0.1,0.1-0.3,0.2-0.4c0.1-0.1,0.3-0.2,0.4-0.2C30.7,37.4,30.9,37.5,31,37.6z"/>
<path class="st0" d="M33.6,44.4c-0.4-0.1-0.7-0.3-1-0.6c-0.2-0.1-0.3-0.3-0.3-0.5c0-0.2,0.1-0.3,0.2-0.4c0.1-0.1,0.3-0.2,0.4-0.2
	c0.1,0,0.2,0,0.3,0.1c0.2,0.2,0.5,0.4,0.8,0.5c0.3,0.1,0.6,0.2,0.9,0.2c0.4,0,0.7-0.1,1-0.3c0.2-0.1,0.4-0.4,0.4-0.6
	c0-0.3-0.1-0.6-0.4-0.7c-0.4-0.2-0.8-0.3-1.3-0.4c-1.5-0.2-2.2-0.9-2.2-2c0-0.4,0.1-0.8,0.3-1.1c0.2-0.3,0.5-0.6,0.9-0.7
	c0.4-0.2,0.8-0.2,1.3-0.2c0.4,0,0.8,0.1,1.2,0.2c0.3,0.1,0.7,0.3,0.9,0.5c0.2,0.1,0.3,0.3,0.3,0.5c0,0.2-0.1,0.3-0.2,0.4
	c-0.1,0.1-0.2,0.2-0.4,0.2c-0.1,0-0.2,0-0.3-0.1c-0.2-0.2-0.5-0.3-0.7-0.4c-0.3-0.1-0.6-0.2-0.8-0.2c-0.4,0-0.7,0.1-1,0.2
	c-0.3,0.2-0.4,0.7-0.2,1c0.1,0.1,0.1,0.2,0.2,0.2c0.3,0.2,0.7,0.3,1.1,0.4c0.5,0.1,0.9,0.2,1.4,0.4c0.3,0.1,0.6,0.4,0.8,0.6
	c0.2,0.3,0.3,0.7,0.3,1.1c0,0.4-0.1,0.8-0.3,1.1c-0.2,0.3-0.6,0.6-1,0.7c-0.4,0.2-0.8,0.3-1.3,0.3C34.4,44.6,34,44.5,33.6,44.4z"/>
<path class="st0" d="M44.1,43.9c0,0.2-0.1,0.3-0.2,0.4c-0.1,0.1-0.2,0.2-0.4,0.2c-0.1,0-0.2,0-0.3-0.1c-0.1-0.1-0.2-0.2-0.2-0.3
	l-0.5-1.2h-3L39,44.1c0,0.1-0.1,0.2-0.2,0.3c-0.2,0.2-0.5,0.2-0.7,0c-0.1-0.1-0.2-0.2-0.1-0.4c0-0.1,0-0.1,0-0.2l2.5-6
	c0-0.1,0.1-0.2,0.2-0.3c0.1-0.1,0.2-0.1,0.3-0.1c0.3,0,0.5,0.2,0.6,0.4l2.5,5.9C44.1,43.8,44.1,43.8,44.1,43.9z M40,41.8h2l-1-2.3
	L40,41.8z"/>
<path class="st0" d="M45.5,44.3c-0.3-0.2-0.6-0.4-0.8-0.7c-0.1-0.1-0.1-0.2-0.1-0.3c0-0.2,0.1-0.3,0.2-0.4c0.1-0.1,0.2-0.2,0.4-0.2
	c0.2,0,0.4,0.1,0.6,0.3c0.1,0.1,0.2,0.2,0.4,0.3c0.1,0.1,0.3,0.1,0.5,0.1c0.2,0,0.4-0.1,0.5-0.2c0.2-0.1,0.3-0.2,0.4-0.4
	c0.1-0.2,0.2-0.3,0.2-0.5v-4.2c0-0.2,0.1-0.3,0.2-0.4c0.1-0.1,0.3-0.2,0.4-0.2c0.2,0,0.3,0.1,0.5,0.2c0.1,0.1,0.2,0.3,0.2,0.4v4.2
	c0,0.4-0.1,0.8-0.3,1.1c-0.4,0.7-1.2,1.2-2.1,1.2C46.2,44.5,45.9,44.5,45.5,44.3z"/>
<path class="st0" d="M54.9,43.5c0.1,0.1,0.2,0.2,0.2,0.4c0,0.2-0.1,0.3-0.2,0.4c-0.1,0.1-0.3,0.2-0.4,0.2h-3.3
	c-0.3,0-0.6-0.3-0.6-0.6c0,0,0,0,0,0v-5.8c0-0.3,0.3-0.6,0.6-0.6c0,0,0,0,0,0h3.3c0.2,0,0.3,0.1,0.4,0.2c0.1,0.1,0.2,0.3,0.2,0.4
	c0,0.2-0.1,0.3-0.2,0.4c-0.1,0.1-0.3,0.2-0.4,0.2h-2.7v1.7H54c0.2,0,0.3,0.1,0.4,0.2c0.1,0.1,0.2,0.3,0.2,0.4c0,0.2-0.1,0.3-0.2,0.4
	c-0.1,0.1-0.3,0.2-0.4,0.2h-2.3v1.8h2.7C54.6,43.3,54.8,43.4,54.9,43.5z"/>
<path class="st0" d="M57.2,44.4c-0.4-0.1-0.7-0.3-1-0.6c-0.2-0.1-0.3-0.3-0.3-0.5c0-0.1,0-0.3,0.1-0.4c0.1-0.1,0.3-0.2,0.4-0.2
	c0.1,0,0.2,0,0.3,0.1c0.2,0.2,0.5,0.4,0.8,0.5c0.3,0.1,0.6,0.2,0.9,0.2c0.4,0,0.7-0.1,1-0.3c0.2-0.1,0.4-0.4,0.4-0.6
	c0-0.3-0.1-0.6-0.4-0.7c-0.4-0.2-0.8-0.3-1.3-0.4c-1.5-0.2-2.2-0.9-2.2-2c0-0.4,0.1-0.8,0.3-1.1c0.2-0.3,0.5-0.6,0.9-0.7
	c0.4-0.2,0.8-0.2,1.3-0.2c0.4,0,0.8,0.1,1.2,0.2c0.3,0.1,0.6,0.3,0.9,0.5c0.2,0.1,0.3,0.3,0.3,0.5c0,0.2-0.1,0.3-0.2,0.4
	c-0.1,0.1-0.2,0.2-0.4,0.2c-0.1,0-0.2-0.1-0.3-0.1c-0.2-0.2-0.5-0.3-0.7-0.4c-0.3-0.1-0.5-0.2-0.8-0.2c-0.4,0-0.7,0.1-1,0.2
	c-0.3,0.2-0.4,0.7-0.2,1c0.1,0.1,0.1,0.2,0.2,0.2c0.3,0.2,0.7,0.3,1.1,0.4c0.5,0.1,0.9,0.2,1.4,0.4c0.3,0.1,0.6,0.4,0.8,0.6
	c0.2,0.3,0.3,0.7,0.3,1.1c0,0.4-0.1,0.8-0.4,1.1c-0.2,0.3-0.6,0.6-1,0.7c-0.4,0.2-0.8,0.3-1.3,0.3C58,44.6,57.6,44.5,57.2,44.4z"/>
</svg>
