<svg id="Capa_1" data-name="Capa 1" xmlns="http://www.w3.org/2000/svg" viewBox="0 0 72 50"><defs><style>.cls-1{fill:#09c;}</style></defs><title>mensajes menu on-01</title><path class="cls-1" d="M45.19,8.31A13,13,0,0,0,25.95,25.74a4.88,4.88,0,0,1-2,2.37,1.21,1.21,0,0,0,.35,2.29,6.18,6.18,0,0,0,.92.07h0A8.41,8.41,0,0,0,29.84,29,13,13,0,0,0,45.19,8.31Zm-1,17.34a11.53,11.53,0,0,1-14,1.79,0.73,0.73,0,0,0-.82,0A7,7,0,0,1,25.26,29a7.4,7.4,0,0,0,2.23-3.08,0.74,0.74,0,0,0-.13-0.78A11.53,11.53,0,1,1,44.15,25.65Z"/><path class="cls-1" d="M41.44,13.21H30.56a0.73,0.73,0,1,0,0,1.47H41.44A0.73,0.73,0,1,0,41.44,13.21Z"/><path class="cls-1" d="M41.44,16.77H30.56a0.73,0.73,0,1,0,0,1.47H41.44A0.73,0.73,0,1,0,41.44,16.77Z"/><path class="cls-1" d="M41.44,20.32H30.56a0.73,0.73,0,1,0,0,1.47H41.44A0.73,0.73,0,1,0,41.44,20.32Z"/><path class="cls-1" d="M17.84,37.63a0.57,0.57,0,0,1,.19.43v5.79a0.59,0.59,0,0,1-.62.61A0.62,0.62,0,0,1,17,44.3a0.58,0.58,0,0,1-.18-0.44v-4l-1.65,2.52a0.86,0.86,0,0,1-.23.2,0.46,0.46,0,0,1-.27.06,0.45,0.45,0,0,1-.26-0.06,0.86,0.86,0,0,1-.23-0.2l-1.65-2.61v4.12a0.62,0.62,0,0,1-.16.44,0.55,0.55,0,0,1-.42.17,0.53,0.53,0,0,1-.41-0.17,0.62,0.62,0,0,1-.16-0.44V38.07a0.58,0.58,0,0,1,.19-0.43A0.61,0.61,0,0,1,12,37.46a0.66,0.66,0,0,1,.3.08,0.58,0.58,0,0,1,.23.19l2.18,3.35,2.24-3.35a0.6,0.6,0,0,1,.21-0.19,0.55,0.55,0,0,1,.27-0.08A0.61,0.61,0,0,1,17.84,37.63Z"/><path class="cls-1" d="M23.92,43.5a0.55,0.55,0,0,1,.17.4,0.53,0.53,0,0,1-.17.41,0.62,0.62,0,0,1-.44.16H20.14a0.6,0.6,0,0,1-.61-0.61V38.08a0.6,0.6,0,0,1,.61-0.61h3.35a0.61,0.61,0,0,1,.44.17,0.56,0.56,0,0,1,.17.42,0.52,0.52,0,0,1-.17.41,0.63,0.63,0,0,1-.44.16H20.78v1.7H23a0.61,0.61,0,0,1,.44.17,0.56,0.56,0,0,1,.18.43,0.52,0.52,0,0,1-.17.4,0.63,0.63,0,0,1-.44.16H20.78v1.85h2.71A0.59,0.59,0,0,1,23.92,43.5Z"/><path class="cls-1" d="M30.95,37.63a0.56,0.56,0,0,1,.15.4v5.83a0.6,0.6,0,0,1-.61.61,0.86,0.86,0,0,1-.28,0A0.39,0.39,0,0,1,30,44.3l-3.67-4.66v4.27a0.55,0.55,0,0,1-.16.4,0.54,0.54,0,0,1-.4.16,0.51,0.51,0,0,1-.39-0.16,0.56,0.56,0,0,1-.15-0.4V38.08a0.6,0.6,0,0,1,.61-0.61,0.76,0.76,0,0,1,.29.06,0.48,0.48,0,0,1,.22.16L30,42.33V38a0.55,0.55,0,0,1,.16-0.4,0.53,0.53,0,0,1,.4-0.16A0.51,0.51,0,0,1,30.95,37.63Z"/><path class="cls-1" d="M33.57,44.39a3,3,0,0,1-1.05-.61,0.7,0.7,0,0,1-.27-0.53,0.57,0.57,0,0,1,.17-0.41,0.55,0.55,0,0,1,.41-0.17,0.53,0.53,0,0,1,.34.12,2.94,2.94,0,0,0,.78.48,2.43,2.43,0,0,0,.9.15,1.8,1.8,0,0,0,1-.25,0.72,0.72,0,0,0,.41-0.62,0.8,0.8,0,0,0-.4-0.71,3.4,3.4,0,0,0-1.27-.38q-2.19-.32-2.19-2a1.84,1.84,0,0,1,.33-1.09,2.09,2.09,0,0,1,.9-0.71,3.19,3.19,0,0,1,1.27-.24,3.65,3.65,0,0,1,1.19.19,2.9,2.9,0,0,1,.93.5,0.67,0.67,0,0,1,.29.53,0.57,0.57,0,0,1-.17.41,0.54,0.54,0,0,1-.4.17,0.44,0.44,0,0,1-.27-0.09,2.64,2.64,0,0,0-.72-0.39,2.42,2.42,0,0,0-.84-0.17,1.72,1.72,0,0,0-1,.24,0.75,0.75,0,0,0,0,1.26,3.38,3.38,0,0,0,1.12.36,5.79,5.79,0,0,1,1.38.38,1.76,1.76,0,0,1,.77.64,2,2,0,0,1,.26,1.08,1.8,1.8,0,0,1-.35,1.11,2.29,2.29,0,0,1-.95.73,3.17,3.17,0,0,1-1.27.25A4.17,4.17,0,0,1,33.57,44.39Z"/><path class="cls-1" d="M44.11,43.93a0.56,0.56,0,0,1-.17.42,0.55,0.55,0,0,1-.39.17,0.52,0.52,0,0,1-.33-0.11,0.72,0.72,0,0,1-.22-0.3L42.48,42.9h-3L39,44.12a0.62,0.62,0,0,1-.22.29A0.51,0.51,0,0,1,37.92,44a0.64,0.64,0,0,1,0-.19l2.49-6a0.66,0.66,0,0,1,.24-0.31A0.52,0.52,0,0,1,41,37.43a0.6,0.6,0,0,1,.56.4l2.46,5.86A0.68,0.68,0,0,1,44.11,43.93ZM40,41.75h2l-1-2.34Z"/><path class="cls-1" d="M45.52,44.33a2.12,2.12,0,0,1-.8-0.66,0.63,0.63,0,0,1-.12-0.35,0.54,0.54,0,0,1,.19-0.42,0.58,0.58,0,0,1,.39-0.18,0.84,0.84,0,0,1,.56.3,1.15,1.15,0,0,0,.39.25,1.28,1.28,0,0,0,.45.08,1.11,1.11,0,0,0,.55-0.15,1.17,1.17,0,0,0,.42-0.41,1,1,0,0,0,.16-0.54v-4.2a0.57,0.57,0,0,1,.19-0.44,0.63,0.63,0,0,1,.44-0.17,0.61,0.61,0,0,1,.45.17,0.6,0.6,0,0,1,.17.44v4.2a2.16,2.16,0,0,1-.32,1.13,2.41,2.41,0,0,1-2.07,1.16A2.43,2.43,0,0,1,45.52,44.33Z"/><path class="cls-1" d="M54.87,43.5a0.55,0.55,0,0,1,.18.4,0.53,0.53,0,0,1-.18.41,0.62,0.62,0,0,1-.44.16H51.08a0.6,0.6,0,0,1-.61-0.61V38.08a0.6,0.6,0,0,1,.61-0.61h3.35a0.61,0.61,0,0,1,.44.17,0.56,0.56,0,0,1,.18.42,0.52,0.52,0,0,1-.17.41,0.63,0.63,0,0,1-.44.16H51.73v1.7H54a0.61,0.61,0,0,1,.44.17,0.56,0.56,0,0,1,.17.43,0.52,0.52,0,0,1-.17.4,0.63,0.63,0,0,1-.44.16H51.73v1.85h2.71A0.59,0.59,0,0,1,54.87,43.5Z"/><path class="cls-1" d="M57.17,44.39a3,3,0,0,1-1-.61,0.7,0.7,0,0,1-.27-0.53A0.57,0.57,0,0,1,56,42.84a0.55,0.55,0,0,1,.41-0.17,0.53,0.53,0,0,1,.34.12,2.94,2.94,0,0,0,.78.48,2.44,2.44,0,0,0,.9.15,1.8,1.8,0,0,0,1-.25,0.72,0.72,0,0,0,.41-0.62,0.8,0.8,0,0,0-.4-0.71,3.39,3.39,0,0,0-1.27-.38q-2.19-.32-2.19-2a1.84,1.84,0,0,1,.33-1.09,2.09,2.09,0,0,1,.9-0.71,3.19,3.19,0,0,1,1.27-.24,3.66,3.66,0,0,1,1.19.19,2.89,2.89,0,0,1,.92.5,0.67,0.67,0,0,1,.29.53,0.57,0.57,0,0,1-.17.41,0.54,0.54,0,0,1-.4.17A0.44,0.44,0,0,1,60,39.08a2.64,2.64,0,0,0-.73-0.39,2.41,2.41,0,0,0-.83-0.17,1.72,1.72,0,0,0-1,.24,0.75,0.75,0,0,0,0,1.26,3.38,3.38,0,0,0,1.12.36,5.79,5.79,0,0,1,1.38.38,1.76,1.76,0,0,1,.77.64A2,2,0,0,1,61,42.48a1.8,1.8,0,0,1-.36,1.11,2.28,2.28,0,0,1-.95.73,3.16,3.16,0,0,1-1.27.25A4.18,4.18,0,0,1,57.17,44.39Z"/></svg>