<?xml version="1.0" encoding="utf-8"?>
<!-- Generator: Adobe Illustrator 21.0.0, SVG Export Plug-In . SVG Version: 6.00 Build 0)  -->
<svg version="1.1" id="Capa_1" xmlns="http://www.w3.org/2000/svg" xmlns:xlink="http://www.w3.org/1999/xlink" x="0px" y="0px"
	 viewBox="0 0 72 50" style="enable-background:new 0 0 72 50;" xml:space="preserve">
<style type="text/css">
	.st0{fill:#FFFFFF;}
</style>
<title>perfil menu on-01</title>
<path class="st0" d="M35.9,18.5h0.2c1.4,0,2.8-0.6,3.8-1.6c2.1-2.3,1.7-6.3,1.7-6.7c-0.1-2.9-1.5-4.3-2.6-4.9
	c-0.9-0.5-1.9-0.8-2.9-0.8H36c-1,0-2,0.3-2.9,0.7c-1.1,0.6-2.5,2-2.6,4.9c0,0.4-0.4,4.4,1.7,6.7C33.1,17.9,34.5,18.5,35.9,18.5z
	 M31.9,10.3L31.9,10.3C32,6.4,34.8,6,36,6l0,0c1.5,0,3.9,0.6,4.1,4.3l0,0c0,0,0.4,3.7-1.3,5.6c-0.7,0.8-1.7,1.2-2.8,1.2l0,0
	c-1.1,0.1-2.1-0.4-2.8-1.2C31.5,14,31.9,10.3,31.9,10.3L31.9,10.3z"/>
<path class="st0" d="M47.1,25.1L47.1,25.1c0,0,0-0.1,0-0.1c0-1.1-0.1-3.6-2.4-4.4h0c-1.6-0.4-3.1-1.1-4.5-2c-0.3-0.3-0.8-0.2-1,0.1
	c-0.3,0.3-0.2,0.8,0.1,1c0,0,0.1,0.1,0.1,0.1c1.5,1,3.2,1.7,4.9,2.1c1.3,0.5,1.4,1.8,1.4,3c0,0,0,0.1,0,0.1c0,0.6,0,1.1-0.1,1.7
	c-2.9,1.5-6.2,2.3-9.5,2.3c-3.3,0.1-6.6-0.7-9.5-2.2c-0.1-0.5-0.1-1.1-0.1-1.7c0,0,0-0.1,0-0.1c0-1.2,0.2-2.6,1.4-3
	c1.8-0.5,3.4-1.2,4.9-2.3c0.4-0.2,0.5-0.6,0.3-1c-0.2-0.4-0.6-0.5-1-0.3c0,0-0.1,0.1-0.1,0.1c-1.4,0.9-2.9,1.6-4.5,2h0
	C25,21.4,25,23.9,24.9,25c0,0,0,0.1,0,0.1l0,0c0,0.8,0.1,1.6,0.3,2.4c0.1,0.1,0.2,0.3,0.3,0.3c3.2,1.8,6.8,2.7,10.5,2.6
	c3.7,0.1,7.3-0.8,10.5-2.6c0.1-0.1,0.2-0.2,0.3-0.3C47,26.8,47.1,26,47.1,25.1z"/>
<path class="st0" d="M24.3,37.8c0.3,0.2,0.6,0.5,0.7,0.8c0.4,0.7,0.4,1.5,0,2.3c-0.2,0.3-0.4,0.6-0.7,0.8c-0.3,0.2-0.6,0.3-1,0.3
	h-1.7v1.9c0,0.2-0.1,0.3-0.2,0.4c-0.1,0.1-0.3,0.2-0.4,0.2c-0.2,0-0.3-0.1-0.4-0.2c-0.1-0.1-0.2-0.3-0.2-0.4v-5.8
	c0-0.3,0.3-0.6,0.6-0.6c0,0,0,0,0,0h2.3C23.7,37.5,24,37.6,24.3,37.8z M23.7,40.7c0.1-0.1,0.2-0.3,0.3-0.4c0.2-0.3,0.2-0.7,0-1.1
	c-0.1-0.2-0.2-0.3-0.3-0.4c-0.1-0.1-0.2-0.1-0.4-0.2h-1.7v2.2h1.7C23.5,40.8,23.6,40.8,23.7,40.7L23.7,40.7z"/>
<path class="st0" d="M30.9,43.5c0.1,0.1,0.2,0.2,0.2,0.4c0,0.2-0.1,0.3-0.2,0.4c-0.1,0.1-0.3,0.2-0.4,0.2h-3.4
	c-0.3,0-0.6-0.3-0.6-0.6c0,0,0,0,0,0v-5.8c0-0.3,0.3-0.6,0.6-0.6c0,0,0,0,0,0h3.4c0.2,0,0.3,0.1,0.4,0.2c0.1,0.1,0.2,0.3,0.2,0.4
	c0,0.2-0.1,0.3-0.2,0.4c-0.1,0.1-0.3,0.2-0.4,0.2h-2.7v1.7H30c0.2,0,0.3,0.1,0.4,0.2c0.1,0.1,0.2,0.3,0.2,0.4c0,0.2-0.1,0.3-0.2,0.4
	c-0.1,0.1-0.3,0.2-0.4,0.2h-2.3v1.8h2.7C30.6,43.3,30.8,43.4,30.9,43.5z"/>
<path class="st0" d="M37.9,43.7C38,43.8,38,43.9,38,44c0,0.1,0,0.2-0.1,0.3c-0.1,0.1-0.3,0.2-0.5,0.2c-0.2,0-0.3,0-0.4-0.1
	c-0.5-0.4-0.8-1-0.7-1.7c0-0.2-0.1-0.5-0.3-0.6c-0.2-0.1-0.4-0.2-0.7-0.2h-1.9v1.9c0,0.2,0,0.3-0.2,0.4c-0.1,0.1-0.2,0.2-0.4,0.2
	c-0.2,0-0.4-0.1-0.5-0.2c-0.1-0.1-0.2-0.3-0.2-0.4v-5.8c0-0.3,0.3-0.6,0.6-0.6c0,0,0,0,0,0h2.9c0.4,0,0.7,0.1,1,0.3
	c0.3,0.2,0.6,0.5,0.7,0.8c0.2,0.3,0.3,0.7,0.3,1.1c0,0.4-0.1,0.7-0.3,1c-0.2,0.3-0.4,0.6-0.7,0.8c0.4,0.3,0.7,0.7,0.7,1.2
	c0,0.1,0,0.2,0,0.3c0,0.2,0,0.3,0.1,0.5c0,0.1,0.1,0.2,0.2,0.2C37.8,43.6,37.8,43.6,37.9,43.7z M36,40.7c0.1-0.1,0.2-0.3,0.3-0.5
	c0.1-0.2,0.1-0.4,0.1-0.6c0-0.2,0-0.4-0.1-0.5c-0.1-0.1-0.2-0.3-0.3-0.4c-0.1-0.1-0.2-0.1-0.3-0.1h-2.2v2.3h2.2
	C35.8,40.9,35.9,40.8,36,40.7L36,40.7z"/>
<path class="st0" d="M40.3,38.6v1.8h2.2c0.2,0,0.3,0.1,0.4,0.2c0.1,0.1,0.2,0.3,0.2,0.4c0,0.1-0.1,0.3-0.2,0.4
	c-0.1,0.1-0.3,0.2-0.4,0.2h-2.2v2.3c0,0.2-0.1,0.3-0.2,0.4c-0.1,0.1-0.3,0.2-0.4,0.2c-0.2,0-0.3-0.1-0.5-0.2
	c-0.1-0.1-0.2-0.3-0.2-0.4v-5.8c0-0.3,0.3-0.6,0.6-0.6c0,0,0,0,0,0h3.3c0.2,0,0.3,0.1,0.4,0.2c0.1,0.1,0.2,0.3,0.2,0.4
	c0,0.1-0.1,0.3-0.2,0.4c-0.1,0.1-0.3,0.2-0.4,0.2C42.9,38.6,40.3,38.6,40.3,38.6z"/>
<path class="st0" d="M45.8,44.3c-0.1,0.1-0.3,0.2-0.4,0.2c-0.2,0-0.3-0.1-0.5-0.2c-0.1-0.1-0.2-0.3-0.2-0.4v-5.8
	c0-0.2,0.1-0.3,0.2-0.4c0.1-0.1,0.3-0.2,0.5-0.2c0.2,0,0.3,0.1,0.4,0.2c0.1,0.1,0.2,0.3,0.2,0.4v5.8C45.9,44,45.9,44.2,45.8,44.3z"
	/>
<path class="st0" d="M51.7,43.5c0.1,0.1,0.2,0.3,0.2,0.4c0,0.2-0.1,0.3-0.2,0.4c-0.1,0.1-0.3,0.2-0.4,0.2H48c-0.3,0-0.6-0.3-0.6-0.6
	c0,0,0,0,0,0v-5.8c0-0.2,0.1-0.3,0.2-0.4c0.1-0.1,0.3-0.2,0.5-0.2c0.2,0,0.3,0.1,0.4,0.2c0.1,0.1,0.2,0.3,0.2,0.4v5.2h2.6
	C51.4,43.3,51.6,43.3,51.7,43.5z"/>
</svg>
