<svg id="Capa_1" data-name="Capa 1" xmlns="http://www.w3.org/2000/svg" viewBox="0 0 72 50"><defs><style>.cls-1{fill:#09c;}</style></defs><title>productos menu on-01</title><path class="cls-1" d="M10.37,37.77a2.27,2.27,0,0,1,.74.82,2.39,2.39,0,0,1,0,2.25,2.25,2.25,0,0,1-.74.83,1.73,1.73,0,0,1-1,.3H7.66v1.89a0.62,0.62,0,0,1-.16.44,0.55,0.55,0,0,1-.42.17,0.53,0.53,0,0,1-.41-0.17,0.62,0.62,0,0,1-.16-0.44V38.08a0.6,0.6,0,0,1,.61-0.61H9.4A1.73,1.73,0,0,1,10.37,37.77Zm-0.59,2.9a1.18,1.18,0,0,0,.3-0.42,1.3,1.3,0,0,0,0-1.07,1.14,1.14,0,0,0-.3-0.41,0.59,0.59,0,0,0-.37-0.15H7.66v2.21H9.4A0.58,0.58,0,0,0,9.78,40.67Z"/><path class="cls-1" d="M18.23,43.7a0.53,0.53,0,0,1,.08.27,0.52,0.52,0,0,1-.12.33,0.56,0.56,0,0,1-.46.18,0.9,0.9,0,0,1-.44-0.11,1.76,1.76,0,0,1-.72-1.67,0.73,0.73,0,0,0-.23-0.57,1,1,0,0,0-.67-0.21H13.79v1.94a0.65,0.65,0,0,1-.15.44,0.48,0.48,0,0,1-.38.17,0.78,0.78,0,0,1-.51-0.17,0.54,0.54,0,0,1-.21-0.44V38.08a0.6,0.6,0,0,1,.61-0.61H16a1.86,1.86,0,0,1,1,.28,2.07,2.07,0,0,1,.73.77,2.21,2.21,0,0,1,.27,1.1,2,2,0,0,1-.27,1,2.15,2.15,0,0,1-.7.75,1.53,1.53,0,0,1,.69,1.18,1.69,1.69,0,0,1,0,.31,3.13,3.13,0,0,0,.08.45,0.33,0.33,0,0,0,.18.2A0.59,0.59,0,0,1,18.23,43.7Zm-1.9-3a1.29,1.29,0,0,0,.28-0.46,1.69,1.69,0,0,0,.11-0.62,1.2,1.2,0,0,0-.11-0.51,1.06,1.06,0,0,0-.28-0.37A0.54,0.54,0,0,0,16,38.62H13.79v2.27H16A0.5,0.5,0,0,0,16.33,40.72Z"/><path class="cls-1" d="M25.31,42.79a3.37,3.37,0,0,1-1.21,1.3,3.42,3.42,0,0,1-3.49,0,3.34,3.34,0,0,1-1.21-1.3,4,4,0,0,1,0-3.63,3.34,3.34,0,0,1,1.21-1.3,3.42,3.42,0,0,1,3.49,0,3.37,3.37,0,0,1,1.21,1.3A4,4,0,0,1,25.31,42.79Zm-1.13-3a2.19,2.19,0,0,0-.75-0.87,2,2,0,0,0-2.17,0,2.11,2.11,0,0,0-.74.87,2.94,2.94,0,0,0,0,2.44,2.11,2.11,0,0,0,.74.87,2,2,0,0,0,2.17,0,2.18,2.18,0,0,0,.75-0.87A2.87,2.87,0,0,0,24.18,39.75Z"/><path class="cls-1" d="M31.52,37.93a3,3,0,0,1,1,1.26,4.62,4.62,0,0,1,0,3.55,3,3,0,0,1-1,1.26,2.78,2.78,0,0,1-1.62.46H27.51a0.6,0.6,0,0,1-.61-0.61V38.08a0.6,0.6,0,0,1,.61-0.61H29.9A2.78,2.78,0,0,1,31.52,37.93Zm-0.37,4.72a3.36,3.36,0,0,0,0-3.37,1.53,1.53,0,0,0-1.35-.67H28.15v4.7H29.8A1.52,1.52,0,0,0,31.15,42.65Z"/><path class="cls-1" d="M39.44,37.63a0.62,0.62,0,0,1,.16.44v3.62a3,3,0,0,1-.35,1.47,2.53,2.53,0,0,1-1,1,3.08,3.08,0,0,1-2.89,0,2.52,2.52,0,0,1-1-1,3,3,0,0,1-.35-1.47V38.07a0.58,0.58,0,0,1,.18-0.43,0.63,0.63,0,0,1,.46-0.17,0.61,0.61,0,0,1,.6.61v3.62a1.72,1.72,0,0,0,.21.86,1.47,1.47,0,0,0,.56.58,1.54,1.54,0,0,0,.76.2,1.69,1.69,0,0,0,.8-0.2,1.54,1.54,0,0,0,.6-0.58,1.64,1.64,0,0,0,.22-0.86V38.07a0.64,0.64,0,0,1,.15-0.44A0.52,0.52,0,0,1,39,37.46,0.55,0.55,0,0,1,39.44,37.63Z"/><path class="cls-1" d="M46.31,38.32a0.68,0.68,0,0,1-.15.41,0.49,0.49,0,0,1-.41.21,0.71,0.71,0,0,1-.34-0.09,2.47,2.47,0,0,0-1.06-.23,2.42,2.42,0,0,0-1.22.29,2,2,0,0,0-.8.83A2.6,2.6,0,0,0,42,41a2.37,2.37,0,0,0,.63,1.79,2.57,2.57,0,0,0,2.73.38,0.81,0.81,0,0,1,.32-0.08,0.55,0.55,0,0,1,.44.22,0.65,0.65,0,0,1,.15.41,0.54,0.54,0,0,1-.08.29,0.53,0.53,0,0,1-.23.2,3.66,3.66,0,0,1-1.66.39,3.92,3.92,0,0,1-1.8-.42,3.19,3.19,0,0,1-1.31-1.22,3.71,3.71,0,0,1-.49-2,3.61,3.61,0,0,1,.46-1.83,3.29,3.29,0,0,1,1.29-1.26,3.74,3.74,0,0,1,1.85-.46,3.56,3.56,0,0,1,1.65.39A0.54,0.54,0,0,1,46.31,38.32Z"/><path class="cls-1" d="M52.41,37.63a0.55,0.55,0,0,1,.17.42,0.53,0.53,0,0,1-.17.42,0.63,0.63,0,0,1-.44.16H50.4v5.24a0.57,0.57,0,0,1-.19.44,0.67,0.67,0,0,1-.47.17,0.63,0.63,0,0,1-.46-0.17,0.58,0.58,0,0,1-.18-0.44V38.62H47.53a0.62,0.62,0,0,1-.44-0.16A0.55,0.55,0,0,1,46.92,38a0.53,0.53,0,0,1,.17-0.41,0.62,0.62,0,0,1,.44-0.16H52A0.62,0.62,0,0,1,52.41,37.63Z"/><path class="cls-1" d="M59.43,42.79a3.37,3.37,0,0,1-1.21,1.3,3.42,3.42,0,0,1-3.49,0,3.34,3.34,0,0,1-1.21-1.3,4,4,0,0,1,0-3.63,3.34,3.34,0,0,1,1.21-1.3,3.42,3.42,0,0,1,3.49,0,3.37,3.37,0,0,1,1.21,1.3A4,4,0,0,1,59.43,42.79Zm-1.13-3a2.18,2.18,0,0,0-.75-0.87,2,2,0,0,0-2.17,0,2.11,2.11,0,0,0-.74.87,2.94,2.94,0,0,0,0,2.44,2.11,2.11,0,0,0,.74.87,2,2,0,0,0,2.17,0,2.17,2.17,0,0,0,.75-0.87A2.87,2.87,0,0,0,58.3,39.75Z"/><path class="cls-1" d="M62,44.39a3,3,0,0,1-1-.61,0.7,0.7,0,0,1-.27-0.53,0.57,0.57,0,0,1,.17-0.41,0.55,0.55,0,0,1,.41-0.17,0.53,0.53,0,0,1,.34.12,2.94,2.94,0,0,0,.78.48,2.44,2.44,0,0,0,.9.15,1.8,1.8,0,0,0,1-.25,0.72,0.72,0,0,0,.41-0.62,0.8,0.8,0,0,0-.4-0.71A3.39,3.39,0,0,0,63,41.46q-2.19-.32-2.19-2a1.84,1.84,0,0,1,.33-1.09,2.09,2.09,0,0,1,.9-0.71,3.19,3.19,0,0,1,1.27-.24,3.66,3.66,0,0,1,1.19.19,2.89,2.89,0,0,1,.92.5,0.67,0.67,0,0,1,.29.53,0.57,0.57,0,0,1-.17.41,0.54,0.54,0,0,1-.4.17,0.44,0.44,0,0,1-.27-0.09,2.64,2.64,0,0,0-.73-0.39,2.41,2.41,0,0,0-.83-0.17,1.72,1.72,0,0,0-1,.24,0.75,0.75,0,0,0,0,1.26,3.38,3.38,0,0,0,1.12.36,5.79,5.79,0,0,1,1.38.38,1.76,1.76,0,0,1,.77.64,2,2,0,0,1,.26,1.08,1.8,1.8,0,0,1-.36,1.11,2.28,2.28,0,0,1-.95.73,3.16,3.16,0,0,1-1.27.25A4.18,4.18,0,0,1,62,44.39Z"/><path class="cls-1" d="M49,8.4H42.5V7.1a2.6,2.6,0,0,0-2.6-2.6H32.1a2.6,2.6,0,0,0-2.6,2.6V8.4H23A2.6,2.6,0,0,0,20.4,11V27.9A2.6,2.6,0,0,0,23,30.5H49a2.6,2.6,0,0,0,2.6-2.6V11A2.6,2.6,0,0,0,49,8.4ZM30.8,7.1a1.3,1.3,0,0,1,1.3-1.3h7.8a1.3,1.3,0,0,1,1.3,1.3V8.4H30.8V7.1ZM50.3,27.9A1.3,1.3,0,0,1,49,29.2H23a1.3,1.3,0,0,1-1.3-1.3V18.44a2.57,2.57,0,0,0,1.3.36H33.4v1.95a0.65,0.65,0,0,0,.65.65h3.9a0.65,0.65,0,0,0,.65-0.65V18.8H49a2.57,2.57,0,0,0,1.3-.36V27.9h0ZM34.7,20.1V17.5h2.6v2.6H34.7Zm15.6-3.9A1.3,1.3,0,0,1,49,17.5H38.6V16.85a0.65,0.65,0,0,0-.65-0.65H34a0.65,0.65,0,0,0-.65.65V17.5H23a1.3,1.3,0,0,1-1.3-1.3V11A1.3,1.3,0,0,1,23,9.7H49A1.3,1.3,0,0,1,50.3,11v5.2Z"/></svg>