<svg id="d3bf1566-6cd4-4163-a9c1-1ebfc84668ea" data-name="Pantalla copia" xmlns="http://www.w3.org/2000/svg" viewBox="0 0 79.87 92.15">
  <defs>
    <style>
      .\39 6754996-484a-467c-b2c3-831f579e9224, .a5d1ccd5-d0d8-4384-8eca-1d081979e11a {
        fill: #09c;
      }

      .\39 6754996-484a-467c-b2c3-831f579e9224 {
        font-size: 22.65px;
        font-family: Quicksand-Light, Quicksand;
      }
    </style>
  </defs>
  <title>alertas svg</title>
  <g>
    <path class="a5d1ccd5-d0d8-4384-8eca-1d081979e11a" d="M63.89,54.53c-.48-.73-1-1.44-1.45-2.12-.36-.52-.71-1-1-1.51l-.52-.78C60,48.76,59,47.36,58.17,46a18.59,18.59,0,0,1-2.67-8.13,63.68,63.68,0,0,0-1-6.56,11.61,11.61,0,0,0-4-7,9.5,9.5,0,0,0-8.45-1.81,4.16,4.16,0,0,1-4.57-1.71,4.26,4.26,0,0,1-.6-2.32A4.3,4.3,0,0,1,45.29,17a2.09,2.09,0,1,0,3.9-1.49,8.44,8.44,0,0,0-13.9-3A8.42,8.42,0,0,0,34,22.89a8.27,8.27,0,0,0,9.13,3.62,5.39,5.39,0,0,1,4.83,1,0,0,0,0,1,0,0,7.54,7.54,0,0,1,2.52,4.58,61.78,61.78,0,0,1,.89,6.13,23,23,0,0,0,3.26,9.93c.9,1.46,1.87,2.9,2.8,4.29l.52.78c.36.55.74,1.08,1.1,1.59.48.67.93,1.32,1.35,2a1.93,1.93,0,0,1,.39,1.1,2,2,0,0,1-.74,1,9,9,0,0,1-3.21,1.58A48.91,48.91,0,0,1,44,62.5H38.49a48,48,0,0,1-12.81-2.08,9.34,9.34,0,0,1-3.21-1.58,2.09,2.09,0,0,1-.74-1,2,2,0,0,1,.39-1.1c.43-.66.87-1.3,1.35-2,.36-.51.74-1,1.1-1.59l.52-.78C26,51,27,49.58,27.88,48.12a22.72,22.72,0,0,0,3.26-9.93A58.54,58.54,0,0,1,32,32.07a9.49,9.49,0,0,1,.72-2.25A2.09,2.09,0,1,0,29,28a14.11,14.11,0,0,0-1,3.21,63.68,63.68,0,0,0-1,6.56,18.35,18.35,0,0,1-2.67,8.13c-.86,1.4-1.8,2.81-2.7,4.17l-.52.78c-.34.5-.68,1-1,1.51-.48.68-1,1.39-1.45,2.12A5.36,5.36,0,0,0,19.74,62a13,13,0,0,0,4.66,2.4,52.57,52.57,0,0,0,13.95,2.27h5.81a52.57,52.57,0,0,0,13.95-2.27A12.62,12.62,0,0,0,62.77,62C65.23,59.9,65.64,57.23,63.89,54.53Z"/>
    <text class="96754996-484a-467c-b2c3-831f579e9224" transform="translate(1.42 87.78)">Alertas</text>
  </g>
</svg>
