<svg id="Capa_1" data-name="Capa 1" xmlns="http://www.w3.org/2000/svg" viewBox="0 0 72 50"><title>perfil menu off-01</title><path d="M35.91,18.51h0.17a5,5,0,0,0,3.8-1.64c2.07-2.34,1.73-6.34,1.69-6.72C41.43,7.27,40.07,5.9,39,5.26a6,6,0,0,0-2.9-.76H36a6,6,0,0,0-2.9.74c-1.13.64-2.51,2-2.64,4.9,0,0.38-.38,4.39,1.69,6.72A5,5,0,0,0,35.91,18.51Zm-4-8.23s0,0,0,0C32,6.37,34.79,6,36,6H36c1.45,0,3.93.62,4.09,4.28a0.1,0.1,0,0,0,0,0S40.5,14,38.79,15.9A3.53,3.53,0,0,1,36,17.06H36A3.52,3.52,0,0,1,33.2,15.9C31.49,14,31.86,10.31,31.86,10.28Z"/><path d="M47.06,25.15v0s0-.09,0-0.13c0-1.07-.1-3.56-2.44-4.36l-0.05,0a15.54,15.54,0,0,1-4.47-2,0.73,0.73,0,1,0-.83,1.19A16.77,16.77,0,0,0,44.17,22c1.25,0.45,1.39,1.79,1.43,3a1.08,1.08,0,0,0,0,.13,9.77,9.77,0,0,1-.11,1.66A19.81,19.81,0,0,1,36,29.05a19.93,19.93,0,0,1-9.5-2.21,9.25,9.25,0,0,1-.11-1.66s0-.09,0-0.13c0-1.23.18-2.57,1.43-3a16.93,16.93,0,0,0,4.92-2.25,0.73,0.73,0,1,0-.83-1.19,15.37,15.37,0,0,1-4.47,2l-0.05,0c-2.34.8-2.41,3.3-2.44,4.36a1.08,1.08,0,0,1,0,.13v0a8.26,8.26,0,0,0,.27,2.44,0.69,0.69,0,0,0,.28.34A20.37,20.37,0,0,0,36,30.5a20.43,20.43,0,0,0,10.51-2.57,0.72,0.72,0,0,0,.28-0.34A8.66,8.66,0,0,0,47.06,25.15Z"/><path d="M24.31,37.77a2.27,2.27,0,0,1,.74.82,2.39,2.39,0,0,1,0,2.25,2.25,2.25,0,0,1-.74.83,1.73,1.73,0,0,1-1,.3H21.6v1.89a0.62,0.62,0,0,1-.16.44,0.55,0.55,0,0,1-.42.17,0.53,0.53,0,0,1-.41-0.17,0.62,0.62,0,0,1-.16-0.44V38.08a0.6,0.6,0,0,1,.61-0.61h2.28A1.73,1.73,0,0,1,24.31,37.77Zm-0.59,2.9a1.18,1.18,0,0,0,.3-0.42,1.3,1.3,0,0,0,0-1.07,1.14,1.14,0,0,0-.3-0.41,0.59,0.59,0,0,0-.37-0.15H21.6v2.21h1.74A0.58,0.58,0,0,0,23.71,40.67Z"/><path d="M30.87,43.5a0.55,0.55,0,0,1,.17.4,0.53,0.53,0,0,1-.17.41,0.62,0.62,0,0,1-.44.16H27.08a0.6,0.6,0,0,1-.61-0.61V38.08a0.6,0.6,0,0,1,.61-0.61h3.35a0.61,0.61,0,0,1,.44.17,0.56,0.56,0,0,1,.17.42,0.52,0.52,0,0,1-.17.41,0.63,0.63,0,0,1-.44.16H27.73v1.7H30a0.61,0.61,0,0,1,.44.17,0.56,0.56,0,0,1,.18.43,0.52,0.52,0,0,1-.17.4,0.63,0.63,0,0,1-.44.16H27.73v1.85h2.71A0.59,0.59,0,0,1,30.87,43.5Z"/><path d="M37.89,43.7A0.52,0.52,0,0,1,38,44a0.52,0.52,0,0,1-.12.33,0.56,0.56,0,0,1-.46.18,0.89,0.89,0,0,1-.44-0.11,1.76,1.76,0,0,1-.72-1.67A0.73,0.73,0,0,0,36,42.13a1,1,0,0,0-.67-0.21H33.45v1.94a0.65,0.65,0,0,1-.15.44,0.48,0.48,0,0,1-.38.17,0.78,0.78,0,0,1-.51-0.17,0.54,0.54,0,0,1-.21-0.44V38.08a0.6,0.6,0,0,1,.61-0.61h2.88a1.86,1.86,0,0,1,1,.28,2.07,2.07,0,0,1,.73.77,2.22,2.22,0,0,1,.27,1.1,2,2,0,0,1-.27,1,2.16,2.16,0,0,1-.7.75,1.53,1.53,0,0,1,.69,1.18,1.73,1.73,0,0,1,0,.31,3.2,3.2,0,0,0,.08.45,0.33,0.33,0,0,0,.18.2A0.59,0.59,0,0,1,37.89,43.7Zm-1.9-3a1.29,1.29,0,0,0,.28-0.46,1.69,1.69,0,0,0,.11-0.62,1.2,1.2,0,0,0-.11-0.51A1.06,1.06,0,0,0,36,38.76a0.54,0.54,0,0,0-.35-0.14H33.45v2.27h2.19A0.5,0.5,0,0,0,36,40.72Z"/><path d="M40.31,38.62v1.76h2.16a0.61,0.61,0,0,1,.44.17,0.56,0.56,0,0,1,.17.42,0.53,0.53,0,0,1-.17.39,0.6,0.6,0,0,1-.44.17H40.31v2.33a0.58,0.58,0,0,1-.18.44,0.62,0.62,0,0,1-.44.17,0.63,0.63,0,0,1-.46-0.17,0.59,0.59,0,0,1-.17-0.44V38.08a0.6,0.6,0,0,1,.61-0.61h3.25a0.61,0.61,0,0,1,.43.17,0.56,0.56,0,0,1,.18.42,0.53,0.53,0,0,1-.18.39,0.6,0.6,0,0,1-.43.17H40.31Z"/><path d="M45.75,44.29a0.63,0.63,0,0,1-.44.17,0.61,0.61,0,0,1-.45-0.17,0.59,0.59,0,0,1-.17-0.44V38.08a0.58,0.58,0,0,1,.18-0.44,0.63,0.63,0,0,1,.46-0.17,0.6,0.6,0,0,1,.43.17,0.58,0.58,0,0,1,.18.44v5.78A0.57,0.57,0,0,1,45.75,44.29Z"/><path d="M51.73,43.46a0.56,0.56,0,0,1,.17.42,0.55,0.55,0,0,1-.17.42,0.61,0.61,0,0,1-.43.17H48a0.6,0.6,0,0,1-.61-0.61V38.08a0.58,0.58,0,0,1,.18-0.44,0.63,0.63,0,0,1,.46-0.17,0.6,0.6,0,0,1,.43.17,0.58,0.58,0,0,1,.18.44V43.3h2.61A0.61,0.61,0,0,1,51.73,43.46Z"/></svg>