<svg id="Capa_1" data-name="Capa 1" xmlns="http://www.w3.org/2000/svg" viewBox="0 0 72 50"><defs><style>.cls-1{fill:#09c;}</style></defs><title>termometro menu on-01</title><path class="cls-1" d="M7.21,37.63a0.55,0.55,0,0,1,.17.42,0.53,0.53,0,0,1-.17.42,0.63,0.63,0,0,1-.44.16H5.2v5.24a0.57,0.57,0,0,1-.19.44,0.67,0.67,0,0,1-.47.17,0.63,0.63,0,0,1-.46-0.17,0.58,0.58,0,0,1-.18-0.44V38.62H2.33a0.62,0.62,0,0,1-.44-0.16A0.55,0.55,0,0,1,1.72,38a0.53,0.53,0,0,1,.18-0.41,0.62,0.62,0,0,1,.44-0.16H6.77A0.62,0.62,0,0,1,7.21,37.63Z"/><path class="cls-1" d="M12.83,43.5a0.55,0.55,0,0,1,.17.4,0.53,0.53,0,0,1-.17.41,0.62,0.62,0,0,1-.44.16H9a0.6,0.6,0,0,1-.61-0.61V38.08A0.6,0.6,0,0,1,9,37.47h3.35a0.61,0.61,0,0,1,.44.17,0.56,0.56,0,0,1,.17.42,0.52,0.52,0,0,1-.17.41,0.63,0.63,0,0,1-.44.16H9.68v1.7h2.26a0.61,0.61,0,0,1,.44.17,0.56,0.56,0,0,1,.18.43,0.52,0.52,0,0,1-.17.4,0.63,0.63,0,0,1-.44.16H9.68v1.85h2.71A0.59,0.59,0,0,1,12.83,43.5Z"/><path class="cls-1" d="M19.85,43.7a0.53,0.53,0,0,1,.08.27,0.52,0.52,0,0,1-.12.33,0.56,0.56,0,0,1-.46.18,0.9,0.9,0,0,1-.44-0.11,1.76,1.76,0,0,1-.72-1.67,0.73,0.73,0,0,0-.23-0.57,1,1,0,0,0-.67-0.21H15.4v1.94a0.65,0.65,0,0,1-.15.44,0.48,0.48,0,0,1-.38.17,0.78,0.78,0,0,1-.51-0.17,0.54,0.54,0,0,1-.21-0.44V38.08a0.6,0.6,0,0,1,.61-0.61h2.88a1.86,1.86,0,0,1,1,.28,2.07,2.07,0,0,1,.73.77,2.21,2.21,0,0,1,.27,1.1,2,2,0,0,1-.27,1,2.15,2.15,0,0,1-.7.75,1.53,1.53,0,0,1,.69,1.18,1.69,1.69,0,0,1,0,.31,3.13,3.13,0,0,0,.08.45,0.33,0.33,0,0,0,.18.2A0.59,0.59,0,0,1,19.85,43.7Zm-1.9-3a1.29,1.29,0,0,0,.28-0.46,1.69,1.69,0,0,0,.11-0.62,1.2,1.2,0,0,0-.11-0.51,1.06,1.06,0,0,0-.28-0.37,0.54,0.54,0,0,0-.35-0.14H15.4v2.27h2.19A0.5,0.5,0,0,0,17.94,40.72Z"/><path class="cls-1" d="M27.52,37.63a0.57,0.57,0,0,1,.19.43v5.79a0.59,0.59,0,0,1-.62.61,0.62,0.62,0,0,1-.45-0.17,0.58,0.58,0,0,1-.18-0.44v-4l-1.65,2.52a0.86,0.86,0,0,1-.23.2,0.46,0.46,0,0,1-.27.06A0.45,0.45,0,0,1,24,42.54a0.86,0.86,0,0,1-.23-0.2l-1.65-2.61v4.12a0.62,0.62,0,0,1-.16.44,0.55,0.55,0,0,1-.42.17,0.53,0.53,0,0,1-.41-0.17A0.62,0.62,0,0,1,21,43.86V38.07a0.58,0.58,0,0,1,.19-0.43,0.61,0.61,0,0,1,.44-0.18,0.66,0.66,0,0,1,.3.08,0.58,0.58,0,0,1,.23.19l2.18,3.35,2.24-3.35a0.6,0.6,0,0,1,.21-0.19,0.55,0.55,0,0,1,.27-0.08A0.61,0.61,0,0,1,27.52,37.63Z"/><path class="cls-1" d="M35.21,42.79A3.37,3.37,0,0,1,34,44.09a3.42,3.42,0,0,1-3.49,0,3.34,3.34,0,0,1-1.21-1.3,4,4,0,0,1,0-3.63,3.34,3.34,0,0,1,1.21-1.3,3.42,3.42,0,0,1,3.49,0,3.37,3.37,0,0,1,1.21,1.3A4,4,0,0,1,35.21,42.79Zm-1.13-3a2.19,2.19,0,0,0-.75-0.87,2,2,0,0,0-2.17,0,2.11,2.11,0,0,0-.74.87,2.94,2.94,0,0,0,0,2.44,2.11,2.11,0,0,0,.74.87,2,2,0,0,0,2.17,0,2.18,2.18,0,0,0,.75-0.87A2.87,2.87,0,0,0,34.08,39.75ZM32,37a0.33,0.33,0,0,1-.11-0.26A0.37,0.37,0,0,1,32,36.46l0.86-.76a0.78,0.78,0,0,1,.49-0.22,0.56,0.56,0,0,1,.36.14,0.43,0.43,0,0,1,.17.35,0.53,0.53,0,0,1-.1.29,0.69,0.69,0,0,1-.27.24l-1,.53a0.44,0.44,0,0,1-.23.06A0.45,0.45,0,0,1,32,37Z"/><path class="cls-1" d="M43.3,37.63a0.57,0.57,0,0,1,.18.43v5.79a0.59,0.59,0,0,1-.62.61,0.62,0.62,0,0,1-.45-0.17,0.58,0.58,0,0,1-.18-0.44v-4l-1.65,2.52a0.86,0.86,0,0,1-.23.2,0.46,0.46,0,0,1-.27.06,0.45,0.45,0,0,1-.26-0.06,0.85,0.85,0,0,1-.23-0.2l-1.65-2.61v4.12a0.62,0.62,0,0,1-.16.44,0.55,0.55,0,0,1-.42.17A0.53,0.53,0,0,1,37,44.29a0.62,0.62,0,0,1-.16-0.44V38.07A0.58,0.58,0,0,1,37,37.64a0.61,0.61,0,0,1,.44-0.18,0.66,0.66,0,0,1,.3.08,0.58,0.58,0,0,1,.23.19l2.18,3.35,2.24-3.35a0.6,0.6,0,0,1,.21-0.19,0.55,0.55,0,0,1,.27-0.08A0.62,0.62,0,0,1,43.3,37.63Z"/><path class="cls-1" d="M49.38,43.5a0.56,0.56,0,0,1,.17.4,0.53,0.53,0,0,1-.17.41,0.62,0.62,0,0,1-.44.16H45.6A0.6,0.6,0,0,1,45,43.86V38.08a0.6,0.6,0,0,1,.61-0.61h3.35a0.61,0.61,0,0,1,.44.17,0.56,0.56,0,0,1,.17.42,0.52,0.52,0,0,1-.17.41,0.63,0.63,0,0,1-.44.16H46.24v1.7H48.5a0.61,0.61,0,0,1,.44.17,0.56,0.56,0,0,1,.17.43,0.52,0.52,0,0,1-.17.4,0.63,0.63,0,0,1-.44.16H46.24v1.85h2.71A0.59,0.59,0,0,1,49.38,43.5Z"/><path class="cls-1" d="M55.75,37.63a0.55,0.55,0,0,1,.17.42,0.53,0.53,0,0,1-.17.42,0.63,0.63,0,0,1-.44.16H53.74v5.24a0.57,0.57,0,0,1-.19.44,0.67,0.67,0,0,1-.47.17,0.63,0.63,0,0,1-.46-0.17,0.58,0.58,0,0,1-.18-0.44V38.62H50.87a0.62,0.62,0,0,1-.44-0.16A0.55,0.55,0,0,1,50.26,38a0.53,0.53,0,0,1,.17-0.41,0.62,0.62,0,0,1,.44-0.16h4.44A0.62,0.62,0,0,1,55.75,37.63Z"/><path class="cls-1" d="M62.66,43.7a0.53,0.53,0,0,1,.07.27,0.51,0.51,0,0,1-.12.33,0.57,0.57,0,0,1-.46.18,0.9,0.9,0,0,1-.44-0.11A1.75,1.75,0,0,1,61,42.7a0.73,0.73,0,0,0-.24-0.57,1,1,0,0,0-.67-0.21H58.22v1.94a0.66,0.66,0,0,1-.14.44,0.48,0.48,0,0,1-.39.17,0.78,0.78,0,0,1-.5-0.17A0.54,0.54,0,0,1,57,43.86V38.08a0.6,0.6,0,0,1,.61-0.61h2.88a1.85,1.85,0,0,1,1,.28,2.07,2.07,0,0,1,.74.77,2.21,2.21,0,0,1,.28,1.1,2,2,0,0,1-.27,1,2.15,2.15,0,0,1-.7.75,1.53,1.53,0,0,1,.69,1.18,1.73,1.73,0,0,1,0,.31,3.24,3.24,0,0,0,.08.45,0.33,0.33,0,0,0,.18.2A0.61,0.61,0,0,1,62.66,43.7Zm-1.91-3A1.3,1.3,0,0,0,61,40.26a1.69,1.69,0,0,0,.11-0.62A1.2,1.2,0,0,0,61,39.13a1.07,1.07,0,0,0-.28-0.37,0.54,0.54,0,0,0-.35-0.14H58.22v2.27h2.19A0.5,0.5,0,0,0,60.76,40.72Z"/><path class="cls-1" d="M69.74,42.79a3.37,3.37,0,0,1-1.21,1.3,3.42,3.42,0,0,1-3.49,0,3.34,3.34,0,0,1-1.21-1.3,4,4,0,0,1,0-3.63A3.34,3.34,0,0,1,65,37.85a3.42,3.42,0,0,1,3.49,0,3.37,3.37,0,0,1,1.21,1.3A4,4,0,0,1,69.74,42.79Zm-1.13-3a2.18,2.18,0,0,0-.75-0.87,2,2,0,0,0-2.17,0,2.11,2.11,0,0,0-.74.87,2.94,2.94,0,0,0,0,2.44,2.11,2.11,0,0,0,.74.87,2,2,0,0,0,2.17,0,2.17,2.17,0,0,0,.75-0.87A2.87,2.87,0,0,0,68.61,39.75Z"/><path class="cls-1" d="M36,4.5c-6,0-12.43,1.06-12.43,3.39a1.74,1.74,0,0,0,.89,1.36l7.34,9.63a4,4,0,0,1,.81,2.4V28.8c0,1.17,1.76,1.7,3.39,1.7s3.39-.53,3.39-1.7V21.29a4,4,0,0,1,.81-2.4l0.63-.82h3.61a2.27,2.27,0,0,0,2.12-1.47L47.14,15a1.92,1.92,0,0,0-1.8-2.6H45.13l2.41-3.16a1.74,1.74,0,0,0,.89-1.36C48.43,5.56,42,4.5,36,4.5Zm9.35,9a0.79,0.79,0,0,1,.74,1.07l-0.6,1.59a1.14,1.14,0,0,1-1.06.73H41.69l2.58-3.39h1.07Zm-6,4.66a5.11,5.11,0,0,0-1,3.08v7.49a3.2,3.2,0,0,1-2.27.6,3.42,3.42,0,0,1-2.26-.57V21.29a5.11,5.11,0,0,0-1-3.08l-6.09-8A35.81,35.81,0,0,0,36,11.28a35.81,35.81,0,0,0,9.39-1.07ZM36,10.15c-7.31,0-11.3-1.49-11.3-2.26s4-2.26,11.3-2.26S47.3,7.12,47.3,7.89,43.31,10.15,36,10.15Z"/></svg>