<svg id="Capa_1" data-name="Capa 1" xmlns="http://www.w3.org/2000/svg" viewBox="0 0 40 30"><defs><style>.cls-1{fill:#743086;}.cls-1,.cls-2{fill-rule:evenodd;}.cls-2{fill:#209f97;}</style></defs><title>asegurdoras</title><path class="cls-1" d="M19.96987,1.87252c3.84249,0.01127,6.97309,2.60534,6.96474,5.77566-0.00836,3.17414-3.14942,5.7535-6.994,5.74223-3.84588-.01088-6.97438-2.60366-6.966-5.77737,0.00626-3.17037,3.15232-5.751,6.99526-5.74052h0Zm9.69144,19.16063L30.148,21.034v0.48716l-0.48884-.00081,0.0021-.48716h0Zm-1.66072-.00544,0.48883,0.00291-0.00209.48759-0.48759-.0042,0.00086-.4863h0Zm-1.66029-.00544,0.49093,0.0021v0.48716L26.339,21.50985l0.00129-.48759h0Zm-1.65823-.003,0.48844,0.00253-0.0021.48592-0.48634-.00124v-0.4872h0ZM23.02346,21.016l0.48634,0.00043-0.00086.48759-0.48548-.00043V21.016h0Zm-1.66029-.00626,0.49049,0.00334-0.0021.48592-0.49007-.00124,0.00168-.488h0Zm-1.657-.0021h0.48506L20.1896,21.494H19.70454l0.00167-.48634h0Zm-1.66029-.00587h0.48673l-0.00124.48887-0.48634-.00253,0.00086-.48634h0Zm-1.66033-.00459,0.48759,0.00124v0.48677l-0.48883-.003,0.00124-.48506h0Zm-1.65986-.00463h0.48673v0.488h-0.4884l0.00167-.488h0Zm-1.65823-.00544,0.48634,0.0042V21.4772l-0.4884-.00253,0.00206-.48759h0Zm-1.66239-.00459,0.49054,0.00167-0.0042.49012-0.48634-.00377v-0.488h0Zm-1.65652-.0021h0.48759l-0.00124.48677H9.74858V20.98039h0ZM10.16584,0.67594L29.88438,0.72742,29.83416,19.5616,10.116,19.5076,10.16584,0.67594h0ZM9.49452,0L30.55905,0.05481,30.50548,20.23918,9.44095,20.181,9.49452,0h0ZM19.92594,2.79785h0a3.76655,3.76655,0,0,1,3.74834,3.76467L23.67008,8.5652a3.77231,3.77231,0,0,1-3.76883,3.74873h0a3.77013,3.77013,0,0,1-3.7471-3.77174L16.1596,6.54371a3.76413,3.76413,0,0,1,3.76634-3.74585h0ZM14.03011,12.691a55.78341,55.78341,0,0,0,5.94439,2.42915,9.72632,9.72632,0,0,0,4.361.0381c1.89511-.51566,1.87-0.95469,2.39066-0.95259,0.51939,0,.57673.32979,0.3549,0.65833-0.22059.32816-1.65026,1.256-2.06208,1.69338-0.41143.4386-1.34808,1.39372-1.595,1.5879-0.249.19127-.87767,0.7098-2.14076-0.16907-1.25769-.88145-4.07731-2.61751-5.22743-3.2248-1.15093-.60643-2.68569-1.29489-2.95775-1.433a0.41389,0.41389,0,0,1-.244-0.65794c0.1917-.35614.43946-0.32893,1.176,0.03056h0Z"/><path class="cls-2" d="M11.67381,22.91231c0.83829,0.00043,1.38365,1.0254,1.37906,2.65724-0.0042,1.63183-.55539,2.65347-1.39372,2.64931-0.837-.00086-1.37362-1.079-1.37066-2.65724,0.005-1.57955.54827-2.65432,1.38532-2.64931h0Zm11.72841,1.74236c-0.01466.15231,0.09,0.14019,0.1536,0.14019,0.06154,0.00124.12681,0.00124,0.12681,0.00124l-0.00836,2.82468a0.98589,0.98589,0,0,0,.26533.77885,0.62673,0.62673,0,0,0,.84082.00171,0.67133,0.67133,0,0,0,.3051-0.4851c0.00253-.08871-0.05019-0.1515-0.17743-0.01466a0.54629,0.54629,0,0,1-.42064.21891c-0.13938-.0138-0.25445-0.10256-0.25445-0.50893,0.00124-.40976.00836-2.81379,0.00836-2.81379h0.498a0.23086,0.23086,0,0,0,.23148-0.22723c-0.01385-.21682-0.15528-0.16616-0.24318-0.17957C24.63814,24.3776,24.256,24.3893,24.256,24.3893l0.00291-.63617s-0.09-.30592-0.21844-0.07616c-0.12849.22937-.16534,0.32812-0.26494,0.49513a1.93158,1.93158,0,0,0-.37333.48257h0Zm-5.1688-.78519,0.1611,0.09754,0.8559-.86927a0.98624,0.98624,0,0,0,.30931-0.47923c-0.02765-.16239-0.17246-0.29216-0.25407-0.23859a5.02257,5.02257,0,0,0-.547.717c-0.11005.17494-.52522,0.77259-0.52522,0.77259h0Zm2.01643-1.21329c-0.03891-.24193.3156-0.18039,0.45245-0.27626a0.5733,0.5733,0,0,1,.32229-0.21429c0.12886,0.018.10084,0.17833,0.10084,0.26494s-0.013,5.47433-.013,5.47433a0.222,0.222,0,0,0,.11219.19,0.63434,0.63434,0,0,1,.28167.15527,0.19693,0.19693,0,0,1-.18.17957c-0.12137,0-.25114-0.05944-0.38087-0.05944a3.74376,3.74376,0,0,0-.429.03223c-0.12973.01671-.37877,0.05858-0.37877-0.11511,0-.172.252-0.154,0.31894-0.20507a0.59242,0.59242,0,0,0,.0975-0.36789c0-.113.01131-4.77122,0.01131-4.77122a0.12361,0.12361,0,0,0-.0942-0.15527c-0.12849-.04393-0.19877.01757-0.2214-0.13183h0Zm1.57243,2.34206c-0.03266-.11927.05357-0.12973,0.21639-0.24862a1.50945,1.50945,0,0,0,.34316-0.29044,0.27673,0.27673,0,0,1,.20846-0.19041,0.25988,0.25988,0,0,1,.10251.267c0,0.08747-.01127,3.37458-0.01127,3.37458a0.21621,0.21621,0,0,0,.11383.18793,0.64374,0.64374,0,0,1,.28333.15484,0.19813,0.19813,0,0,1-.18081.18081c-0.12052,0-.25025-0.05983-0.38084-0.05983a3.66771,3.66771,0,0,0-.42814.033c-0.12977.0159-.37753,0.05859-0.37753-0.11593,0-.17074.24776-0.15193,0.31809-0.20422a0.58222,0.58222,0,0,0,.09373-0.36831c0-.11259.00879-2.453,0.00879-2.453a0.12517,0.12517,0,0,0-.0933-0.15566c-0.13059-.04144-0.18206.00836-0.21639-0.11177h0Zm0.57754-2.60949a0.51261,0.51261,0,1,1-.316.47293,0.41925,0.41925,0,0,1,.316-0.47293h0Zm7.48245,2.89454a0.3835,0.3835,0,0,1-.21261-0.35619,0.52985,0.52985,0,0,0-.45617-0.41769,0.49344,0.49344,0,0,0-.52192.53739c-0.0138.40264-.0222,0.52273,0.67384,0.97265a1.42661,1.42661,0,0,1,.773,1.18278,1.46429,1.46429,0,0,1-.45913,1.14635,1.10738,1.10738,0,0,1-1.15766.15446,0.50248,0.50248,0,0,1-.4068-0.57133c0-.28624.0021-0.52063,0.00964-0.61522a0.21633,0.21633,0,0,1,.13184-0.21176,0.31985,0.31985,0,0,1,.15694.31847,1.15225,1.15225,0,0,0,.37037.87557,0.70563,0.70563,0,0,0,.74585-0.231,1.14864,1.14864,0,0,0-.044-1.13794,9.8484,9.8484,0,0,1-1.0128-.77512,1.056,1.056,0,0,1-.25869-0.7923,1.12359,1.12359,0,0,1,.47756-0.92872,1.09145,1.09145,0,0,1,.9417-0.1473,0.513,0.513,0,0,1,.34487.43989,0.80773,0.80773,0,0,1-.09587.55706h0Zm-4.45733.421c0.20508,0.1134.36373-.17284,0.43946-0.35156a2.48955,2.48955,0,0,1,.26117-0.61149,0.60393,0.60393,0,0,1,.5307-0.21386c0.30763,0.0381.21343,0.48339,0.21343,0.58719,0,0.10256-.00334.91115-0.00334,0.91115s-0.57.41477-.7458,0.537a2.42775,2.42775,0,0,0-.69977.78223,0.88709,0.88709,0,0,0,.09291,1.06933,0.67615,0.67615,0,0,0,.89019-0.0159c0.3549-.25153.41854-0.44657,0.53071-0.2331,0.11215,0.21386.11215,0.38962,0.362,0.3825a0.58012,0.58012,0,0,0,.43946-0.26786,0.45533,0.45533,0,0,0,.13937-0.39214c-0.08494-.0837-0.15819,0-0.20507.07577-0.04731.07157-.23272,0.11717-0.25239-0.123-0.03766-.50644.021-2.56351-0.03013-2.95484a0.75213,0.75213,0,0,0-.53486-0.63742,1.15723,1.15723,0,0,0-1.09029.43444,2.3945,2.3945,0,0,0-.40179.59683,0.30382,0.30382,0,0,0,.064.4248h0Zm1.30458,0.73115a3.52915,3.52915,0,0,0-.52526.41644,0.85076,0.85076,0,0,0-.3369.67843c-0.0201.2796,0.06274,0.6144,0.4164,0.54617a0.53224,0.53224,0,0,0,.48634-0.40427,1.6334,1.6334,0,0,0,.09335-0.5286V26.49411a0.08264,0.08264,0,0,0-.13394-0.05863h0Zm-9.31563-.75167c0.20511,0.11177.3654-.17576,0.43946-0.35156a2.62924,2.62924,0,0,1,.2637-0.61187,0.59532,0.59532,0,0,1,.52942-0.21386c0.30763,0.03767.21347,0.48382,0.21347,0.58762-0.00167.10084-.00167,0.909-0.00167,0.909s-0.56962.41773-.74541,0.5391a2.43858,2.43858,0,0,0-.70188.78095,0.89846,0.89846,0,0,0,.09,1.06933,0.6789,0.6789,0,0,0,.89353-0.01714c0.35452-.2511.42146-0.44739,0.53237-0.23186,0.10881,0.21553.10881,0.393,0.3612,0.38422a0.57848,0.57848,0,0,0,.43736-0.26829,0.46646,0.46646,0,0,0,.14023-0.393c-0.08456-.08327-0.15613,0-0.20344.07658-0.04894.07324-.23267,0.11679-0.25192-0.123-0.03767-.50936.01924-2.56389-0.03141-2.95647a0.74681,0.74681,0,0,0-.53529-0.63574,1.16156,1.16156,0,0,0-1.09067.434,2.30538,2.30538,0,0,0-.40054.596,0.303,0.303,0,0,0,.0615.426h0Zm1.44438,0.63574a4.79614,4.79614,0,0,0-.66253.5127,0.85555,0.85555,0,0,0-.33694.67676c-0.01881.27707,0.062,0.614,0.41521,0.5487a0.527,0.527,0,0,0,.48462-0.4089,1.45333,1.45333,0,0,0,.095-0.5286c0.00129-.167.00463-0.80066,0.00463-0.80066h0Zm-4.93364-1.83481c0.01174,0.198.08331,0.1356,0.15656,0.16783,0.07324,0.03013.22933-.03223,0.22933,0.239-0.00206.27077-.00626,2.27049-0.00626,2.27049a2.01848,2.01848,0,0,0,.20631.9057,0.91027,0.91027,0,0,0,.80109.49389,0.79146,0.79146,0,0,0,.542-0.28882c0.05357-.07324.288-0.33313,0.3093-0.08409,0.01967,0.2511.00292,0.321,0.12849,0.36493,0.12346,0.03977.09415-.07324,0.25405-0.17953a1.0591,1.0591,0,0,1,.33064-0.19423c0.09416-.02049.17576-0.23143-0.003-0.26867-0.18-.03557-0.18287-0.09377-0.19251-0.33484-0.0117-.24232.005-2.97905,0.005-2.97905a0.24768,0.24768,0,0,0-.20717-0.22269,4.55837,4.55837,0,0,0-.50014,0,0.14993,0.14993,0,0,0-.1653.15527,0.43186,0.43186,0,0,0,.22938.17833,0.34084,0.34084,0,0,1,.13182.31264c-0.00129.14649-.0063,2.09345-0.0063,2.09345a1.25761,1.25761,0,0,1-.15819.63784,0.64824,0.64824,0,0,1-.59224.34153,0.63591,0.63591,0,0,1-.56164-0.75377,5.16466,5.16466,0,0,0-.03891-0.72656l0.00416-2.01022a0.21341,0.21341,0,0,0-.185-0.22556c-0.12849-.0063-0.35992-0.0063-0.54742-0.003a0.14147,0.14147,0,0,0-.1641.1101h0Zm-2.28515,4.13213a2.92137,2.92137,0,0,0,.90527.958,2.2257,2.2257,0,0,0,1.46024.4131,1.70135,1.70135,0,0,0,1.11454-.63866c0.18081-.21223.26537-0.36373,0.13187-0.49389-0.12853-.1335-0.31307.11469-0.542,0.262a1.48212,1.48212,0,0,1-.88852.24317,2.77564,2.77564,0,0,1-1.17819-.313,2.18554,2.18554,0,0,1-.63489-0.473c1.03166-.23936,1.71052-1.55773,1.71386-2.98745,0.005-1.58495-.80481-3.036-2.04785-3.041-1.24428-.00416-2.08218,1.60548-2.05415,3.03018,0.02932,1.41626.80276,3.01715,2.01982,3.0406h0Z"/></svg>