<svg id="Capa_1" data-name="Capa 1" xmlns="http://www.w3.org/2000/svg" viewBox="0 0 40 30"><defs><style>.cls-1{fill:#002d73;}.cls-2{fill:#ff6c0c;}</style></defs><title>asegurdoras</title><path class="cls-1" d="M17.9437,14.66742a0.64116,0.64116,0,0,0-.3916-0.8125h0l-0.3213-.15853V13.409h3.21093v0.28743l-0.3278.1289h0c-0.4847.19823-.4847,0.25277-0.4759,0.84213h0l0.00617,2.37337-0.11947.1136h0a12.87855,12.87855,0,0,1-3.04687.50033c-2.70573,0-4.03777-1.40233-4.03777-4.43393,0-3.26007,1.88283-4.672,4.35417-4.672a4.149,4.149,0,0,1,2.7054.70883,0.776,0.776,0,0,1,.30243.59927,0.51267,0.51267,0,0,1-.07943.3169h0L19.12307,11.338H18.9004a2.38044,2.38044,0,0,0-2.40787-2.1053c-2.0163,0-2.11523,1.4069-2.11523,3.78483,0,2.0804.2181,3.95327,2.6263,3.95327a0.79466,0.79466,0,0,0,.9401-0.8719V14.66742h0Z"/><path class="cls-1" d="M21.24383,17.19378l0.5739-.23243h0c0.471-.1839.471-0.5254,0.471-1.28353h0v-5.4642h0a0.87943,0.87943,0,0,0-.44563-0.852h0l-0.526-.35173V8.72242h2.38347l0.14387,0.089h0c0.26174,0.3519.80763,1.298,1.541,2.2889h0l2.526,3.43817h0a0.41337,0.41337,0,0,0,.209.208c0.10283,0,.10283-0.1289.10283-0.36653h0V10.22355h0c0-.5996-0.00877-0.7184-0.5195-0.92643h0l-0.7474-.28727V8.72242h2.99674V9.00985l-0.3812.14357h0c-0.5602.2228-.66927,0.35173-0.66927,1.21387h0v5.15153h0c0,0.78823.01467,1.58593,0.01467,1.85823h0l-0.08886.10383H28.0954l-0.14423-.10383h0c-0.11847-.1434-0.79817-1.09993-1.49087-2.026h0l-3.06153-4.09213h0a0.848,0.848,0,0,0-.3125-0.3418c-0.11913,0-.11913.13363-0.11913,0.31723h0v4.67627h0c0,0.6297,0,.827.55076,1.01107h0l0.7728,0.27213v0.2871H21.24383v-0.2871h0Z"/><path class="cls-1" d="M30.72137,17.19378l0.5739-.19257h0c0.4313-.14453.44627-0.38117,0.44627-1.20427h0v-5.6525h0c0-.62467,0-0.78287-0.44627-0.9266h0l-0.5739-.208V8.72242H35.056c1.51593,0,3.002.32667,3.002,2.31363,0,1.81787-1.3581,2.94257-3.47757,2.94257-0.08983,0-.209-0.01467-0.28743-0.01467h0l-0.19367-.4707,0.10417-.10417h0a1.81257,1.81257,0,0,0,1.9414-2.25423c-0.1276-1.4318-.5446-1.6992-1.71877-1.6992-0.7972,0-.8522.11913-0.8522,0.446h0V15.797h0c0,0.8773-.015,1.05973.51043,1.20427h0l0.6787,0.19257v0.2871H30.72137v-0.2871h0Z"/><polygon class="cls-1" points="39.993 18.839 12.44 18.839 12.44 18.656 39.993 18.656 39.993 18.839 39.993 18.839"/><path class="cls-2" d="M7.0599,13.05705a1.46419,1.46419,0,1,1-1.46647-1.46143A1.46226,1.46226,0,0,1,7.0599,13.05705h0Z"/><path class="cls-2" d="M3.1608,10.615H0l0.63933,1.95673h1.5752V12.56665h0a2.89674,2.89674,0,0,0,2.89353-2.8929h0V8.103L3.1608,7.464v3.151h0Z"/><path class="cls-2" d="M3.15107,15.49455v3.1556l1.957-.6333V16.44118H5.1032a2.8971,2.8971,0,0,0-2.89357-2.89357H0.63933L0,15.49455H3.15107Z"/><path class="cls-2" d="M8.03093,15.49975h3.1608l-0.6442-1.95213H8.972a2.89571,2.89571,0,0,0-2.888,2.89357h0v1.5695l1.94693,0.63947v-3.1504h0Z"/><path class="cls-2" d="M8.0355,10.62492V7.469L6.084,8.103V9.67848h0a2.90261,2.90261,0,0,0,2.8929,2.89324h1.57063l0.6442-1.9468H8.0355Z"/><path class="cls-1" d="M39.2715,8.866a0.5909,0.5909,0,0,1,0,1.179v0.13867a0.73064,0.73064,0,0,0,0-1.46127V8.866h0Zm0,0.6984V9.39105h0.0052c0.09407,0,.16863-0.01483.16863-0.12353a0.13041,0.13041,0,0,0-.16373-0.1141H39.2715v-0.119h0.02473a0.24519,0.24519,0,0,1,.3076.243,0.20716,0.20716,0,0,1-.2184.2228h0l0.2233,0.3667h-0.1595Zm0,0.48063a0.59061,0.59061,0,0,1,0-1.179h0V8.72242h0a0.73064,0.73064,0,1,0,0,1.46127h0V10.045h0Zm0-1.0106v0.119H39.14323V9.39105H39.2715V9.56438l-0.03483-.05453H39.14323v0.3571h-0.1543V9.03442H39.2715Z"/><path class="cls-1" d="M13.10417,22.53605a1.16514,1.16514,0,0,1-.5716-0.12807,1.08451,1.08451,0,0,1-.1084-0.54493,0.0833,0.0833,0,0,1,.12793-0.0106,0.72007,0.72007,0,0,0,.57943.5285,0.334,0.334,0,0,0,.36327-0.34017,0.67,0.67,0,0,0-.45767-0.534A0.77663,0.77663,0,0,1,12.52867,20.85a0.67342,0.67342,0,0,1,.7819-0.64323,1.32364,1.32364,0,0,1,.38247.0547,0.94581,0.94581,0,0,0,.11493.026,1.65974,1.65974,0,0,1,.05987.48177,0.0907,0.0907,0,0,1-.13083.0101,0.53834,0.53834,0,0,0-.44433-0.418,0.31265,0.31265,0,0,0-.3431.31363,0.494,0.494,0,0,0,.3063.3833l0.22233,0.11833a0.76631,0.76631,0,0,1,.4746.67577A0.73309,0.73309,0,0,1,13.10417,22.53605Z"/><path class="cls-1" d="M16.69957,21.13568c0,0.09407.00324,0.10153,0.09373,0.10153h0.2321c0.17513,0,.2155-0.0239.24933-0.18553l0.01693-.084a0.10215,0.10215,0,0,1,.12437.00307c-0.00653.10743-.00943,0.22967-0.00943,0.35663,0,0.12807.0029,0.24967,0.00943,0.35707a0.09531,0.09531,0,0,1-.12437.0031l-0.01693-.084c-0.03383-.16213-0.0742-0.18833-0.24933-0.18833H16.7933c-0.0905,0-.09373.0031-0.09373,0.10433V21.92a0.61346,0.61346,0,0,0,.053.3195,0.37922,0.37922,0,0,0,.35354.08837,0.51105,0.51105,0,0,0,.59276-0.3911,0.081,0.081,0,0,1,.124.01723,1.89671,1.89671,0,0,1-.1413.5386c-0.178-.00733-0.50063-0.0101-0.777-0.0101H16.46747c-0.16147,0-.32684.00277-0.5801,0.0101a0.09865,0.09865,0,0,1,0-.11787l0.1592-.0231c0.15137-.02377.17153-0.0446,0.17153-0.3535V20.74262c0-.30617-0.02017-0.32683-0.17153-0.35777l-0.084-.01593a0.08428,0.08428,0,0,1,.00587-0.118c0.15887,0.00617.32423,0.01057,0.485,0.01057h0.7132c0.21647,0,.40757-0.0044.45183-0.01057,0.00293,0.053.02637,0.296,0.04364,0.52147a0.08827,0.08827,0,0,1-.1247.01287,0.76327,0.76327,0,0,0-.12793-0.2648,0.43737,0.43737,0,0,0-.32973-0.10467h-0.2692c-0.111,0-.111.00587-0.111,0.13117v0.58873Z"/><path class="cls-1" d="M21.8457,22.102c0,0.1411.00587,0.20833,0.07063,0.22233a0.07063,0.07063,0,0,1-.01007.08007,1.51537,1.51537,0,0,0-.2357.0516,2.62876,2.62876,0,0,1-.59633.08007,1.67281,1.67281,0,0,1-.6621-0.11767,1.06061,1.06061,0,0,1-.66407-1.01627,1.11579,1.11579,0,0,1,.59374-1.01727,1.651,1.651,0,0,1,.7871-0.17807,4.30529,4.30529,0,0,1,.666.08073c0.00977,0.10123.014,0.33723,0.04687,0.54183a0.08965,0.08965,0,0,1-.12694.0075,0.62635,0.62635,0,0,0-.63317-0.47543,0.843,0.843,0,0,0-.79456.97577,1.02782,1.02782,0,0,0,.3841.91567,0.81774,0.81774,0,0,0,.46093.1281c0.1914,0,.23243-0.0368.23243-0.25553V21.91335c0-.18167-0.02083-0.20233-0.18263-0.22577l-0.14713-.01987a0.07568,0.07568,0,0,1,0-.11767c0.2383,0.00667.403,0.00943,0.56837,0.00943,0.16177,0,.3265-0.00277.4414-0.00943a0.0984,0.0984,0,0,1,0,.11767l-0.07813.014c-0.1009.01647-.12077,0.05-0.12077,0.23163V22.102Z"/><path class="cls-1" d="M24.2347,20.74585c0-.3138-0.01953-0.33367-0.17056-0.36377l-0.085-.0171a0.08,0.08,0,0,1,.00683-0.11407c0.1618,0.00617.32977,0.01057,0.49123,0.01057,0.16537,0,.33007-0.0044.49187-0.01057a0.09212,0.09212,0,0,1,0,.11407l-0.08073.014c-0.1517.02653-.1722,0.05307-0.1722,0.36687v0.77687c0,0.39453.04393,0.82893,0.556,0.82893,0.43067,0,.56153-0.377.56153-0.8395V21.10588a2.31346,2.31346,0,0,0-.05077-0.6167,0.22833,0.22833,0,0,0-.19433-0.1071l-0.09083-.0171a0.1,0.1,0,0,1,0-.11407c0.18067,0.00617.3125,0.01057,0.44987,0.01057,0.12533,0,.24967-0.0044.37793-0.01057a0.10057,0.10057,0,0,1,0,.11407l-0.06153.014a0.21827,0.21827,0,0,0-.18067.1102,2.356,2.356,0,0,0-.05077.6167v0.377a1.16619,1.16619,0,0,1-.21583.811,0.9095,0.9095,0,0,1-.66667.24217,1.00962,1.00962,0,0,1-.66537-0.1883,0.93425,0.93425,0,0,1-.25-0.76057V20.74585Z"/><path class="cls-1" d="M28.5267,20.80592c0-.33627-0.00717-0.37387-0.1491-0.39373l-0.08917-.01333a0.07733,0.07733,0,0,1,.00583-0.11863c0.25293-.01563.515-0.0293,0.83433-0.0293a1.419,1.419,0,0,1,.66013.1206,0.55287,0.55287,0,0,1,.29657.49853,0.54391,0.54391,0,0,1-.35743.505c-0.0332.01677-.0332,0.0371-0.0166,0.0739a2.75968,2.75968,0,0,0,.5215.8413,0.42084,0.42084,0,0,0,.2259.0949,0.06457,0.06457,0,0,1,.014.08673,0.80446,0.80446,0,0,1-.26627.03093,0.68975,0.68975,0,0,1-.65367-0.354,4.34275,4.34275,0,0,1-.262-0.52147,0.17037,0.17037,0,0,0-.17807-0.11787c-0.11816,0-.12563.00733-0.12563,0.07343v0.4152c0,0.3089.02114,0.33233,0.1725,0.359l0.09117,0.01757a0.10753,0.10753,0,0,1,0,.11787c-0.179-.00733-0.334-0.0101-0.49513-0.0101-0.16893,0-.3164.00277-0.49057,0.0101a0.09238,0.09238,0,0,1,0-.11787l0.08987-.01757c0.151-.0267.17187-0.05013,0.17187-0.359V20.80592Zm0.4603,0.42773c0,0.11833.01073,0.12777,0.209,0.12777a0.324,0.324,0,0,0,.2565-0.0949,0.48714,0.48714,0,0,0,.12046-0.36247,0.44506,0.44506,0,0,0-.44043-0.49853c-0.138,0-.1455.01027-0.1455,0.17157v0.65657Z"/><path class="cls-1" d="M34.57814,21.36142a1.11668,1.11668,0,0,1-1.21484,1.17463,1.09819,1.09819,0,0,1-1.168-1.1473,1.15915,1.15915,0,0,1,1.2015-1.182A1.11311,1.11311,0,0,1,34.57814,21.36142Zm-1.20833-1a0.77494,0.77494,0,0,0-.63674.94923,0.92162,0.92162,0,0,0,.69337,1.0703c0.4414,0,.6133-0.43.6133-0.97623A0.88452,0.88452,0,0,0,33.3698,20.36142Z"/><path class="cls-1" d="M37.2536,22.53605a1.16359,1.16359,0,0,1-.5713-0.12807,1.07826,1.07826,0,0,1-.10807-0.54493,0.08357,0.08357,0,0,1,.12824-0.0106,0.71754,0.71754,0,0,0,.5788.5285,0.33463,0.33463,0,0,0,.3636-0.34017,0.67157,0.67157,0,0,0-.4577-0.534,0.77578,0.77578,0,0,1-.5091-0.65673,0.673,0.673,0,0,1,.78127-0.64323,1.33935,1.33935,0,0,1,.38443.0547,0.89713,0.89713,0,0,0,.11327.026,1.604,1.604,0,0,1,.06087.48177,0.09151,0.09151,0,0,1-.1315.0101,0.53754,0.53754,0,0,0-.44367-0.418,0.31323,0.31323,0,0,0-.34377.31363,0.49357,0.49357,0,0,0,.306.3833l0.22233,0.11833a0.76711,0.76711,0,0,1,.47557.67577A0.73369,0.73369,0,0,1,37.2536,22.53605Z"/></svg>