<svg id="Pantalla_copia" data-name="Pantalla copia" xmlns="http://www.w3.org/2000/svg" viewBox="0 0 80 60"><defs><style>.cls-1{fill:#005b9b;}.cls-2{fill:#fff;}.cls-3{fill:#faa92a;}</style></defs><title>Visa</title><path class="cls-1" d="M75.57,54.79H3.18V5.21H76.82V54.79H75.57Z"/><path class="cls-2" d="M75.57,53.54H4.43V6.46H75.57Z"/><path class="cls-1" d="M30.14,37.64l4.62-15.23h4.12L34.26,37.64ZM28.3,22.41l-3.71,6.46a15.66,15.66,0,0,0-1.76,3.61h-.06c.07-1.35-.12-3-.14-4l-.41-6.11H15.28l-.07.41a2.88,2.88,0,0,1,3.13,2.73l1.35,12.09H24L32.6,22.41ZM60.36,37.64l-.11-2.27H55.1L54,37.64H49.57l8.12-15.21h5.49l1.37,15.21H60.36Zm-.47-9a35,35,0,0,1,0-3.58h-.06c-.25.76-1.33,3-1.8,4.14l-1.53,3.34H60.1ZM43.21,38.08A11.52,11.52,0,0,1,37,36.33l2-3a7.62,7.62,0,0,0,4.45,1.49A1.91,1.91,0,0,0,45.21,34c.57-1-.13-1.52-1.74-2.44l-.8-.52c-2.39-1.63-3.42-3.18-2.3-5.89.72-1.73,2.62-3,5.75-3a9.23,9.23,0,0,1,5.36,1.85l-2.26,2.65a5,5,0,0,0-3.2-1.4,1.92,1.92,0,0,0-1.76.79c-.43.85.14,1.43,1.39,2.21l.95.6c2.9,1.83,3.59,3.75,2.86,5.54-1.25,3.09-3.7,3.77-6.26,3.77Zm22.57-13.6H65.6V23.39H66c.26,0,.4.09.4.31a.28.28,0,0,1-.28.3l.3.48h-.2L65.95,24h-.17v.46Zm.2-.62c.13,0,.25,0,.25-.17s-.13-.15-.24-.15h-.22v.32H66Zm0,1a1,1,0,1,1,1-1A.95.95,0,0,1,66,24.9Zm0-1.79a.81.81,0,1,0,.75.81A.76.76,0,0,0,66,23.1Z"/><path class="cls-3" d="M73.82,42.38H6.3v9H73.82v-9Z"/><path class="cls-1" d="M73.7,8.72H6.18v9H73.7ZM72.15,50.77H72V49.68h.41c.26,0,.4.09.4.31a.28.28,0,0,1-.28.3l.3.48h-.2l-.28-.46h-.17v.46Zm.2-.62c.13,0,.25,0,.25-.17s-.13-.15-.24-.15h-.22v.32h.2Zm0,1a1,1,0,1,1,1-1A.95.95,0,0,1,72.35,51.19Zm0-1.79a.81.81,0,1,0,.75.81A.76.76,0,0,0,72.35,49.39Z"/></svg>