<svg id="Pantalla_copia" data-name="Pantalla copia" xmlns="http://www.w3.org/2000/svg" viewBox="0 0 80 60"><defs><style>.cls-1{fill:#003473;}.cls-2{fill:#fbb031;}.cls-3{fill:#ed1b2e;}.cls-4{fill:#fff;}</style></defs><title>MasterCard</title><path class="cls-1" d="M2.79,53.54H77.21V6.46H2.79V53.54Z"/><path class="cls-2" d="M40.06,45A20.32,20.32,0,1,0,33.36,30,20.26,20.26,0,0,0,40.06,45Z"/><path class="cls-2" d="M71.34,41.29a.64.64,0,0,1,.68-.64.63.63,0,0,1,.64.64A.67.67,0,0,1,72,42a.67.67,0,0,1-.68-.67Zm.68.52a.52.52,0,0,0,.48-.52.49.49,0,0,0-.48-.48.49.49,0,0,0-.52.48A.53.53,0,0,0,72,41.81Zm-.12-.2h-.12V41H72a.24.24,0,0,1,.16,0s.08.08.08.12,0,.16-.12.16l.12.28H72.1L72,41.37H71.9v.24Zm0-.36h.16s0,0,0-.08a0,0,0,0,0,0,0H71.9v.12Z"/><path class="cls-3" d="M46.64,27.81a20.25,20.25,0,0,0-.36-2.15H33.84a21.64,21.64,0,0,1,.6-2.15H45.69q-.37-1.1-.84-2.15H35.27q.55-1.1,1.2-2.15h7.18A13.41,13.41,0,0,0,42.1,17H38a20.64,20.64,0,0,1,2-2.15A20.35,20.35,0,1,0,26.41,50.31,20.19,20.19,0,0,0,40.06,45a26.45,26.45,0,0,0,2.07-2.15H38a21.25,21.25,0,0,1-1.56-2.15h7.18a18.77,18.77,0,0,0,1.2-2.16H35.27a17.26,17.26,0,0,1-.84-2.15H45.69a21.88,21.88,0,0,0,.6-2.16,20.37,20.37,0,0,0,.36-2.15,19.45,19.45,0,0,0,0-4.31Z"/><path class="cls-4" d="M71.34,34.67A.64.64,0,0,1,72,34a.63.63,0,0,1,.64.64.67.67,0,0,1-.64.68.67.67,0,0,1-.68-.67S71.34,34.67,71.34,34.67Zm.68.52a.52.52,0,0,0,.48-.52.49.49,0,0,0-.48-.48.49.49,0,0,0-.52.48A.53.53,0,0,0,72,35.19ZM71.9,35h-.12v-.6H72a.24.24,0,0,1,.16,0s.08.08.08.12,0,.16-.12.16l.12.28H72.1L72,34.75H71.9V35Zm0-.36h.16s0,0,0-.08a0,0,0,0,0,0,0H71.9v.12Z"/><path class="cls-1" d="M33.16,35.83a5.64,5.64,0,0,1-1.68.28,1.6,1.6,0,0,1-1.68-1.84,5.46,5.46,0,0,1,.08-.76l.12-.8.12-.68,1-5.75H33.2L33,27.57h1.32L34,29.68H32.64L32,33.11c0,.12,0,.24,0,.32,0,.44.24.64.76.64a3.49,3.49,0,0,0,.68-.08l-.28,1.84ZM40,35.75a7.51,7.51,0,0,1-2.27.36A3.39,3.39,0,0,1,34,32.35c0-2.87,1.64-5,3.87-5a2.82,2.82,0,0,1,3,3.07,9,9,0,0,1-.28,2.07H36.11v.24c0,1,.64,1.48,1.92,1.48a5.41,5.41,0,0,0,2.31-.52L40,35.75Zm-1.32-5v-.4a1,1,0,0,0-1-1.08c-.72,0-1.2.52-1.4,1.48h2.43ZM16.28,35.95H14.08L15.36,28l-2.83,7.94H11L10.85,28l-1.36,7.9H7.38L9.09,25.61h3.15L12.37,32l2.11-6.38H18Zm5.31-3.75c-.24,0-.28,0-.44,0-1.24,0-1.88.48-1.88,1.28a.78.78,0,0,0,.8.88c1.08,0,1.48-.88,1.52-2.12Zm1.76,3.75H21.43l0-.88a2.5,2.5,0,0,1-2.31,1,2.11,2.11,0,0,1-2-2.31,4.38,4.38,0,0,1,.16-1.08C17.71,31.4,19,30.6,21,30.56a8.37,8.37,0,0,1,1,0,1.67,1.67,0,0,0,.08-.56c0-.56-.44-.72-1.48-.72a8.54,8.54,0,0,0-1.84.24l-.28.12h-.16l.32-1.88a8.16,8.16,0,0,1,2.55-.44c1.92,0,2.91.84,2.91,2.47A7,7,0,0,1,24,31.48l-.44,3-.08.52-.08.44v.28l0,.24Zm27.25-8.3a4.2,4.2,0,0,1,2,.56l.36-2.27c-.2-.08-.24-.08-.52-.2l-.92-.2a3.6,3.6,0,0,0-1-.12,4,4,0,0,0-2.39.44,5.35,5.35,0,0,0-1.32,1.08l-.24-.08-2.27,1.6.12-.88H42L40.7,35.95h2.2l.8-4.51a7.58,7.58,0,0,1,.48-.84,1.24,1.24,0,0,1,1.2-.52h.16c0,.48-.08,1-.08,1.6,0,2.75,1.56,4.47,4,4.47a6.17,6.17,0,0,0,1.92-.32l.4-2.35a4.16,4.16,0,0,1-1.88.52c-1.28,0-2-.92-2-2.51,0-2.24,1.12-3.83,2.79-3.83Zm18.63-2-.48,3a2.24,2.24,0,0,0-2-1.16,3.31,3.31,0,0,0-2.91,1.88l-1.4-.84.12-.88H60.21l-1.36,8.38h2.23l.72-4.51s.56-.64.72-.84a1.23,1.23,0,0,1,1-.52,7.84,7.84,0,0,0-.4,2.47c0,2.11,1.12,3.51,2.71,3.51a2.54,2.54,0,0,0,2-1l-.12.84h2.11L71.5,25.61H69.23ZM66.56,34c-.76,0-1.12-.52-1.12-1.64,0-1.64.68-2.83,1.72-2.83.76,0,1.16.6,1.16,1.68,0,1.64-.72,2.79-1.76,2.79ZM56.38,32.19c-.24,0-.28,0-.44,0-1.24,0-1.88.48-1.88,1.28a.78.78,0,0,0,.8.88c1.08,0,1.48-.88,1.52-2.12Zm1.76,3.75H56.22l0-.88a2.5,2.5,0,0,1-2.31,1,2.15,2.15,0,0,1-2-2.31c0-2,1.52-3.23,3.91-3.23a8.37,8.37,0,0,1,1,0,1.66,1.66,0,0,0,.08-.56c0-.56-.44-.72-1.48-.72a8.21,8.21,0,0,0-1.84.24l-.32.12h-.12l.32-1.88A8.16,8.16,0,0,1,56,27.37c1.92,0,2.91.84,2.91,2.47a7,7,0,0,1-.12,1.64l-.44,3-.08.52-.08.44,0,.28ZM27.93,29.36a14.24,14.24,0,0,1,1.68.12l.32-2a19.1,19.1,0,0,0-2-.16c-2.43,0-3.27,1.32-3.27,2.87a2.36,2.36,0,0,0,1.64,2.27c.92.44,1.08.52,1.08.88,0,.52-.48.84-1.36.84a7.14,7.14,0,0,1-2-.32l-.24,1.92h0l.4.08a1.85,1.85,0,0,0,.56.08,8.55,8.55,0,0,0,1.28.08c2.43,0,3.47-.92,3.47-2.79A2.33,2.33,0,0,0,27.89,31c-.92-.44-1-.48-1-.88s.4-.72,1.08-.72Z"/><path class="cls-4" d="M53.51,25.29l-.36,2.23a4.2,4.2,0,0,0-2-.56c-1.68,0-2.83,1.6-2.83,3.87,0,1.56.8,2.51,2.07,2.51a4.17,4.17,0,0,0,1.88-.52l-.4,2.35a7.43,7.43,0,0,1-2,.28c-2.35,0-3.83-1.68-3.83-4.43,0-3.71,2-6.26,4.95-6.26a6.75,6.75,0,0,1,1,.08l.92.24c.28.12.32.12.52.2Zm-7.06,1.56a.51.51,0,0,0-.24,0c-.72,0-1.12.36-1.8,1.36l.2-1.28h-2l-1.32,8.42h2.2c.8-5.15,1-6,2.07-6h.16a7.58,7.58,0,0,1,.84-2.43h-.08ZM33.72,35.19a4.81,4.81,0,0,1-1.6.28,1.62,1.62,0,0,1-1.76-1.84,5.46,5.46,0,0,1,.08-.76l.12-.84.12-.64,1-5.75h2.19l-.24,1.24h1.12L34.39,29H33.28l-.6,3.47c0,.16,0,.28,0,.36,0,.44.24.64.76.64a2.15,2.15,0,0,0,.6-.08l-.28,1.84Zm-8.5-5.63a2.42,2.42,0,0,0,1.68,2.31c.92.44,1,.56,1,1s-.4.76-1.28.76a6,6,0,0,1-2-.36l-.32,2h.12l.4.08a1.85,1.85,0,0,0,.56.08c.52,0,1,.08,1.24.08,2.31,0,3.39-.88,3.39-2.79a2.31,2.31,0,0,0-1.56-2.35c-.92-.4-1-.52-1-.88s.36-.72,1.08-.72a12.63,12.63,0,0,1,1.6.16l.32-2a16.87,16.87,0,0,0-2-.16c-2.47,0-3.31,1.28-3.31,2.83Zm45.17,5.75H68.27l.12-.84a2.62,2.62,0,0,1-2,.92c-1.6,0-2.67-1.36-2.67-3.47,0-2.79,1.64-5.15,3.59-5.15a2.47,2.47,0,0,1,2.11,1.16l.48-3h2.2L70.39,35.31Zm-3.27-2c1,0,1.76-1.16,1.76-2.83,0-1-.4-1.64-1.16-1.64-1,0-1.72,1.16-1.72,2.83C66,32.75,66.36,33.31,67.11,33.31Zm-26.66,1.8a7.34,7.34,0,0,1-2.27.36c-2.47,0-3.75-1.32-3.75-3.75,0-2.91,1.64-5,3.87-5a2.82,2.82,0,0,1,3,3.07A11.41,11.41,0,0,1,41,31.84H36.63a.59.59,0,0,0,0,.24c0,1,.64,1.48,2,1.48A5.37,5.37,0,0,0,40.82,33Zm-1.24-5v-.44a1,1,0,0,0-1-1.08c-.68,0-1.2.56-1.4,1.52h2.43ZM16.84,35.31H14.64l1.28-7.94-2.83,7.94H11.57l-.16-7.9-1.36,7.9H8L9.73,25h3.15L13,31.36,15.12,25h3.43L16.84,35.31Zm5.47-3.75a2.66,2.66,0,0,0-.52,0c-1.24,0-1.88.44-1.88,1.28a.8.8,0,0,0,.8.88c.92,0,1.56-.88,1.6-2.12Zm1.6,3.75H22.06l0-.88a2.75,2.75,0,0,1-2.31,1,2,2,0,0,1-2-2.27c0-2,1.4-3.23,3.87-3.23a7.09,7.09,0,0,1,.88,0,1.37,1.37,0,0,0,.08-.52c0-.56-.36-.76-1.4-.76a6.4,6.4,0,0,0-1.84.24l-.32.08-.2,0,.32-1.88a9,9,0,0,1,2.63-.44c1.92,0,2.91.84,2.91,2.43a8.9,8.9,0,0,1-.2,1.68l-.44,3-.08.52,0,.44,0,.28,0,.24Zm33.2-3.75a2.65,2.65,0,0,0-.52,0c-1.24,0-1.88.44-1.88,1.28a.8.8,0,0,0,.8.88c.88,0,1.56-.88,1.6-2.12Zm1.6,3.75H56.86l0-.88a2.8,2.8,0,0,1-2.31,1,2.06,2.06,0,0,1-2-2.27c0-2,1.44-3.23,3.91-3.23a7.08,7.08,0,0,1,.88,0,1.36,1.36,0,0,0,.08-.52c0-.56-.36-.76-1.4-.76a6.39,6.39,0,0,0-1.84.24l-.32.08-.2,0L54,27.17a9,9,0,0,1,2.63-.44c1.92,0,2.91.84,2.91,2.43a8.89,8.89,0,0,1-.2,1.68l-.44,3-.08.52-.08.44,0,.28v.24h0Zm5.91-8.46a.3.3,0,0,0-.2,0c-.72,0-1.16.36-1.84,1.36l.2-1.28h-2l-1.36,8.42h2.23c.76-5.15,1-6,2-6h.16a8.68,8.68,0,0,1,.84-2.43H64.6Z"/></svg>