<svg id="Capa_1" data-name="Capa 1" xmlns="http://www.w3.org/2000/svg" viewBox="0 0 40 30"><defs><style>.cls-1{fill:#023c5b;}</style></defs><title>asegurdoras</title><path class="cls-1" d="M4.03381,10.22511A4.03452,4.03452,0,1,0,0,6.19129a4.03514,4.03514,0,0,0,4.03381,4.03381m17.67066,8.478a1.02013,1.02013,0,0,1,.879.46157l1.82564-.69319a2.98753,2.98753,0,0,0-2.66559-1.5313,3.0967,3.0967,0,0,0-3.24738,3.07951c0.03387,1.80012,1.27459,3.04248,3.41358,3.06255,0.85981,0.00942,3.076-.545,2.88882-3.60234H21.5429v1.3952H22.466a0.777,0.777,0,0,1-.78412.52973A1.216,1.216,0,0,1,20.681,20.01969a1.1714,1.1714,0,0,1,1.02349-1.31659m8.26975-1.63748L29.09728,20.296l-0.83182-3.23042h-2.171l-0.994,5.86005h2.03405l0.39238-3.32136,0.92318,3.34893,1.24715,0.013,0.99446-3.34,0.34619,3.29944h2.00935l-0.87651-5.86005H29.97423Zm7.6472,5.90017H40l-2.10114-3.15435,1.87076-2.70528H37.41323l-0.66938,1.41189-0.625-1.41189H33.71747l1.848,2.70528-2.0326,3.15435h2.33259l0.8784-1.79216Zm-11.27609.85228a0.26365,0.26365,0,0,0-.0834-0.24729A0.70792,0.70792,0,0,0,25.815,23.487a3.05688,3.05688,0,0,0-.34015.01567,0.42578,0.42578,0,0,0-.2404.07925,0.26927,0.26927,0,0,0-.08319.21783c0,0.22721.10785,0.31,0.40073,0.31a2.28361,2.28361,0,0,1,.59664.018,0.18813,0.18813,0,0,1-.02616.32422,1.8755,1.8755,0,0,1-.33908.02552,1.78254,1.78254,0,0,1-.41747-0.02552c-0.05557-.02363-0.0652-0.04829-0.06773-0.17562V24.2546H25.15376v0.05977a0.23345,0.23345,0,0,0,.10035.2329,0.82662,0.82662,0,0,0,.4179.05519,1.61457,1.61457,0,0,0,.578-0.05626,0.26973,0.26973,0,0,0,.13045-0.26989,0.32,0.32,0,0,0-.04872-0.19232,0.30661,0.30661,0,0,0-.28993-0.10031c-0.29562-.00253-0.29562-0.00253-0.37692-0.00253a1.111,1.111,0,0,1-.26883-0.02445c-0.07424-.02072-0.09243-0.05416-0.09243-0.157,0-.15661.08447-0.18774,0.50383-0.18774a1.03363,1.03363,0,0,1,.29558.02864c0.07715,0.02363.09427,0.05266,0.09427,0.15991v0.01755h0.148Zm1.168,0.26908h0.89848V23.9567H27.51333V23.618h0.93675v-0.129H27.36489v1.1092h1.08767V24.46887H27.51333V24.08715Zm2.50355,0.07878h0.57947a0.39214,0.39214,0,0,1-.04054.24168,0.62743,0.62743,0,0,1-.398.05938c-0.52472,0-.5728-0.01006-0.60144-0.12608a1.995,1.995,0,0,1-.01858-0.32,0.5166,0.5166,0,0,1,.05621-0.34576,0.84062,0.84062,0,0,1,.46765-0.05707c0.08571,0,.22515.00291,0.28681,0.00895a0.31139,0.31139,0,0,1,.19985.04662,0.22941,0.22941,0,0,1,.03515.16372h0.15383a0.43076,0.43076,0,0,0-.03344-0.18881,0.27057,0.27057,0,0,0-.21282-0.14338c-0.07274-.00963-0.30457-0.0182-0.4766-0.0182-0.06525,0-.18607.0021-0.23937,0.0042a0.43318,0.43318,0,0,0-.29288.08319,0.70189,0.70189,0,0,0-.09535.47013,1.64763,1.64763,0,0,0,.03262.35916,0.23335,0.23335,0,0,0,.20319.17519,4.13968,4.13968,0,0,0,.47916.02154c0.48559,0,.58346-0.03553.625-0.22117a1.72819,1.72819,0,0,0,.01717-0.34328H30.01687v0.13Zm2.86625-.13212a0.59217,0.59217,0,0,1-.03511.37483,0.8376,0.8376,0,0,1-.50528.06024,2.70984,2.70984,0,0,1-.33112-0.01443,0.1282,0.1282,0,0,1-.138-0.12964c-0.00334-.04851-0.00334-0.04851-0.00334-0.291V23.48905h-0.1486v0.54475a2.6241,2.6241,0,0,0,.01147.32615,0.24256,0.24256,0,0,0,.18876.21886,2.81852,2.81852,0,0,0,.4545.02363,3.49593,3.49593,0,0,0,.444-0.02363,0.24,0.24,0,0,0,.20319-0.23937c0.005-.0667.005-0.07527,0.009-0.30564V23.48905H32.88312v0.54475Zm2.4323-.21407a0.4263,0.4263,0,0,0-.03511-0.1948,0.2372,0.2372,0,0,0-.19151-0.12232,2.08434,2.08434,0,0,0-.35937-0.01357h-0.6913v1.1092h0.14843V24.171h0.54287a1.47289,1.47289,0,0,1,.2931.01,0.12719,0.12719,0,0,1,.11688.12227,0.88664,0.88664,0,0,1,.00749.18919v0.10579h0.14762v-0.158a0.332,0.332,0,0,0-.04936-0.26844,0.19074,0.19074,0,0,0-.11474-0.05519,0.233,0.233,0,0,0,.13546-0.06709,0.32347,0.32347,0,0,0,.04954-0.22978m-0.20863.185a0.68778,0.68778,0,0,1-.37736.03613H34.18657V23.618h0.54287a0.69159,0.69159,0,0,1,.38027.04157,0.19476,0.19476,0,0,1,.05331.16012,0.21866,0.21866,0,0,1-.05622.185m2.47388-.43a0.8344,0.8344,0,0,0-.56235-0.08781c-0.10386,0-.29305.0042-0.36079,0.00668a0.44745,0.44745,0,0,0-.26489.06606,0.58856,0.58856,0,0,0-.10827.48477,0.64806,0.64806,0,0,0,.08173.45909,0.28265,0.28265,0,0,0,.19964.08216c0.06627,0.01.31712,0.01674,0.53247,0.01674a0.71052,0.71052,0,0,0,.48914-0.08991,0.72525,0.72525,0,0,0,.08323-0.46409,2.47566,2.47566,0,0,0-.01109-0.2544,0.31467,0.31467,0,0,0-.07882-0.21929m-0.0792.75925a0.127,0.127,0,0,1-.1123.1129,2.7431,2.7431,0,0,1-.39341.022c-0.07128,0-.25795-0.00544-0.31463-0.00861a0.29839,0.29839,0,0,1-.20067-0.05163,0.722,0.722,0,0,1-.04662-0.37731,0.58588,0.58588,0,0,1,.05728-0.3577A0.7741,0.7741,0,0,1,36.913,23.618a2.84738,2.84738,0,0,1,.46619.01755,0.1265,0.1265,0,0,1,.12377.10785,2.26656,2.26656,0,0,1,.0167.299,2.0229,2.0229,0,0,1-.01815.2916m2.02442-.35034c-0.29708-.00253-0.29708-0.00253-0.37838-0.00253a1.1166,1.1166,0,0,1-.26822-0.02445c-0.07441-.02072-0.09449-0.05416-0.09449-0.157,0-.15661.08447-0.18774,0.50318-0.18774a1.04492,1.04492,0,0,1,.29854.02864c0.07629,0.02363.09342,0.05266,0.09342,0.15991v0.01755H39.829a0.26723,0.26723,0,0,0-.0834-0.24729,0.7099,0.7099,0,0,0-.44843-0.08383,2.99708,2.99708,0,0,0-.33762.01567,0.42816,0.42816,0,0,0-.24249.07925,0.27034,0.27034,0,0,0-.0828.21783c0,0.22721.10789,0.31,0.401,0.31a2.28789,2.28789,0,0,1,.59639.018,0.1381,0.1381,0,0,1,.07946.16158,0.14108,0.14108,0,0,1-.10493.16265,1.88941,1.88941,0,0,1-.34015.02552,1.74846,1.74846,0,0,1-.41537-0.02552c-0.05728-.02363-0.06627-0.04829-0.07021-0.17562V24.2546H38.63636c-0.0021.02466-.0021,0.05018-0.0021,0.05977a0.23371,0.23371,0,0,0,.10348.2329,0.82977,0.82977,0,0,0,.419.05519,1.60782,1.60782,0,0,0,.57635-0.05626,0.2695,0.2695,0,0,0,.13-0.26989,0.32008,0.32008,0,0,0-.04829-0.19232,0.3054,0.3054,0,0,0-.2889-0.10031m-13.82334,2.319c-0.891-.3878-8.22462-2.81822-11.08775-3.88123A39.79224,39.79224,0,0,1,6.2982,18.77083c-2.35554-1.84717-.323-2.35391,1.9864-2.72369,0.739-.14008,4.34173-0.50824,5.59059-0.55567,1.24591-.045,11.91931-0.41473,13.76709-0.6913,1.84739-.27807.92361-0.78584,0.09179-1.01767a37.80317,37.80317,0,0,0-5.82139-.739c-3.00236-.18478-9.28635.0926-9.28635,0.0926L9.81,13.36648s-5.45264.73964-7.90121,2.217c-1.84632.92421-2.07755,2.634-1.01638,3.6038a14.104,14.104,0,0,0,2.54242,1.71,79.01361,79.01361,0,0,0,8.54636,3.51136A115.63208,115.63208,0,0,0,25.79451,27.735c3.095,0.462,1.70983-.64725-0.092-1.4324"/></svg>