<svg id="Capa_1" data-name="Capa 1" xmlns="http://www.w3.org/2000/svg" viewBox="0 0 40 30"><defs><style>.cls-1{fill:#df2a28;}</style></defs><title>asegurdoras</title><path class="cls-1" d="M37.0742,17.102v0.47837H36.179V19.434H35.63427V17.59239h-0.8978V17.102H37.0742Z"/><polygon class="cls-1" points="39.763 17.096 39.763 17.57 37.896 17.57 37.896 18.06 39.377 18.06 39.377 18.467 37.896 18.467 37.896 18.935 39.763 18.935 39.765 19.434 37.387 19.434 37.387 17.096 39.763 17.096 39.763 17.096"/><path class="cls-1" d="M25.73793,17.97309V19.434H25.24007V17.102h0.4702l1.7482,1.51253V17.102h0.44777l-0.00357,2.332h-0.4502c0-.012-1.71453-1.46093-1.71453-1.46093h0Z"/><path class="cls-1" d="M21.84763,18.76606V18.69543a0.97051,0.97051,0,0,0-.14307-0.41473A0.65172,0.65172,0,0,0,21.8501,17.9v-0.1325a0.70061,0.70061,0,0,0-.5902-0.67157H19.19317v2.34343H21.3395a0.47432,0.47432,0,0,0,.20737-0.08593,0.663,0.663,0,0,0,.30077-0.4829v-0.1045h0Zm-0.5345.03907a0.15369,0.15369,0,0,1-.1172.173c-0.10153.00423-1.485-.00147-1.52943-0.00147V18.50189s1.46987-.00147,1.54687,0a0.14218,0.14218,0,0,1,.09977.16733l0.00147,0.09683-0.00147.03907h0Zm0.00473-.9733-0.00327.0685a0.15478,0.15478,0,0,1-.1154.1758c-0.10333.0021-1.4847-.00147-1.53093-0.00147V17.59889s1.4699-.00177,1.5451.0031a0.138,0.138,0,0,1,.10123.16553v0.0643h0.00327Z"/><path class="cls-1" d="M23.88913,18.42053h-0.762l0.3846-.7038,0.37743,0.7038h0Zm-0.208-1.31853H23.30827L22.0319,19.434h0.505l0.32243-.5493h1.24757L24.4243,19.434h0.50113l-1.2443-2.332h0Z"/><path class="cls-1" d="M33.87433,17.81049a0.214,0.214,0,0,1-.14633.2386c-0.0519,0-1.49933,0-1.5135-.00033l0.00213-.4606H33.6821a0.203,0.203,0,0,1,.19223.22233h0Zm0.436-.09377A0.70973,0.70973,0,0,0,33.5493,17.102H31.73047v2.332h0.4982v-0.9673h0.7518c0.03907,0,.734.9673,0.734,0.9673h0.598l-0.71633-.94237c0.03663,0.0021.18507-.00687,0.18507-0.00687a0.48373,0.48373,0,0,0,.52913-0.5472c0-.0231.00213-0.19107,0-0.22087h0Z"/><path class="cls-1" d="M16.46093,18.05983c-0.76173-.0799-1.32033-0.32387-1.32033-0.61407,0-.35613.8345-0.64243,1.86087-0.64243,1.03123,0,1.86033.2863,1.86033,0.64243,0,0.35333-.8291.64207-1.86033,0.64207-0.05553,0-.1102-0.0003-0.16407-0.00177V17.01753l-0.37647,1.0423h0Z"/><path class="cls-1" d="M16.4116,18.22033l-0.43507,1.25487c-0.7539-.0812-1.32177-0.32517-1.32177-0.61393,0-.3452.7692-0.62677,1.75683-0.64093h0Z"/><path class="cls-1" d="M16.8374,18.227c0.87353,0.0537,1.5376.31723,1.5376,0.63427,0,0.31853-.66407.5796-1.5376,0.63283V18.227h0Z"/><rect class="cls-1" y="15.57076" width="40" height="0.2731"/><path d="M8.9907,12.03559H9.63037v2.08773a0.58686,0.58686,0,0,0,.64453.59763,0.64938,0.64938,0,0,0,.78693-0.56917v-2.1175h0.39663v2.16437a1.08579,1.08579,0,0,1-1.15737.79217,1.20056,1.20056,0,0,1-1.31917-.82877Z"/><path d="M13.5078,13.52109a0.79026,0.79026,0,0,0,.686-0.83137,0.74363,0.74363,0,0,0-.6242-0.65413h-1.3268v2.89777l0.65623,0.0036V13.67263H12.9907l0.679,1.26433H14.3999Zm-0.60873-.04117V12.22879a0.60763,0.60763,0,0,1,.67057.598A0.601,0.601,0,0,1,12.89907,13.47993Z"/><path d="M16.22087,12.01216a1.45532,1.45532,0,0,0-1.57,1.47167,1.41386,1.41386,0,0,0,1.592,1.446,1.37731,1.37731,0,0,0,1.53207-1.43033A1.43728,1.43728,0,0,0,16.22087,12.01216ZM16.213,14.78493a1.15655,1.15655,0,0,1-.9751-1.27553,1.15642,1.15642,0,0,1,.9751-1.2767,1.157,1.157,0,0,1,.97593,1.2767A1.15711,1.15711,0,0,1,16.213,14.78493Z"/><polygon points="3.473 12.02 3.477 14.93 5.188 14.93 5.188 14.701 4.152 14.701 4.152 13.506 5.169 13.506 5.169 13.239 4.159 13.239 4.159 12.325 5.169 12.325 5.169 12.028 3.473 12.02"/><path d="M7.30613,12.02029a1.54953,1.54953,0,0,0-1.7508,1.4855,1.49078,1.49078,0,0,0,1.6442,1.4808,1.35389,1.35389,0,0,0,1.005-.15413v-1.1136H7.71663v0.95167a1.115,1.115,0,0,1-1.54477-1.09687,1.23388,1.23388,0,0,1,1.104-1.3789c0.62613,0.0057.79087,0.19743,0.79087,0.48017H8.1992V12.28739C8.2145,12.20259,7.9702,12.02779,7.30613,12.02029Z"/><path d="M0.31183,14.74766l0.21307-.869a0.88186,0.88186,0,0,0,1.0135.77767,0.69068,0.69068,0,0,0,.65543-0.5607,0.78694,0.78694,0,0,0-.5866-0.88007A1.6023,1.6023,0,0,1,.3501,11.769a1.46952,1.46952,0,0,1,2.3693-.97623l-0.2173.5838a0.86128,0.86128,0,0,0-.69677-0.50147,0.62244,0.62244,0,0,0-.5262,1.10663c0.6406,0.33627,1.69953.6253,1.69107,1.85187C2.90233,14.63293,1.7915,15.35019.31183,14.74766Z"/><path d="M18.1406,14.82466l0.14063-.5752a0.58177,0.58177,0,0,0,.66943.51383,0.45511,0.45511,0,0,0,.43147-0.3693,0.51924,0.51924,0,0,0-.38637-0.57993,1.05873,1.05873,0,0,1-.82927-0.95457,0.96906,0.96906,0,0,1,1.5625-.6439l-0.14453.38543a0.56624,0.56624,0,0,0-.458-0.33237,0.41134,0.41134,0,0,0-.34733.73143,1.4082,1.4082,0,0,1,1.11507,1.2194C19.848,14.74766,19.11653,15.22213,18.1406,14.82466Z"/><path class="cls-1" d="M30.45947,17.05626a3.54406,3.54406,0,0,0-1.31527-.0306,1.27792,1.27792,0,0,0-.93717,1.1989,1.2489,1.2489,0,0,0,.92723,1.16943,3.33414,3.33414,0,0,0,1.3252,0,1.37642,1.37642,0,0,0,.92577-1.16943A1.26833,1.26833,0,0,0,30.45947,17.05626ZM30.223,18.91839a2.35459,2.35459,0,0,1-.85433,0,0.76129,0.76129,0,0,1-.5952-0.69743,0.77854,0.77854,0,0,1,.60547-0.7158,2.15084,2.15084,0,0,1,.84407.0184,0.76964,0.76964,0,0,1,.598.6974A0.81371,0.81371,0,0,1,30.223,18.91839Z"/></svg>