<svg id="Capa_1" data-name="Capa 1" xmlns="http://www.w3.org/2000/svg" viewBox="0 0 40 30"><defs><style>.cls-1{fill:#be002f;}.cls-1,.cls-2{fill-rule:evenodd;}.cls-2{fill:#fff;}</style></defs><title>asegurdoras</title><path class="cls-1" d="M4.2057,10.7963A4.2037,4.2037,0,1,1,0,14.99993,4.20287,4.20287,0,0,1,4.2057,10.7963"/><path class="cls-2" d="M4.2057,11.19767a3.80242,3.80242,0,1,0,3.80273,3.80227A3.80255,3.80255,0,0,0,4.2057,11.19767"/><path class="cls-1" d="M5.0703,13.46427a0.258,0.258,0,0,1,.10807.3872l-0.85937,1.48a0.12839,0.12839,0,0,1-.23047-0.002l-0.85937-1.48a0.25691,0.25691,0,0,1,.10153-0.38087,0.06259,0.06259,0,0,1,.02183-0.01027,2.501,2.501,0,0,1,1.707.0005L5.0703,13.46427M2.543,13.94913a0.20619,0.20619,0,0,1,.2311-0.01513,0.21152,0.21152,0,0,1,.0853.0957l0.694,1.20653a0.105,0.105,0,0,1,.00227.10987,0.10726,0.10726,0,0,1-.09863.0529l-1.3906.00113a0.19384,0.19384,0,0,1-.124-0.0252,0.20967,0.20967,0,0,1-.10253-0.19973,0.05353,0.05353,0,0,1,0-.0205,2.05139,2.05139,0,0,1,.6953-1.20167Zm3.3229,0a0.20777,0.20777,0,0,0-.2321-0.01513,0.22262,0.22262,0,0,0-.085.0957L4.85547,15.23623a0.10637,0.10637,0,0,0-.00293.10987,0.10824,0.10824,0,0,0,.09927.0529l1.39193,0.00113a0.18723,0.18723,0,0,0,.12173-0.0252A0.20875,0.20875,0,0,0,6.569,15.1752a0.05353,0.05353,0,0,0,0-.0205,2.062,2.062,0,0,0-.2422-0.66017,2.03557,2.03557,0,0,0-.45313-0.5415ZM4.41014,15.8142v1.28907H3.99867V15.8142c-0.1979-.00063-0.45473-0.00063-0.55077-0.0039l-1.3688.00327A0.60952,0.60952,0,0,1,1.737,15.7304a0.62,0.62,0,0,1-.3112-0.564,0.50866,0.50866,0,0,1,.0088-0.085,2.41349,2.41349,0,0,1,.29067-0.7925,2.46853,2.46853,0,0,1,.54493-0.65037,0.71055,0.71055,0,0,1,.52767-0.12647,0.67718,0.67718,0,0,1,.332-0.4048,0.74281,0.74281,0,0,1,.083-0.03857,2.93451,2.93451,0,0,1,1.9873.002,0.76406,0.76406,0,0,1,.40627.4365,0.60068,0.60068,0,0,1,.50163.10743,2.66149,2.66149,0,0,1,.5755.6743,2.42792,2.42792,0,0,1,.2907.7925,0.47882,0.47882,0,0,1,.0088.085,0.6206,0.6206,0,0,1-.3112.564,0.61034,0.61034,0,0,1-.34277.08317L4.96157,15.8103C4.86424,15.81357,4.60807,15.81357,4.41014,15.8142Z"/><polyline class="cls-1" points="12.063 12.797 13.089 14.9 14.117 12.797 15.669 12.797 15.669 17.002 14.117 17.002 14.117 14.9 13.089 17.002 12.063 14.9 12.063 17.002 10.51 17.002 10.51 12.797 12.063 12.797"/><path class="cls-1" d="M16.16667,17.0027l1.207-4.20544h2.7435l1.208,4.20544h-1.553l-0.19793-.69027H17.918l-0.19923.69027H16.16667m2.5781-3.57457-0.6289,2.19467H19.376Z"/><path class="cls-1" d="M24.72524,12.8012a1.2251,1.2251,0,0,1,0,2.4502h-1.3535v1.7513h-1.5521V12.8012h2.9056m-0.99087.48047a0.61233,0.61233,0,0,1,.6901.56833,0.68392,0.68392,0,0,1-.6901.69043H23.39844V13.28167h0.33593Z"/><polyline class="cls-1" points="26.489 12.797 30.617 12.797 30.617 13.489 28.042 13.489 28.042 14.557 30.617 14.557 30.617 15.248 28.042 15.248 28.042 17.003 26.489 17.003 26.489 12.797"/><polyline class="cls-1" points="37.424 16.312 40 16.312 40 17.003 35.874 17.003 35.874 12.797 40 12.797 40 13.489 37.424 13.489 37.424 14.557 40 14.557 40 15.248 37.424 15.248 37.424 16.312"/><path class="cls-1" d="M35.29,15.9524v1.0493H33.76268V15.98493a0.21274,0.21274,0,0,0,.00163-0.03253,0.68995,0.68995,0,0,0-.6901-0.6893H32.73828v1.7386l-1.57813.001V12.8002h3.07813a1.0503,1.0503,0,1,1,.001,2.1006A1.05245,1.05245,0,0,1,35.29,15.9179v0.0345m0-.0345v0Zm-2.21582-2.63527a0.61674,0.61674,0,0,1,.6901.56737,0.68938,0.68938,0,0,1-.6901.69043H32.73828v-1.2578h0.33593Z"/></svg>