<?xml version="1.0" encoding="utf-8"?>
<!-- Generator: Adobe Illustrator 21.0.0, SVG Export Plug-In . SVG Version: 6.00 Build 0)  -->
<svg version="1.1" id="Capa_1" xmlns="http://www.w3.org/2000/svg" xmlns:xlink="http://www.w3.org/1999/xlink" x="0px" y="0px"
	 viewBox="0 0 72 50" style="enable-background:new 0 0 72 50;" xml:space="preserve">
<style type="text/css">
	.st0{fill:#FFFFFF;}
</style>
<title>alertas menu on-01</title>
<path class="st0" d="M46.4,24.9c-0.2-0.3-0.4-0.7-0.7-1l-0.5-0.7L45,22.9c-0.4-0.6-0.8-1.3-1.2-1.9c-0.7-1.1-1.1-2.4-1.2-3.7
	c-0.1-1-0.2-2-0.4-3c-0.2-1.3-0.8-2.4-1.8-3.2c-1.1-0.9-2.5-1.2-3.9-0.8c-0.8,0.2-1.6-0.1-2.1-0.8C34.1,9.1,34,8.7,34,8.3
	c0.1-1.1,1.1-1.9,2.2-1.8c0.7,0.1,1.4,0.5,1.7,1.2c0.1,0.5,0.6,0.9,1.1,0.8c0.5-0.1,0.9-0.6,0.8-1.1c0-0.1-0.1-0.3-0.2-0.4
	c-0.8-2-3-3-5-2.3c-0.5,0.2-1,0.5-1.4,0.9c-1.3,1.3-1.5,3.2-0.6,4.7c0.9,1.4,2.6,2.1,4.2,1.6c0.8-0.2,1.6-0.1,2.2,0.4l0,0
	c0.6,0.5,1,1.3,1.2,2.1c0.2,0.9,0.3,1.9,0.4,2.8c0.1,1.6,0.6,3.2,1.5,4.7c0.4,0.7,0.9,1.3,1.3,2l0.2,0.4c0.2,0.3,0.3,0.5,0.5,0.7
	s0.4,0.6,0.6,0.9c0.1,0.1,0.2,0.3,0.2,0.5c-0.1,0.2-0.2,0.3-0.3,0.5c-0.4,0.3-0.9,0.6-1.5,0.7c-1.9,0.6-3.9,0.9-5.9,1h-2.5
	c-2-0.1-4-0.4-5.9-1c-0.5-0.1-1-0.4-1.5-0.7c-0.2-0.1-0.3-0.3-0.4-0.5c0-0.2,0.1-0.4,0.2-0.5c0.2-0.3,0.4-0.6,0.6-0.9
	s0.3-0.5,0.5-0.7l0.2-0.4c0.4-0.6,0.9-1.3,1.3-2c0.8-1.4,1.4-2.9,1.5-4.6c0.1-0.9,0.2-1.9,0.4-2.8c0.1-0.3,0.2-0.7,0.3-1
	c0.4-0.4,0.3-1-0.1-1.4c-0.4-0.4-1-0.3-1.4,0.1c-0.1,0.1-0.2,0.3-0.2,0.5c-0.2,0.5-0.4,1-0.5,1.5c-0.2,1-0.3,2-0.4,3
	c-0.1,1.3-0.5,2.6-1.2,3.8c-0.4,0.6-0.8,1.3-1.2,1.9l-0.2,0.4L26.3,24c-0.2,0.3-0.5,0.6-0.7,1c-0.8,1.1-0.6,2.6,0.5,3.4c0,0,0,0,0,0
	c0.6,0.5,1.4,0.9,2.1,1.1c2.1,0.6,4.2,1,6.4,1h2.7c2.2,0,4.3-0.4,6.4-1c0.8-0.2,1.5-0.6,2.1-1.1C47,27.6,47.2,26.1,46.4,24.9
	C46.4,25,46.4,24.9,46.4,24.9z"/>
<path class="st0" d="M21,43.9c0,0.2-0.1,0.3-0.2,0.4c-0.1,0.1-0.2,0.2-0.4,0.2c-0.1,0-0.2,0-0.3-0.1c-0.1-0.1-0.2-0.2-0.2-0.3
	l-0.5-1.2h-3l-0.5,1.2c0,0.1-0.1,0.2-0.2,0.3c-0.2,0.2-0.5,0.1-0.7-0.1c-0.1-0.1-0.1-0.2-0.1-0.3c0-0.1,0-0.1,0-0.2l2.5-6
	c0-0.1,0.1-0.2,0.2-0.3c0.1-0.1,0.2-0.1,0.4-0.1c0.3,0,0.5,0.2,0.6,0.4l2.5,5.9C21,43.8,21,43.9,21,43.9z M16.9,41.8h2l-1-2.3
	L16.9,41.8z"/>
<path class="st0" d="M26.1,43.5c0.1,0.1,0.2,0.3,0.2,0.4c0,0.2-0.1,0.3-0.2,0.4c-0.1,0.1-0.3,0.2-0.4,0.2h-3.2
	c-0.3,0-0.6-0.3-0.6-0.6c0,0,0,0,0,0v-5.8c0-0.2,0-0.3,0.1-0.4c0.1-0.1,0.3-0.2,0.5-0.2c0.2,0,0.3,0.1,0.4,0.2
	c0.1,0.1,0.2,0.3,0.2,0.4v5.2h2.6C25.9,43.3,26,43.3,26.1,43.5z"/>
<path class="st0" d="M31.9,43.5c0.1,0.1,0.2,0.2,0.2,0.4c0,0.2-0.1,0.3-0.2,0.4c-0.1,0.1-0.3,0.2-0.4,0.2h-3.4
	c-0.3,0-0.6-0.3-0.6-0.6c0,0,0,0,0,0v-5.8c0-0.3,0.3-0.6,0.6-0.6c0,0,0,0,0,0h3.4c0.2,0,0.3,0.1,0.4,0.2c0.1,0.1,0.2,0.3,0.2,0.4
	c0,0.2-0.1,0.3-0.2,0.4c-0.1,0.1-0.3,0.2-0.4,0.2h-2.7v1.7H31c0.2,0,0.3,0.1,0.4,0.2c0.1,0.1,0.2,0.3,0.2,0.4c0,0.2-0.1,0.3-0.2,0.4
	c-0.1,0.1-0.3,0.2-0.4,0.2h-2.3v1.8h2.7C31.6,43.3,31.8,43.4,31.9,43.5z"/>
<path class="st0" d="M38.9,43.7C39,43.8,39,43.9,39,44c0,0.1,0,0.2-0.1,0.3c-0.1,0.1-0.3,0.2-0.5,0.2c-0.2,0-0.3,0-0.4-0.1
	c-0.5-0.4-0.8-1-0.7-1.7c0-0.2-0.1-0.5-0.3-0.6c-0.2-0.1-0.4-0.2-0.7-0.2h-1.9v1.9c0,0.2,0,0.3-0.2,0.4c-0.1,0.1-0.2,0.2-0.4,0.2
	c-0.2,0-0.4-0.1-0.5-0.2c-0.1-0.1-0.2-0.3-0.2-0.4v-5.8c0-0.3,0.3-0.6,0.6-0.6c0,0,0,0,0,0h2.9c0.4,0,0.7,0.1,1,0.3
	c0.3,0.2,0.6,0.5,0.7,0.8c0.2,0.3,0.3,0.7,0.3,1.1c0,0.4-0.1,0.7-0.3,1c-0.2,0.3-0.4,0.6-0.7,0.8c0.4,0.3,0.7,0.7,0.7,1.2
	c0,0.1,0,0.2,0,0.3c0,0.2,0,0.3,0.1,0.5c0,0.1,0.1,0.2,0.2,0.2C38.8,43.6,38.8,43.6,38.9,43.7z M37,40.7c0.1-0.1,0.2-0.3,0.3-0.5
	c0.1-0.2,0.1-0.4,0.1-0.6c0-0.2,0-0.4-0.1-0.5c-0.1-0.1-0.2-0.3-0.3-0.4c-0.1-0.1-0.2-0.1-0.3-0.1h-2.2v2.3h2.2
	C36.8,40.9,36.9,40.8,37,40.7L37,40.7z"/>
<path class="st0" d="M45,37.6c0.1,0.1,0.2,0.3,0.2,0.4c0,0.2-0.1,0.3-0.2,0.4c-0.1,0.1-0.3,0.2-0.4,0.2h-1.6v5.2
	c0,0.2-0.1,0.3-0.2,0.4c-0.1,0.1-0.3,0.2-0.5,0.2c-0.2,0-0.3-0.1-0.5-0.2c-0.1-0.1-0.2-0.3-0.2-0.4v-5.2h-1.6
	c-0.2,0-0.3-0.1-0.4-0.2c-0.1-0.1-0.2-0.3-0.2-0.5c0-0.2,0.1-0.3,0.2-0.4c0.1-0.1,0.3-0.2,0.4-0.2h4.4C44.7,37.4,44.9,37.5,45,37.6z
	"/>
<path class="st0" d="M51.2,43.9c0,0.2-0.1,0.3-0.2,0.4c-0.1,0.1-0.2,0.2-0.4,0.2c-0.1,0-0.2,0-0.3-0.1c-0.1-0.1-0.2-0.2-0.2-0.3
	l-0.5-1.2h-3l-0.5,1.2c0,0.1-0.1,0.2-0.2,0.3c-0.1,0.1-0.2,0.1-0.3,0.1c-0.3,0-0.5-0.2-0.5-0.4c0,0,0-0.1,0-0.1c0-0.1,0-0.1,0-0.2
	l2.5-6c0-0.1,0.1-0.2,0.2-0.3c0.1-0.1,0.2-0.1,0.4-0.1c0.1,0,0.2,0,0.3,0.1c0.1,0.1,0.2,0.2,0.2,0.3l2.5,5.9
	C51.2,43.7,51.2,43.8,51.2,43.9z M47.1,41.8h2l-1-2.3L47.1,41.8z"/>
<path class="st0" d="M53,44.4c-0.4-0.1-0.7-0.3-1-0.6c-0.2-0.1-0.3-0.3-0.3-0.5c0-0.2,0.1-0.3,0.2-0.4c0.1-0.1,0.3-0.2,0.4-0.2
	c0.1,0,0.2,0,0.3,0.1c0.2,0.2,0.5,0.4,0.8,0.5c0.3,0.1,0.6,0.2,0.9,0.2c0.4,0,0.7-0.1,1-0.3c0.2-0.1,0.4-0.4,0.4-0.6
	c0-0.3-0.1-0.6-0.4-0.7c-0.4-0.2-0.9-0.3-1.3-0.4c-1.5-0.2-2.2-0.9-2.2-2c0-0.4,0.1-0.8,0.3-1.1c0.2-0.3,0.5-0.6,0.9-0.7
	c0.4-0.2,0.8-0.2,1.3-0.2c0.4,0,0.8,0.1,1.2,0.2c0.3,0.1,0.6,0.3,0.9,0.5c0.2,0.1,0.3,0.3,0.3,0.5c0,0.2-0.1,0.3-0.2,0.4
	c-0.1,0.1-0.2,0.2-0.4,0.2c-0.1,0-0.2,0-0.3-0.1c-0.2-0.2-0.5-0.3-0.7-0.4c-0.3-0.1-0.5-0.2-0.8-0.2c-0.4,0-0.7,0.1-1,0.2
	c-0.3,0.2-0.4,0.7-0.2,1c0.1,0.1,0.1,0.2,0.2,0.2c0.3,0.2,0.7,0.3,1.1,0.4c0.5,0.1,0.9,0.2,1.4,0.4c0.3,0.1,0.6,0.4,0.8,0.6
	c0.2,0.3,0.3,0.7,0.3,1.1c0,0.4-0.1,0.8-0.4,1.1c-0.2,0.3-0.6,0.6-1,0.7c-0.4,0.2-0.8,0.3-1.3,0.3C53.8,44.6,53.4,44.5,53,44.4z"/>
</svg>
