<?xml version="1.0" encoding="utf-8"?>
<!-- Generator: Adobe Illustrator 21.0.0, SVG Export Plug-In . SVG Version: 6.00 Build 0)  -->
<svg version="1.1" id="Capa_1" xmlns="http://www.w3.org/2000/svg" xmlns:xlink="http://www.w3.org/1999/xlink" x="0px" y="0px"
	 viewBox="0 0 72 50" style="enable-background:new 0 0 72 50;" xml:space="preserve">
<style type="text/css">
	.st0{fill:#FFFFFF;}
</style>
<title>anuncios menu on</title>
<path class="st0" d="M43.3,23.3c0.1,0.1,0.3,0.1,0.5,0.1c0.3,0,0.5-0.1,0.6-0.3c2.4-3.4,2.4-7.9,0-11.3c-0.2-0.3-0.7-0.4-1.1-0.2
	c-0.3,0.2-0.4,0.7-0.2,1.1c2,2.9,2,6.7,0,9.6C42.9,22.6,43,23.1,43.3,23.3C43.3,23.3,43.3,23.3,43.3,23.3z"/>
<path class="st0" d="M47.4,27c0.1,0.1,0.3,0.1,0.5,0.1c0.3,0,0.5-0.1,0.6-0.3c4-5.6,4-13.1,0-18.7c-0.2-0.3-0.7-0.4-1.1-0.2
	C47,8.2,46.9,8.7,47.2,9c3.6,5.1,3.6,11.9,0,16.9C47,26.3,47,26.8,47.4,27z"/>
<path class="st0" d="M36.6,28.3c0.3,0.2,0.6,0.2,0.9,0.2l0,0c1,0,1.8-0.8,1.8-1.8c0,0,0,0,0,0V8.3c0-1-0.8-1.8-1.8-1.8
	c-0.3,0-0.6,0.1-0.9,0.2h0l-6.3,4.4h-5.1c-2.6,0-4.6,2.1-4.6,4.6v3.5c0,2.6,2.1,4.6,4.6,4.6h5.3L36.6,28.3L36.6,28.3z M30.8,22.3
	h-5.6c-1.7,0-3.1-1.4-3.1-3.1v-3.5c0-1.7,1.4-3.1,3.1-3.1h5.3c0.2,0,0.3,0,0.5-0.2l6.5-4.5c0,0,0.1,0,0.1,0c0.1,0,0.2,0.1,0.3,0.2
	c0,0,0,0,0,0v18.4c0,0.1,0,0.1-0.1,0.2c0,0-0.1,0.1-0.2,0.1h-0.1l-6.2-4.5C31.1,22.4,31,22.3,30.8,22.3z"/>
<path class="st0" d="M16.9,43.9c0,0.2-0.1,0.3-0.2,0.4c-0.1,0.1-0.2,0.2-0.4,0.2c-0.1,0-0.3,0-0.4-0.1c-0.1-0.1-0.2-0.2-0.2-0.3
	l-0.5-1.2h-3l-0.5,1.2c0,0.1-0.1,0.2-0.2,0.3c-0.2,0.2-0.5,0.2-0.7-0.1c-0.1-0.1-0.1-0.2-0.1-0.4c0-0.1,0-0.1,0-0.2l2.5-6
	c0-0.1,0.1-0.2,0.2-0.3c0.1-0.1,0.2-0.1,0.4-0.1c0.3,0,0.5,0.2,0.6,0.4l2.5,5.9C16.9,43.8,16.9,43.8,16.9,43.9z M12.8,41.8h2l-1-2.3
	L12.8,41.8z"/>
<path class="st0" d="M23.5,37.6c0.1,0.1,0.2,0.3,0.1,0.4v5.8c0,0.3-0.3,0.6-0.6,0.6c0,0,0,0,0,0c-0.1,0-0.2,0-0.3,0
	c-0.1,0-0.1-0.1-0.2-0.1l-3.7-4.7V44c0,0.1-0.1,0.3-0.2,0.4c-0.1,0.1-0.3,0.2-0.4,0.2c-0.1,0-0.3-0.1-0.4-0.2
	c-0.1-0.1-0.2-0.3-0.1-0.4v-5.9c0-0.3,0.3-0.6,0.6-0.6c0,0,0,0,0,0c0.1,0,0.2,0,0.3,0.1c0.1,0,0.2,0.1,0.2,0.2l3.6,4.6V38
	c0-0.1,0.1-0.3,0.2-0.4c0.1-0.1,0.3-0.2,0.4-0.2C23.2,37.4,23.4,37.5,23.5,37.6z"/>
<path class="st0" d="M30.5,37.6c0.1,0.1,0.2,0.3,0.2,0.4v3.6c0,0.5-0.1,1-0.4,1.5c-0.2,0.4-0.6,0.8-1,1c-0.9,0.5-2,0.5-2.9,0
	c-0.4-0.2-0.8-0.6-1-1c-0.2-0.5-0.4-1-0.4-1.5v-3.6c0-0.2,0.1-0.3,0.2-0.4c0.1-0.1,0.3-0.2,0.5-0.2c0.3,0,0.6,0.3,0.6,0.6v3.6
	c0,0.3,0.1,0.6,0.2,0.9c0.1,0.2,0.3,0.4,0.6,0.6c0.2,0.1,0.5,0.2,0.8,0.2c0.3,0,0.6-0.1,0.8-0.2c0.2-0.1,0.5-0.3,0.6-0.6
	c0.2-0.3,0.2-0.6,0.2-0.9v-3.6c0-0.2,0-0.3,0.1-0.4c0.1-0.1,0.3-0.2,0.4-0.2C30.2,37.4,30.4,37.5,30.5,37.6z"/>
<path class="st0" d="M37.9,37.6C38,37.7,38,37.9,38,38v5.8c0,0.3-0.3,0.6-0.6,0.6c0,0,0,0,0,0c-0.1,0-0.2,0-0.3,0
	c0,0-0.1-0.1-0.1-0.1l-3.7-4.7v4.3c0,0.1-0.1,0.3-0.2,0.4c-0.1,0.1-0.3,0.2-0.4,0.2c-0.1,0-0.3-0.1-0.4-0.2
	c-0.1-0.1-0.2-0.3-0.2-0.4v-5.8c0-0.3,0.3-0.6,0.6-0.6c0,0,0,0,0,0c0.1,0,0.2,0,0.3,0.1c0.1,0,0.2,0.1,0.2,0.2l3.6,4.6V38
	c0-0.1,0-0.3,0.2-0.4c0.1-0.1,0.3-0.2,0.4-0.2C37.7,37.5,37.8,37.5,37.9,37.6z"/>
<path class="st0" d="M44.7,38.3c0,0.1-0.1,0.3-0.2,0.4c-0.1,0.1-0.2,0.2-0.4,0.2c-0.1,0-0.2,0-0.3-0.1c-0.3-0.2-0.7-0.2-1.1-0.2
	c-0.4,0-0.8,0.1-1.2,0.3c-0.3,0.2-0.6,0.5-0.8,0.8c-0.2,0.4-0.3,0.8-0.3,1.3c0,0.7,0.2,1.3,0.6,1.8c0.8,0.6,1.8,0.8,2.7,0.4
	c0.1,0,0.2-0.1,0.3-0.1c0.2,0,0.3,0.1,0.4,0.2c0.1,0.1,0.1,0.3,0.2,0.4c0,0.1,0,0.2-0.1,0.3c-0.1,0.1-0.1,0.2-0.2,0.2
	c-0.5,0.3-1.1,0.4-1.7,0.4c-0.6,0-1.2-0.1-1.8-0.4c-0.5-0.3-1-0.7-1.3-1.2c-0.3-0.6-0.5-1.3-0.5-2c0-0.6,0.2-1.3,0.5-1.8
	c0.3-0.5,0.7-1,1.3-1.3c0.6-0.3,1.2-0.5,1.8-0.5c0.6,0,1.1,0.1,1.7,0.4C44.6,37.9,44.8,38.1,44.7,38.3z"/>
<path class="st0" d="M46.9,44.3c-0.1,0.1-0.3,0.2-0.4,0.2c-0.2,0-0.3-0.1-0.4-0.2c-0.1-0.1-0.2-0.3-0.2-0.4v-5.8
	c0-0.2,0.1-0.3,0.2-0.4c0.1-0.1,0.3-0.2,0.5-0.2c0.2,0,0.3,0.1,0.4,0.2c0.1,0.1,0.2,0.3,0.2,0.4v5.8C47.1,44,47,44.2,46.9,44.3z"/>
<path class="st0" d="M54.5,42.8c-0.3,0.5-0.7,1-1.2,1.3c-1.1,0.6-2.4,0.6-3.5,0c-0.5-0.3-0.9-0.8-1.2-1.3c-0.6-1.1-0.6-2.5,0-3.6
	c0.3-0.5,0.7-1,1.2-1.3c1.1-0.6,2.4-0.6,3.5,0c0.5,0.3,0.9,0.8,1.2,1.3C55.1,40.3,55.1,41.6,54.5,42.8z M53.4,39.8
	c-0.2-0.4-0.4-0.7-0.8-0.9c-0.7-0.4-1.5-0.4-2.2,0c-0.3,0.2-0.6,0.5-0.7,0.9c-0.4,0.8-0.4,1.7,0,2.4c0.2,0.4,0.4,0.7,0.7,0.9
	c0.7,0.4,1.5,0.4,2.2,0c0.3-0.2,0.6-0.5,0.8-0.9C53.8,41.4,53.8,40.5,53.4,39.8L53.4,39.8z"/>
<path class="st0" d="M57.1,44.4c-0.4-0.1-0.7-0.3-1-0.6c-0.2-0.1-0.3-0.3-0.3-0.5c0-0.2,0.1-0.3,0.2-0.4c0.1-0.1,0.3-0.2,0.4-0.2
	c0.1,0,0.2,0,0.3,0.1c0.2,0.2,0.5,0.4,0.8,0.5c0.3,0.1,0.6,0.2,0.9,0.2c0.4,0,0.7-0.1,1-0.3c0.2-0.1,0.4-0.4,0.4-0.6
	c0-0.3-0.1-0.6-0.4-0.7c-0.4-0.2-0.8-0.3-1.3-0.4c-1.5-0.2-2.2-0.9-2.2-2c0-0.4,0.1-0.8,0.3-1.1c0.2-0.3,0.5-0.6,0.9-0.7
	c0.4-0.2,0.8-0.2,1.3-0.2c0.4,0,0.8,0.1,1.2,0.2c0.3,0.1,0.6,0.3,0.9,0.5c0.2,0.1,0.3,0.3,0.3,0.5c0,0.2-0.1,0.3-0.2,0.4
	c-0.1,0.1-0.2,0.2-0.4,0.2c-0.1,0-0.2-0.1-0.3-0.1c-0.2-0.2-0.5-0.3-0.7-0.4c-0.3-0.1-0.5-0.2-0.8-0.2c-0.4,0-0.7,0.1-1,0.2
	c-0.3,0.2-0.4,0.7-0.2,1c0.1,0.1,0.1,0.2,0.2,0.2c0.3,0.2,0.7,0.3,1.1,0.4c0.5,0.1,0.9,0.2,1.4,0.4c0.3,0.1,0.6,0.4,0.8,0.6
	c0.2,0.3,0.3,0.7,0.3,1.1c0,0.4-0.1,0.8-0.4,1.1c-0.2,0.3-0.6,0.6-1,0.7c-0.4,0.2-0.8,0.3-1.3,0.3C58,44.6,57.5,44.5,57.1,44.4z"/>
</svg>
