<svg id="Capa_1" data-name="Capa 1" xmlns="http://www.w3.org/2000/svg" viewBox="0 0 72 50"><defs><style>.cls-1{fill:#09c;}</style></defs><title>anuncios menu on</title><path class="cls-1" d="M43.32,23.34a0.79,0.79,0,0,0,.45.14,0.77,0.77,0,0,0,.63-0.33,9.83,9.83,0,0,0,0-11.32,0.77,0.77,0,1,0-1.26.89,8.29,8.29,0,0,1,0,9.55A0.76,0.76,0,0,0,43.32,23.34Z"/><path class="cls-1" d="M47.37,27a0.79,0.79,0,0,0,.45.14,0.77,0.77,0,0,0,.63-0.33,16.24,16.24,0,0,0,0-18.71A0.77,0.77,0,1,0,47.19,9a14.69,14.69,0,0,1,0,16.93A0.78,0.78,0,0,0,47.37,27Z"/><path class="cls-1" d="M36.62,28.26a1.78,1.78,0,0,0,.89.24h0a1.78,1.78,0,0,0,1.79-1.78V8.29A1.79,1.79,0,0,0,37.52,6.5a1.81,1.81,0,0,0-.89.24l-0.05,0-6.3,4.36H25.2a4.62,4.62,0,0,0-4.62,4.62v3.5a4.62,4.62,0,0,0,4.62,4.62h5.32l6,4.36Zm-5.85-5.94H25.2a3.08,3.08,0,0,1-3.07-3.07v-3.5a3.08,3.08,0,0,1,3.07-3.07h5.31A0.79,0.79,0,0,0,31,12.53l6.47-4.47a0.2,0.2,0,0,1,.1,0,0.24,0.24,0,0,1,.25.25V26.71a0.26,0.26,0,0,1-.07.18,0.25,0.25,0,0,1-.17.07l-0.09,0-6.2-4.48A0.81,0.81,0,0,0,30.77,22.32Z"/><path class="cls-1" d="M16.93,43.93a0.56,0.56,0,0,1-.17.42,0.54,0.54,0,0,1-.39.17A0.52,0.52,0,0,1,16,44.41a0.71,0.71,0,0,1-.22-0.3L15.3,42.9h-3L11.8,44.12a0.62,0.62,0,0,1-.22.29A0.51,0.51,0,0,1,10.74,44a0.66,0.66,0,0,1,0-.19l2.49-6a0.66,0.66,0,0,1,.24-0.31,0.52,0.52,0,0,1,.36-0.09,0.6,0.6,0,0,1,.56.4l2.46,5.86A0.68,0.68,0,0,1,16.93,43.93Zm-4.12-2.18h2l-1-2.34Z"/><path class="cls-1" d="M23.48,37.63a0.56,0.56,0,0,1,.15.4v5.83a0.6,0.6,0,0,1-.61.61,0.86,0.86,0,0,1-.28,0,0.39,0.39,0,0,1-.19-0.12l-3.67-4.66v4.27a0.55,0.55,0,0,1-.16.4,0.54,0.54,0,0,1-.4.16,0.51,0.51,0,0,1-.39-0.16,0.56,0.56,0,0,1-.15-0.4V38.08a0.6,0.6,0,0,1,.61-0.61,0.76,0.76,0,0,1,.29.06,0.48,0.48,0,0,1,.22.16l3.64,4.64V38a0.55,0.55,0,0,1,.16-0.4,0.53,0.53,0,0,1,.4-0.16A0.51,0.51,0,0,1,23.48,37.63Z"/><path class="cls-1" d="M30.52,37.63a0.62,0.62,0,0,1,.16.44v3.62a3,3,0,0,1-.35,1.47,2.53,2.53,0,0,1-1,1,3.08,3.08,0,0,1-2.89,0,2.52,2.52,0,0,1-1-1,3,3,0,0,1-.35-1.47V38.07a0.58,0.58,0,0,1,.18-0.43,0.63,0.63,0,0,1,.46-0.17,0.61,0.61,0,0,1,.6.61v3.62a1.72,1.72,0,0,0,.21.86,1.47,1.47,0,0,0,.56.58,1.54,1.54,0,0,0,.76.2,1.69,1.69,0,0,0,.81-0.2,1.53,1.53,0,0,0,.6-0.58,1.63,1.63,0,0,0,.23-0.86V38.07a0.64,0.64,0,0,1,.15-0.44,0.52,0.52,0,0,1,.41-0.17A0.55,0.55,0,0,1,30.52,37.63Z"/><path class="cls-1" d="M37.88,37.63A0.56,0.56,0,0,1,38,38v5.83a0.6,0.6,0,0,1-.61.61,0.86,0.86,0,0,1-.28,0A0.39,0.39,0,0,1,37,44.3l-3.67-4.66v4.27a0.55,0.55,0,0,1-.16.4,0.54,0.54,0,0,1-.4.16,0.51,0.51,0,0,1-.39-0.16,0.56,0.56,0,0,1-.15-0.4V38.08a0.6,0.6,0,0,1,.61-0.61,0.76,0.76,0,0,1,.29.06,0.48,0.48,0,0,1,.22.16l3.64,4.64V38a0.55,0.55,0,0,1,.15-0.4,0.53,0.53,0,0,1,.4-0.16A0.51,0.51,0,0,1,37.88,37.63Z"/><path class="cls-1" d="M44.74,38.32a0.67,0.67,0,0,1-.15.41,0.49,0.49,0,0,1-.41.21,0.71,0.71,0,0,1-.34-0.09,2.46,2.46,0,0,0-1.06-.23,2.43,2.43,0,0,0-1.22.29,2,2,0,0,0-.8.83A2.6,2.6,0,0,0,40.48,41a2.37,2.37,0,0,0,.63,1.79,2.57,2.57,0,0,0,2.72.38,0.81,0.81,0,0,1,.32-0.08,0.55,0.55,0,0,1,.44.22,0.65,0.65,0,0,1,.15.41,0.54,0.54,0,0,1-.08.29,0.52,0.52,0,0,1-.23.2,3.67,3.67,0,0,1-1.66.39,3.92,3.92,0,0,1-1.8-.42,3.19,3.19,0,0,1-1.31-1.22,3.72,3.72,0,0,1-.49-2,3.61,3.61,0,0,1,.47-1.83,3.3,3.3,0,0,1,1.28-1.26,3.75,3.75,0,0,1,1.85-.46,3.56,3.56,0,0,1,1.65.39A0.54,0.54,0,0,1,44.74,38.32Z"/><path class="cls-1" d="M46.86,44.29a0.63,0.63,0,0,1-.44.17A0.61,0.61,0,0,1,46,44.29a0.59,0.59,0,0,1-.17-0.44V38.08A0.58,0.58,0,0,1,46,37.64a0.63,0.63,0,0,1,.46-0.17,0.6,0.6,0,0,1,.43.17,0.58,0.58,0,0,1,.18.44v5.78A0.57,0.57,0,0,1,46.86,44.29Z"/><path class="cls-1" d="M54.55,42.79a3.37,3.37,0,0,1-1.21,1.3,3.42,3.42,0,0,1-3.49,0,3.34,3.34,0,0,1-1.21-1.3,4,4,0,0,1,0-3.63,3.34,3.34,0,0,1,1.21-1.3,3.42,3.42,0,0,1,3.49,0,3.37,3.37,0,0,1,1.21,1.3A4,4,0,0,1,54.55,42.79Zm-1.13-3a2.18,2.18,0,0,0-.75-0.87,2,2,0,0,0-2.17,0,2.11,2.11,0,0,0-.74.87,2.94,2.94,0,0,0,0,2.44,2.11,2.11,0,0,0,.74.87,2,2,0,0,0,2.17,0,2.17,2.17,0,0,0,.75-0.87A2.87,2.87,0,0,0,53.42,39.75Z"/><path class="cls-1" d="M57.11,44.39a3,3,0,0,1-1-.61,0.7,0.7,0,0,1-.27-0.53A0.57,0.57,0,0,1,56,42.84a0.55,0.55,0,0,1,.41-0.17,0.53,0.53,0,0,1,.34.12,2.94,2.94,0,0,0,.78.48,2.44,2.44,0,0,0,.9.15,1.8,1.8,0,0,0,1-.25,0.72,0.72,0,0,0,.41-0.62,0.8,0.8,0,0,0-.4-0.71,3.39,3.39,0,0,0-1.27-.38q-2.19-.32-2.19-2a1.84,1.84,0,0,1,.33-1.09,2.09,2.09,0,0,1,.9-0.71,3.19,3.19,0,0,1,1.27-.24,3.66,3.66,0,0,1,1.19.19,2.89,2.89,0,0,1,.92.5,0.67,0.67,0,0,1,.29.53,0.57,0.57,0,0,1-.17.41,0.54,0.54,0,0,1-.4.17A0.44,0.44,0,0,1,60,39.08a2.64,2.64,0,0,0-.73-0.39,2.41,2.41,0,0,0-.83-0.17,1.72,1.72,0,0,0-1,.24,0.75,0.75,0,0,0,0,1.26,3.38,3.38,0,0,0,1.12.36,5.79,5.79,0,0,1,1.38.38,1.76,1.76,0,0,1,.77.64A2,2,0,0,1,61,42.48a1.8,1.8,0,0,1-.36,1.11,2.28,2.28,0,0,1-.95.73,3.16,3.16,0,0,1-1.27.25A4.18,4.18,0,0,1,57.11,44.39Z"/></svg>