<svg id="Capa_1" data-name="Capa 1" xmlns="http://www.w3.org/2000/svg" viewBox="0 0 72 50"><title>estadisticas menu off-01</title><path d="M23,16.2a0.69,0.69,0,0,0-.69.69V29.81a0.69,0.69,0,0,0,.69.69h6.32A0.69,0.69,0,0,0,30,29.81V16.89a0.69,0.69,0,0,0-.69-0.69H23Zm5.63,12.92H23.65V17.57h4.94V29.12Z"/><path d="M32.15,5.19V29.81a0.69,0.69,0,0,0,.69.69h6.32a0.69,0.69,0,0,0,.69-0.69V5.19a0.69,0.69,0,0,0-.69-0.69H32.84A0.69,0.69,0,0,0,32.15,5.19Zm1.38,0.69h4.94V29.12H33.53V5.88h0Z"/><path d="M49,30.49a0.69,0.69,0,0,0,.69-0.69V13.23A0.69,0.69,0,0,0,49,12.53H42.72a0.69,0.69,0,0,0-.69.69V29.81a0.69,0.69,0,0,0,.69.69H49ZM43.41,13.92h4.94V29.12H43.41V13.92h0Z"/><path d="M7.47,43.5a0.55,0.55,0,0,1,.17.4,0.53,0.53,0,0,1-.17.41,0.62,0.62,0,0,1-.44.16H3.69a0.6,0.6,0,0,1-.61-0.61V38.08a0.6,0.6,0,0,1,.61-0.61H7a0.61,0.61,0,0,1,.44.17,0.56,0.56,0,0,1,.17.42,0.52,0.52,0,0,1-.17.41,0.63,0.63,0,0,1-.44.16H4.33v1.7H6.59a0.61,0.61,0,0,1,.44.17,0.56,0.56,0,0,1,.18.43,0.52,0.52,0,0,1-.17.4,0.63,0.63,0,0,1-.44.16H4.33v1.85H7A0.59,0.59,0,0,1,7.47,43.5Z"/><path d="M9.77,44.39a3,3,0,0,1-1.05-.61,0.7,0.7,0,0,1-.27-0.53,0.57,0.57,0,0,1,.17-0.41A0.55,0.55,0,0,1,9,42.67a0.53,0.53,0,0,1,.34.12,2.94,2.94,0,0,0,.78.48,2.43,2.43,0,0,0,.9.15,1.8,1.8,0,0,0,1-.25,0.72,0.72,0,0,0,.41-0.62,0.8,0.8,0,0,0-.4-0.71,3.4,3.4,0,0,0-1.27-.38q-2.19-.32-2.19-2a1.84,1.84,0,0,1,.33-1.09,2.09,2.09,0,0,1,.9-0.71,3.19,3.19,0,0,1,1.27-.24,3.65,3.65,0,0,1,1.19.19,2.9,2.9,0,0,1,.93.5,0.67,0.67,0,0,1,.29.53,0.57,0.57,0,0,1-.17.41,0.54,0.54,0,0,1-.4.17,0.44,0.44,0,0,1-.27-0.09,2.64,2.64,0,0,0-.72-0.39,2.42,2.42,0,0,0-.84-0.17,1.72,1.72,0,0,0-1,.24,0.75,0.75,0,0,0,0,1.26,3.38,3.38,0,0,0,1.12.36,5.79,5.79,0,0,1,1.38.38,1.76,1.76,0,0,1,.77.64,2,2,0,0,1,.26,1.08,1.8,1.8,0,0,1-.35,1.11,2.28,2.28,0,0,1-.94.73,3.17,3.17,0,0,1-1.27.25A4.17,4.17,0,0,1,9.77,44.39Z"/><path d="M19.81,37.63A0.55,0.55,0,0,1,20,38a0.53,0.53,0,0,1-.17.42,0.63,0.63,0,0,1-.44.16H17.8v5.24a0.57,0.57,0,0,1-.19.44,0.67,0.67,0,0,1-.47.17,0.63,0.63,0,0,1-.46-0.17,0.58,0.58,0,0,1-.18-0.44V38.62H14.93a0.62,0.62,0,0,1-.44-0.16A0.55,0.55,0,0,1,14.32,38a0.53,0.53,0,0,1,.18-0.41,0.62,0.62,0,0,1,.44-0.16h4.44A0.62,0.62,0,0,1,19.81,37.63Z"/><path d="M26.07,43.93a0.56,0.56,0,0,1-.17.42,0.54,0.54,0,0,1-.39.17,0.52,0.52,0,0,1-.33-0.11,0.71,0.71,0,0,1-.22-0.3L24.44,42.9h-3l-0.52,1.22a0.62,0.62,0,0,1-.22.29A0.51,0.51,0,0,1,19.88,44a0.66,0.66,0,0,1,0-.19l2.49-6a0.66,0.66,0,0,1,.24-0.31A0.52,0.52,0,0,1,23,37.43a0.6,0.6,0,0,1,.56.4L26,43.69A0.68,0.68,0,0,1,26.07,43.93Zm-4.12-2.18h2l-1-2.34Z"/><path d="M31.53,37.93a3,3,0,0,1,1,1.26,4.62,4.62,0,0,1,0,3.55,3,3,0,0,1-1,1.26,2.78,2.78,0,0,1-1.62.46H27.53a0.6,0.6,0,0,1-.61-0.61V38.08a0.6,0.6,0,0,1,.61-0.61h2.39A2.78,2.78,0,0,1,31.53,37.93Zm-0.37,4.72a3.36,3.36,0,0,0,0-3.37,1.53,1.53,0,0,0-1.35-.67H28.17v4.7h1.65A1.52,1.52,0,0,0,31.17,42.65Z"/><path d="M35.13,44.29a0.63,0.63,0,0,1-.44.17,0.6,0.6,0,0,1-.45-0.17,0.59,0.59,0,0,1-.17-0.44V38.08a0.58,0.58,0,0,1,.18-0.44,0.63,0.63,0,0,1,.46-0.17,0.6,0.6,0,0,1,.43.17,0.58,0.58,0,0,1,.18.44v5.78A0.57,0.57,0,0,1,35.13,44.29Z"/><path d="M37.79,44.39a3,3,0,0,1-1.05-.61,0.7,0.7,0,0,1-.27-0.53,0.57,0.57,0,0,1,.17-0.41A0.55,0.55,0,0,1,37,42.67a0.53,0.53,0,0,1,.34.12,2.93,2.93,0,0,0,.78.48,2.43,2.43,0,0,0,.9.15,1.8,1.8,0,0,0,1-.25,0.72,0.72,0,0,0,.41-0.62,0.8,0.8,0,0,0-.4-0.71,3.4,3.4,0,0,0-1.27-.38q-2.19-.32-2.19-2a1.84,1.84,0,0,1,.33-1.09,2.09,2.09,0,0,1,.9-0.71,3.19,3.19,0,0,1,1.27-.24,3.65,3.65,0,0,1,1.19.19,2.89,2.89,0,0,1,.92.5,0.67,0.67,0,0,1,.29.53,0.57,0.57,0,0,1-.17.41,0.54,0.54,0,0,1-.4.17,0.44,0.44,0,0,1-.27-0.09,2.65,2.65,0,0,0-.72-0.39,2.42,2.42,0,0,0-.84-0.17,1.72,1.72,0,0,0-1,.24,0.75,0.75,0,0,0,0,1.26,3.39,3.39,0,0,0,1.12.36,5.79,5.79,0,0,1,1.38.38,1.76,1.76,0,0,1,.78.64,2,2,0,0,1,.26,1.08,1.79,1.79,0,0,1-.36,1.11,2.28,2.28,0,0,1-.94.73,3.17,3.17,0,0,1-1.27.25A4.17,4.17,0,0,1,37.79,44.39Z"/><path d="M47.83,37.63A0.55,0.55,0,0,1,48,38a0.53,0.53,0,0,1-.17.42,0.63,0.63,0,0,1-.44.16H45.82v5.24a0.57,0.57,0,0,1-.19.44,0.67,0.67,0,0,1-.47.17,0.63,0.63,0,0,1-.46-0.17,0.58,0.58,0,0,1-.18-0.44V38.62H42.95a0.62,0.62,0,0,1-.44-0.16A0.55,0.55,0,0,1,42.33,38a0.53,0.53,0,0,1,.18-0.41,0.62,0.62,0,0,1,.43-0.16h4.44A0.62,0.62,0,0,1,47.83,37.63Z"/><path d="M50.11,44.29a0.63,0.63,0,0,1-.44.17,0.61,0.61,0,0,1-.45-0.17A0.59,0.59,0,0,1,49,43.86V38.08a0.58,0.58,0,0,1,.18-0.44,0.63,0.63,0,0,1,.46-0.17,0.6,0.6,0,0,1,.43.17,0.58,0.58,0,0,1,.18.44v5.78A0.57,0.57,0,0,1,50.11,44.29Z"/><path d="M57,38.32a0.67,0.67,0,0,1-.15.41,0.49,0.49,0,0,1-.41.21,0.71,0.71,0,0,1-.34-0.09A2.46,2.46,0,0,0,55,38.62a2.42,2.42,0,0,0-1.22.29,2,2,0,0,0-.8.83A2.59,2.59,0,0,0,52.75,41a2.37,2.37,0,0,0,.63,1.79,2.57,2.57,0,0,0,2.72.38,0.81,0.81,0,0,1,.32-0.08,0.55,0.55,0,0,1,.44.22,0.65,0.65,0,0,1,.15.41,0.54,0.54,0,0,1-.08.29,0.52,0.52,0,0,1-.23.2,3.67,3.67,0,0,1-1.66.39,3.92,3.92,0,0,1-1.8-.42,3.19,3.19,0,0,1-1.31-1.22,3.72,3.72,0,0,1-.49-2,3.6,3.6,0,0,1,.46-1.83,3.29,3.29,0,0,1,1.29-1.26A3.74,3.74,0,0,1,55,37.42a3.56,3.56,0,0,1,1.65.39A0.54,0.54,0,0,1,57,38.32Z"/><path d="M63.61,43.93a0.56,0.56,0,0,1-.17.42,0.54,0.54,0,0,1-.39.17,0.52,0.52,0,0,1-.33-0.11,0.72,0.72,0,0,1-.23-0.3L62,42.9H59l-0.52,1.22a0.62,0.62,0,0,1-.21.29,0.53,0.53,0,0,1-.32.1A0.48,0.48,0,0,1,57.42,44a0.68,0.68,0,0,1,0-.19l2.49-6a0.65,0.65,0,0,1,.24-0.31,0.52,0.52,0,0,1,.36-0.09,0.6,0.6,0,0,1,.56.4l2.46,5.86A0.68,0.68,0,0,1,63.61,43.93Zm-4.12-2.18h2l-1-2.34Z"/><path d="M65.42,44.39a3,3,0,0,1-1-.61,0.7,0.7,0,0,1-.27-0.53,0.57,0.57,0,0,1,.17-0.41,0.55,0.55,0,0,1,.41-0.17,0.53,0.53,0,0,1,.34.12,2.94,2.94,0,0,0,.78.48,2.44,2.44,0,0,0,.9.15,1.8,1.8,0,0,0,1-.25,0.72,0.72,0,0,0,.41-0.62,0.8,0.8,0,0,0-.4-0.71,3.39,3.39,0,0,0-1.27-.38q-2.19-.32-2.19-2a1.84,1.84,0,0,1,.33-1.09,2.09,2.09,0,0,1,.9-0.71,3.19,3.19,0,0,1,1.27-.24,3.66,3.66,0,0,1,1.19.19,2.89,2.89,0,0,1,.92.5,0.67,0.67,0,0,1,.29.53,0.57,0.57,0,0,1-.17.41,0.54,0.54,0,0,1-.4.17,0.44,0.44,0,0,1-.27-0.09,2.64,2.64,0,0,0-.73-0.39,2.41,2.41,0,0,0-.83-0.17,1.72,1.72,0,0,0-1,.24,0.75,0.75,0,0,0,0,1.26,3.38,3.38,0,0,0,1.12.36,5.79,5.79,0,0,1,1.38.38,1.76,1.76,0,0,1,.77.64,2,2,0,0,1,.26,1.08,1.8,1.8,0,0,1-.36,1.11,2.28,2.28,0,0,1-.95.73,3.16,3.16,0,0,1-1.27.25A4.18,4.18,0,0,1,65.42,44.39Z"/></svg>