<svg id="Capa_1" data-name="Capa 1" xmlns="http://www.w3.org/2000/svg" viewBox="0 0 40 30"><defs><style>.cls-1{fill:#d92455;}</style></defs><title>asegurdoras</title><circle class="cls-1" cx="36.00631" cy="6.26552" r="3.99463"/><path class="cls-1" d="M12.41021,13.79028c3.43738-.84031,14.68963-1.55613,22.69048.52,1.29781,0.33691,4.45013,1.256,4.7166,3.35269,0,0,.43675,1.54935-3.40242,3.38663a63.54076,63.54076,0,0,1-9.62,3.6904c-2.47066.73156-6.98338,1.94735-8.48359,2.22723a33.1814,33.1814,0,0,1-5.31039.76037c-0.9783-.02694-0.38163-0.51919.28115-0.90354a49.7179,49.7179,0,0,1,6.373-2.43794c1.77848-.58568,7.40146-2.55832,8.61454-3.01514a36.82956,36.82956,0,0,0,4.95711-2.28256c0.951-.64416,2.05941-1.63323.963-2.2664-0.963-.552-1.89368-0.669-3.96408-0.957-2.04681-.28489-6.88375-0.47154-8.22879-0.48419-1.3318-.01366-4.25495-0.13031-5.06238-0.1413-0.56642-.00747-4.661-0.254-5.21772-0.6139C11.32786,14.37227,11.3467,14.04865,12.41021,13.79028Z"/><path class="cls-1" d="M4.68156,16.96335h-2.375l-2.07724,5.8735h2.255l0.17176-.74238H4.251l0.21093,0.74238H6.71755ZM2.999,20.72147l0.47549-2.01571,0.44625,2.01571H2.999Z"/><path class="cls-1" d="M19.654,16.96335H17.2774L15.203,22.83685h2.25583l0.172-.74238H19.2214l0.214,0.74238h2.255ZM17.9706,20.72147L18.448,18.70576l0.44464,2.01571h-0.922Z"/><polygon class="cls-1" points="8.12 22.837 8.12 16.963 10.151 16.963 11.962 19.988 11.962 16.963 13.99 16.963 13.99 22.837 11.962 22.837 10.151 19.799 10.151 22.837 8.12 22.837"/><path class="cls-1" d="M0,24.52436H0.31947a0.12494,0.12494,0,0,0,.033.10442,0.17984,0.17984,0,0,0,.06276.0174c0.02588,0.00187.1065,0.00187,0.237,0.00518,0.14193-.00123.22667-0.00331,0.254-0.00331a0.20673,0.20673,0,0,0,.06734-0.01324,0.0834,0.0834,0,0,0,.03836-0.08164,0.07008,0.07008,0,0,0-.02652-0.064,0.23147,0.23147,0,0,0-.1065-0.01948c-0.041,0-.12886-0.00289-0.25981-0.00993-0.13553-.006-0.22459-0.011-0.26664-0.011A0.7856,0.7856,0,0,1,.17011,24.426,0.20935,0.20935,0,0,1,.06734,24.3663a0.513,0.513,0,0,1,.011-0.49624,0.27293,0.27293,0,0,1,.16408-0.07561,3.76085,3.76085,0,0,1,.44977-0.01638,2.8486,2.8486,0,0,1,.339.01387,0.334,0.334,0,0,1,.20677.08414,0.31679,0.31679,0,0,1,.05469.21072L1.292,24.13857H0.97253a0.56,0.56,0,0,0-.00768-0.06462,0.05672,0.05672,0,0,0-.02444-0.0255,0.17307,0.17307,0,0,0-.07519-0.01634C0.82894,24.02918.75,24.02731,0.63461,24.02731a1.65624,1.65624,0,0,0-.26044.01286,0.06908,0.06908,0,0,0-.04621.075,0.06461,0.06461,0,0,0,.04621.07c0.02817,0.006.14422,0.01264,0.3543,0.02049,0.17571,0.005.29295,0.01205,0.35244,0.01638a0.35663,0.35663,0,0,1,.14066.04226,0.19674,0.19674,0,0,1,.08618.09946,0.51361,0.51361,0,0,1,.02321.18,0.522,0.522,0,0,1-.039.22977,0.19421,0.19421,0,0,1-.088.08041,0.44461,0.44461,0,0,1-.15725.0373c-0.07128.006-.2041,0.0095-0.39843,0.0095-0.16472,0-.28675-0.00433-0.365-0.01243a0.46484,0.46484,0,0,1-.17592-0.04472,0.21329,0.21329,0,0,1-.0866-0.09305A0.61653,0.61653,0,0,1,0,24.5751V24.52436Z"/><path class="cls-1" d="M2.20279,23.79589H3.40984v0.25463H2.53117v0.15725H3.36512v0.23889H2.53117v0.17507h0.8847v0.26418H2.20279v-1.09Z"/><path class="cls-1" d="M4.93848,24.2662H5.698a0.2129,0.2129,0,0,0,.00229.03047,2.879,2.879,0,0,1-.016.34556,0.23971,0.23971,0,0,1-.21072.22977,1.40526,1.40526,0,0,1-.19455.02342c-0.07209.00479-.18046,0.00539-0.329,0.00539a3.44784,3.44784,0,0,1-.39737-0.01489,0.40456,0.40456,0,0,1-.18483-0.0628,0.20536,0.20536,0,0,1-.071-0.0785,0.40417,0.40417,0,0,1-.03441-0.12742C4.25682,24.567,4.25393,24.46966,4.25393,24.322c0-.09988.00289-0.17405,0.00764-0.22586A0.48764,0.48764,0,0,1,4.2931,23.9629a0.23917,0.23917,0,0,1,.197-0.15458,3.37042,3.37042,0,0,1,.51758-0.02941c0.13591,0,.24632.00411,0.32422,0.01014a1.15462,1.15462,0,0,1,.19828.03378,0.20972,0.20972,0,0,1,.15144.17049,0.9322,0.9322,0,0,1,.01264.17736H5.36339a0.61353,0.61353,0,0,0-.00412-0.06254A0.04453,0.04453,0,0,0,5.33793,24.082a0.23837,0.23837,0,0,0-.11541-0.02546c-0.05469-.00416-0.13654-0.006-0.24428-0.006a1.99967,1.99967,0,0,0-.24487.00993,0.16391,0.16391,0,0,0-.10175.02924,0.10653,0.10653,0,0,0-.036.07209,1.07881,1.07881,0,0,0-.01078.17261,1.30805,1.30805,0,0,0,.01078.19349,0.11047,0.11047,0,0,0,.036.0771,0.12329,0.12329,0,0,0,.0715.02669c0.02733,0.00314.11911,0.00518,0.27432,0.00645,0.14936,0,.24135-0.00127.27657-0.00331a0.24053,0.24053,0,0,0,.076-0.01494,0.05081,0.05081,0,0,0,.03335-0.0342,0.16514,0.16514,0,0,0,.01141-0.07022V24.48417H4.93848v-0.218Z"/><path class="cls-1" d="M6.579,23.79589H6.91v0.49971a1.82749,1.82749,0,0,0,.01163.21776,0.11718,0.11718,0,0,0,.0841.08329,1.19756,1.19756,0,0,0,.28115.02113,1.65662,1.65662,0,0,0,.23931-0.01137A0.17494,0.17494,0,0,0,7.623,24.56806a0.13328,0.13328,0,0,0,.0255-0.05054A0.62459,0.62459,0,0,0,7.65838,24.415c0.00272-.04829.00272-0.087,0.00272-0.11936V23.79589H7.99529v0.49971a3.37149,3.37149,0,0,1-.01782.34251,0.2555,0.2555,0,0,1-.13073.19951,0.41645,0.41645,0,0,1-.17694.05075c-0.07812.00811-.202,0.01243-0.37688,0.01243-0.13179,0-.2335-0.00246-0.3058-0.00849a1.18272,1.18272,0,0,1-.1867-0.02423A0.24335,0.24335,0,0,1,6.59781,24.658a0.786,0.786,0,0,1-.01307-0.11834c-0.00289-.03624-0.0039-0.11622-0.00577-0.24407V23.79589Z"/><path class="cls-1" d="M8.8984,24.88592v-1.09h0.802c0.18814,0,.30042.00144,0.33979,0.00458a0.27756,0.27756,0,0,1,.10523.03725,0.203,0.203,0,0,1,.08724.10442,0.67365,0.67365,0,0,1,.02321.20575,0.75812,0.75812,0,0,1-.01366.17507,0.16594,0.16594,0,0,1-.057.08991,0.25733,0.25733,0,0,1-.13175.04888,0.219,0.219,0,0,1,.14936.06114,0.13116,0.13116,0,0,1,.03254.07375,1.19073,1.19073,0,0,1,.00743.18814v0.10111H9.91672v-0.0597a1.1359,1.1359,0,0,0-.00662-0.12929,0.1292,0.1292,0,0,0-.02635-0.05881A0.082,0.082,0,0,0,9.833,24.613a1.06937,1.06937,0,0,0-.13489-0.00662H9.23051v0.2795H8.8984Zm0.33211-.55153H9.6973c0.081,0,.13175-0.00149.14647-0.00293a0.09673,0.09673,0,0,0,.04-0.01345,0.06458,0.06458,0,0,0,.02924-0.0398,0.24332,0.24332,0,0,0,.01078-0.081A0.24925,0.24925,0,0,0,9.913,24.11765a0.06729,0.06729,0,0,0-.03479-0.039,0.12677,0.12677,0,0,0-.04061-0.00993c-0.01744,0-.06424-0.00085-0.14028-0.00127H9.23051v0.26689Z"/><path class="cls-1" d="M11.85533,23.77892a4.32354,4.32354,0,0,1,.48648.018,0.25172,0.25172,0,0,1,.23516.1825,2.39073,2.39073,0,0,1,0,.72142,0.24963,0.24963,0,0,1-.23516.18212,4.14117,4.14117,0,0,1-.48045.01782A4.22481,4.22481,0,0,1,11.372,24.883a0.25223,0.25223,0,0,1-.23622-0.18212,1.57345,1.57345,0,0,1-.02839-0.36691,1.47284,1.47284,0,0,1,.02839-0.35452A0.25437,0.25437,0,0,1,11.372,23.797,4.24949,4.24949,0,0,1,11.85533,23.77892Zm0,0.284a2.22535,2.22535,0,0,0-.31429.01222,0.10813,0.10813,0,0,0-.082.07273,0.797,0.797,0,0,0-.01948.22043,0.65442,0.65442,0,0,0,.01137.145,0.12042,0.12042,0,0,0,.11915.09305,2.35265,2.35265,0,0,0,.28921.01137c0.13281,0,.22086-0.00289.2677-0.00785a0.20662,0.20662,0,0,0,.09738-0.03089,0.13223,0.13223,0,0,0,.0381-0.0667,0.58488,0.58488,0,0,0,.00891-0.14253,1.28693,1.28693,0,0,0-.006-0.17261,0.17638,0.17638,0,0,0-.028-0.082,0.1258,0.1258,0,0,0-.088-0.04477A2.51711,2.51711,0,0,0,11.85533,24.063Z"/><path class="cls-1" d="M13.454,24.52436h0.32239a0.11209,0.11209,0,0,0,.03212.10442,0.16987,0.16987,0,0,0,.06153.0174c0.02546,0.00187.10544,0.00187,0.23847,0.00518,0.14045-.00123.22459-0.00331,0.25484-0.00331a0.21646,0.21646,0,0,0,.06441-0.01324,0.07571,0.07571,0,0,0,.039-0.08164,0.07237,0.07237,0,0,0-.02525-0.064,0.23669,0.23669,0,0,0-.10756-0.01948c-0.04,0-.12886-0.00289-0.26061-0.00993-0.13383-.006-0.22459-0.011-0.26477-0.011a0.79644,0.79644,0,0,1-.18441-0.02279,0.19669,0.19669,0,0,1-.098-0.05966,0.34371,0.34371,0,0,1-.06216-0.23579,0.3829,0.3829,0,0,1,.06921-0.26044,0.27135,0.27135,0,0,1,.16391-0.07561,3.76663,3.76663,0,0,1,.4502-0.01638,2.854,2.854,0,0,1,.33916.01387,0.34266,0.34266,0,0,1,.207.08414,0.31848,0.31848,0,0,1,.05576.21072v0.05177H14.42571a0.35748,0.35748,0,0,0-.00666-0.06462,0.05762,0.05762,0,0,0-.02444-0.0255,0.17135,0.17135,0,0,0-.07625-0.01634c-0.03522-.00293-0.11333-0.00479-0.22955-0.00479a1.57131,1.57131,0,0,0-.25773.01286,0.06715,0.06715,0,0,0-.04706.075,0.06289,0.06289,0,0,0,.04706.07c0.02529,0.006.14439,0.01264,0.35244,0.02049,0.1738,0.005.29418,0.01205,0.35261,0.01638a0.41731,0.41731,0,0,1,.14359.04226,0.20412,0.20412,0,0,1,.08308.09946,0.55638,0.55638,0,0,1,.02444.18,0.49548,0.49548,0,0,1-.041.22977,0.205,0.205,0,0,1-.086.08041,0.44786,0.44786,0,0,1-.15645.0373c-0.07.006-.207,0.0095-0.40234,0.0095q-0.2474,0-.36343-0.01243a0.492,0.492,0,0,1-.17753-0.04472,0.21912,0.21912,0,0,1-.08393-0.09305,0.49731,0.49731,0,0,1-.02257-0.1755V24.52436Z"/></svg>