<svg id="Capa_1" data-name="Capa 1" xmlns="http://www.w3.org/2000/svg" viewBox="0 0 40 30"><defs><style>.cls-1{fill:#c00;}.cls-2{fill:#036;}</style></defs><title>asegurdoras</title><path class="cls-1" d="M27.245,15.72743c0.177,0.27318,4.07245-1.815,5.9198-.69862,0,0,1.13242-1.30122.522-1.91984-0.73069-.74686-2.0641-0.281-2.43378-0.81916-1.63033-2.4014-10.024-.26515-10.40939-0.755-0.4418-.57022,2.45783-3.1244.94774-4.49792-1.91981-1.74286-7.40554-1.19669-12.048-.4418C4.659,7.4224-.05593,8.99676.0005,9.20566,0.13707,9.6954,5.41406,7.76772,11.26141,7.25375c15.38917-1.36549,8.27314,2.715,8.6021,4.93153,0.193,1.27732,1.94389-.22474,7.87141-0.11222,2.8999,0.05613,2.00828.50595,2.916,0.98781,0.59412,0.32128,3.0359-.05609,2.26483,1.06027a7.117,7.117,0,0,0-2.32925.04825c-1.67874.32143-3.48606,1.34144-3.34146,1.558"/><path class="cls-2" d="M38.46587,24.07271h0.35332V23.16534h0.30523a0.59725,0.59725,0,0,0,.64252-0.65067,0.56706,0.56706,0,0,0-.61044-0.64267H38.45784v2.20071h0.008Zm0.34529-1.93556h0.22508a0.332,0.332,0,0,1,.37764.38552,0.32836,0.32836,0,0,1-.35359.37737H38.81116V22.13715Zm-2.2087-.26515v1.55031a0.67477,0.67477,0,1,0,1.34916,0V21.872h-0.353v1.58239a0.32152,0.32152,0,0,1-.32155.40172c-0.21675,0-.32124-0.1207-0.32124-0.40172V21.872H36.60245Zm-1.18082,1.98411c-0.20872,0-.37737-0.12858-0.37737-0.89162,0-.73917.16865-0.8676,0.37737-0.8676s0.37767,0.12843.37767,0.8676c-0.008.755-.169,0.89162-0.37767,0.89162m0,0.265c0.50622,0,.731-0.3615.731-1.14059,0-.78727-0.22477-1.14859-0.731-1.14859-0.50595,0-.731.36132-0.731,1.14859,0,0.77909.217,1.14059,0.731,1.14059m-2.14458-1.26917V22.13715h0.2972a0.30624,0.30624,0,0,1,.3376.36147,0.3276,0.3276,0,0,1-.35362.36135H33.27705v-0.008Zm-0.35332,1.22077h0.35332V23.11694h0.28917a0.28448,0.28448,0,0,1,.32158.34548c0.008,0.16047,0,.281.016,0.41775a0.36565,0.36565,0,0,0,.05613.19255h0.40173a0.22479,0.22479,0,0,1-.10453-0.19255c-0.0083-.13673-0.0083-0.30537-0.01633-0.44982a0.3822,0.3822,0,0,0-.345-0.44982v-0.008a0.48541,0.48541,0,0,0,.36937-0.5383,0.5111,0.5111,0,0,0-.55435-0.57022H32.932v2.20873h-0.0083Zm-0.747,0h0.26515V22.9164H31.73489v0.265h0.36965c0,0.4819-.0965.67475-0.36965,0.67475-0.2408,0-.35332-0.17683-0.35332-0.89162,0-.70682.13657-0.8676,0.3857-0.8676a0.30941,0.30941,0,0,1,.30522.36135v0.0484h0.329V22.46627a0.5954,0.5954,0,0,0-.64252-0.63434c-0.50595,0-.73069.36132-0.73069,1.14859,0,0.78712.16865,1.14059,0.65052,1.14059a0.46573,0.46573,0,0,0,.4819-0.29738h0.008v0.249h0.008Zm-3.5662,0h1.21289V23.77564H28.95581V23.07687h0.78739V22.77964H28.95581V22.1692h0.83549V21.872H28.60249v2.20071h0.008Zm-0.77879-.78712v0.04022a0.42971,0.42971,0,0,1-.32958.5303c-0.25712,0-.37767-0.17683-0.37767-0.89162,0-.70682.12055-0.8676,0.37767-0.8676a0.34775,0.34775,0,0,1,.31325.42577v0.0401h0.35332v-0.0401a0.6055,0.6055,0,0,0-.66657-0.69074c-0.562,0-.731.36132-0.731,1.14859,0,0.78712.169,1.14059,0.731,1.14059a0.6679,0.6679,0,0,0,.6746-0.78727V23.28559h-0.345Zm-2.94.78712H25.221V22.3861h0.008l0.64249,1.68661h0.42577V21.872h-0.329v1.63851H25.96L25.31747,21.872H24.8917v2.20071Zm-2.024,0h0.36965l0.1443-.53814h0.64252L24.161,24.07271h0.36935L23.952,21.872H23.50216Zm0.57034-.8192,0.26515-1.08432h0.008L23.96,23.25352H23.438Zm-1.95188-.40157V22.13715h0.29723a0.30614,0.30614,0,0,1,.33727.36147,0.32737,0.32737,0,0,1-.35332.36135H21.48612v-0.008Zm-0.34529,1.22077h0.35332V23.11694h0.2892a0.28438,0.28438,0,0,1,.32124.34548c0.008,0.16047,0,.281.016,0.41775a0.36565,0.36565,0,0,0,.05613.19255h0.3937a0.22538,0.22538,0,0,1-.10449-0.19255c-0.008-.13673-0.008-0.30537-0.01606-0.44982a0.3822,0.3822,0,0,0-.34529-0.44982v-0.008a0.48513,0.48513,0,0,0,.36934-0.5383,0.51322,0.51322,0,0,0-.562-0.57022H21.1328v2.20873h0.008ZM19.27742,21.872v1.55031a0.67477,0.67477,0,1,0,1.34916,0V21.872H20.27326v1.58239a0.32131,0.32131,0,0,1-.321.40172c-0.21733,0-.32155-0.1207-0.32155-0.40172V21.872H19.27742ZM17.45408,23.39v0.0564a0.60494,0.60494,0,0,0,.66688.67475,0.62489,0.62489,0,0,0,.73069-0.66672,0.56562,0.56562,0,0,0-.44982-0.5864l-0.2408-.08835a0.38542,0.38542,0,0,1-.32958-0.37752,0.285,0.285,0,0,1,.2975-0.32124,0.27685,0.27685,0,0,1,.30495.32124v0.04813h0.35332V22.40212a0.52765,0.52765,0,0,0-.62619-0.57822,0.60314,0.60314,0,0,0-.6829.62635,0.58164,0.58164,0,0,0,.45785.60257L18.17705,23.133a0.36571,0.36571,0,0,1,.31294.39354,0.316,0.316,0,0,1-.337.32155,0.33962,0.33962,0,0,1-.36162-0.40172V23.39h-0.3373Zm-1.85538.68274H15.928V22.3861h0.008l0.64252,1.68661h0.42577V21.872H16.67468v1.63851H16.667L16.02417,21.872H15.5987v2.20071Zm-0.8676,0h0.35335V21.872H14.7311v2.20071ZM3.77569,19.2617a4.13621,4.13621,0,0,1-1.56648.265,1.97653,1.97653,0,0,1-2.201-1.92783,2.02684,2.02684,0,0,1,2.201-1.98381A6.95053,6.95053,0,0,1,3.39,15.84a0.39584,0.39584,0,0,0,.29692-0.12858H3.81579v1.04424H3.68694a1.54845,1.54845,0,0,0-1.42161-.93172c-0.85124,0-1.31712.68274-1.31712,1.83936,0,1.18869.56235,1.65454,1.32511,1.65454,0.37767,0,.66687-0.08817.66687-0.39354v-0.5542a0.42586,0.42586,0,0,0-.42577-0.45782V17.80773H4.17714v0.10453a0.47029,0.47029,0,0,0-.40145.56219V19.2617h0ZM11.73528,17.117l-0.45782,1.15662h0.93972Zm0.57007,1.35749H11.18126l-0.16093.37752c-0.11252.265-.08847,0.40972,0.25712,0.49807V19.4302H10.27359V19.35005a0.84022,0.84022,0,0,0,.57007-0.64267l0.90767-2.18465h0.45782l0.96377,2.27313a0.66791,0.66791,0,0,0,.58643.5542V19.4302H12.1851V19.35005c0.39342-.0643.40975-0.1688,0.29723-0.4338Zm1.655,0.95574V19.35005c0.337-.05628.40112-0.15278,0.40112-0.42577V16.74762H14.04051a0.63913,0.63913,0,0,0-.69895.46584H13.25309l0.03238-.68274h0.0962a0.63251,0.63251,0,0,0,.14487.04022,1.31814,1.31814,0,0,0,.16835.01605H15.743a0.75251,0.75251,0,0,0,.31352-0.05628h0.0962l0.03208,0.68274H16.09662a0.63158,0.63158,0,0,0-.69865-0.46584H15.07643v2.17666a0.36565,0.36565,0,0,0,.38567.42577V19.4302H13.96034ZM5.44613,17.91226V16.74762H5.66318a0.55155,0.55155,0,0,1,.65854.56219c0,0.47387-.27318.64252-0.87559,0.60245m4.61844,1.51793,0.05613-.69074h-0.0882a0.68683,0.68683,0,0,1-.66654.53027H9.181c-0.31294,0-.4338-0.0965-0.4338-0.35347V18.08076H9.30149a0.38462,0.38462,0,0,1,.4338.36162H9.83982V17.55879H9.73529a0.38966,0.38966,0,0,1-.4338.35347H8.7552V16.7316H9.366a0.49209,0.49209,0,0,1,.57007.47387h0.08847V16.57094H7.63079v0.08017c0.3376,0.05643.40172,0.1446,0.40172,0.39358V18.876a0.37035,0.37035,0,0,1-.61874.33757,4.7169,4.7169,0,0,0-.97982-1.23722v-0.008a0.70391,0.70391,0,0,0,.6348-0.67472c0-.40157-0.35362-0.71467-1.22922-0.71467H4.31372v0.08017c0.3373,0.0564.40172,0.1526,0.40172,0.38555v1.928a0.36382,0.36382,0,0,1-.40172.36934V19.4222H5.83952V19.342a0.3731,0.3731,0,0,1-.40942-0.40172V18.065a0.67827,0.67827,0,0,1,.53.12843c0.2411,0.21675.47387,0.85939,0.81947,1.22074h3.285v0.016Zm29.46156,1.06829h0.0962c0.0484,0,.0965.008,0.0965,0.0723,0,0.07245-.05613.07245-0.12055,0.07245H39.52613V20.49849h0Zm-0.07214.40172h0.07214V20.69937h0.07215l0.12855,0.20085H39.799l-0.12824-.20085a0.1203,0.1203,0,0,0,.12025-0.12858c0-.08832-0.0481-0.12843-0.16035-0.12843H39.454v0.45785h0Zm-0.24913-.2249a0.39615,0.39615,0,0,0,.40145.3937,0.39364,0.39364,0,1,0,0-.78727,0.396,0.396,0,0,0-.40145.39358m0.07215,0a0.33279,0.33279,0,0,1,.32931-0.33745,0.32146,0.32146,0,0,1,.32155.33745,0.32563,0.32563,0,1,1-.65085,0m-14.45776-2.731c0.32155,0,.40975.11268,0.42577,0.482H25.3255l0.13627-.64267h-2.2004l-0.016.08847c0.29689,0.05613.337,0.15247,0.28087,0.40142l-0.39342,1.86371a0.47639,0.47639,0,0,1-.46615.46557l-0.016.08045H24.8917l0.201-.70679H25.00422a0.862,0.862,0,0,1-.723.538H24.11261c-0.2892,0-.37737-0.09623-0.32125-0.3532L23.968,19.3098h0.51394a0.28779,0.28779,0,0,1,.32128.36937h0.0965l0.193-.89964H24.99592a0.47639,0.47639,0,0,1-.4819.36165H24.00008l0.25712-1.20487h0.562v0.008Zm5.68673-.16862H29.10841l-0.016.08847c0.2892,0.07215.3373,0.15244,0.28117,0.40942L28.97986,20.129a0.46927,0.46927,0,0,1-.46584.47387l-0.01605.08045h1.39756l0.016-.08045c-0.28889-.07215-0.33727-0.15247-0.28087-0.40945L30.02411,18.33A0.46912,0.46912,0,0,1,30.49,17.86416Zm2.45814,2.2329a1.51315,1.51315,0,0,1-1.02822.45782c-0.55432,0-.97207-0.3695-0.763-1.34944a1.34656,1.34656,0,0,1,1.14844-1.26114,0.80381,0.80381,0,0,1,.79514.92369h0.08045l0.225-1.06011H33.34148a0.26045,0.26045,0,0,1-.209.14475,3.19678,3.19678,0,0,0-.78712-0.17683A2.01163,2.01163,0,0,0,30.4258,19.2537a1.14212,1.14212,0,0,0,1.20487,1.48574,1.69936,1.69936,0,0,0,1.30137-.58609Z"/><path class="cls-2" d="M16.08859,19.16523l0.85927-1.50194,0.2491,1.50194H16.08859Zm4.49789,0.53-0.35332-1.9195H19.1649l-0.01605.08847a0.50871,0.50871,0,0,1,.37768.20085L18.83559,19.9605a0.77345,0.77345,0,0,1-.3937.57822,0.74238,0.74238,0,0,1-.35332-0.69074L17.58266,16.876h-0.4421l-1.67044,2.85952a1.44,1.44,0,0,1-.87559.84325l-0.024.1045h1.19687l0.02432-.1045c-0.38567-.10438-0.36964-0.29707-0.16093-0.65039l0.2892-.49822h1.31739l0.0962,0.57037c0.05613,0.35332.01605,0.4819-.46584,0.57022l-0.024.10453H19.221l0.01605-.08048c-0.32128-.024-0.3373-0.257-0.21674-0.59427l0.61044-1.71063h0.008l0.4338,2.38538h0.12858l1.44563-2.38538h-0.016l-0.08847,1.65423a0.58123,0.58123,0,0,1-.47387.64264l-0.016.08048h1.478l0.016-.08048a0.37385,0.37385,0,0,1-.3456-0.44952L22.32165,18.322a0.44753,0.44753,0,0,1,.42577-0.47414l0.016-.0882H21.73525l-1.14877,1.93556h0Zm6.0561-.562,0.2491-1.18884H27.0924a0.42529,0.42529,0,0,1,.48187.57825,0.73657,0.73657,0,0,1-.93169.6106m1.55819,1.34129c-0.20872-.265-0.321-1.18869-0.63449-1.26914l-0.024-.008a0.96738,0.96738,0,0,0,.755-0.69074c0.08847-.40945-0.1927-0.73084-0.99615-0.73084H25.89556l-0.01605.08847c0.29723,0.05609.3376,0.15244,0.28117,0.39339l-0.41775,1.96794a0.435,0.435,0,0,1-.44152.36934l-0.01633.08847H26.691l0.016-.08847a0.292,0.292,0,0,1-.2892-0.40945l0.1927-.89162a0.47582,0.47582,0,0,1,.45785.13642c0.17665,0.22493.2491,0.87559,0.4899,1.25312h0.85954l0.01605-.08847a0.3021,0.3021,0,0,1-.23307-0.1204m5.84735-.97979L34.71469,18.322l0.193,1.17267H34.04812Zm4.81916-1.719-0.016.08847c0.2972,0.07215.32155,0.20085,0.2491,0.55417l-0.27315,1.30122-1.285-1.94386H36.64283l-0.01633.08847a0.52758,0.52758,0,0,1,.32927.289L36.546,20.09692c-0.08014.35347-.67457,0.90767-0.85924-0.07215l-0.39342-2.32138H34.87562l-1.30939,2.23306a1.12978,1.12978,0,0,1-.68259.65839l-0.01633.08048h0.94l0.016-.08048c-0.2972-.0803-0.28917-0.23292-0.12855-0.50595l0.225-.38567h1.01989l0.07245,0.4421c0.0481,0.281.008,0.37737-.36965,0.44952l-0.016.08048h2.40143l0.01633-.08048c-0.32124-.05613-0.40142-0.14445-0.32927-0.45754l0.37737-1.77521,1.59026,2.36133h0.11253L39.30105,18.346a0.51932,0.51932,0,0,1,.52227-0.47387l0.01605-.08847h-0.9721v-0.008Z"/></svg>