<svg id="Capa_1" data-name="Capa 1" xmlns="http://www.w3.org/2000/svg" viewBox="0 0 40 30"><defs><style>.cls-1{fill:#008fbe;}</style></defs><title>asegurdoras</title><polygon class="cls-1" points="15.775 19.181 15.735 19.181 15.693 19.181 15.693 18.556 15.754 18.556 15.814 18.556 15.993 19.089 16.17 18.556 16.231 18.556 16.291 18.556 16.291 19.181 16.251 19.181 16.209 19.181 16.209 18.652 16.209 18.652 16.033 19.181 15.993 19.181 15.952 19.181 15.775 18.654 15.775 18.654 15.775 19.181"/><path class="cls-1" d="M16.41456,18.556h0.29195a0.22125,0.22125,0,0,1,.15024.04467,0.15263,0.15263,0,0,1,.05184.126,0.15647,0.15647,0,0,1-.05469.12787,0.19035,0.19035,0,0,1-.02837.02059l0.01432,0.00677a0.11987,0.11987,0,0,1,.05805.10936l0.00392,0.11432a0.08,0.08,0,0,0,.00781.04024,0.05493,0.05493,0,0,0,.02395.02227V19.181H16.82941a0.30637,0.30637,0,0,1-.00677-0.04021c-0.00235-.02227-0.00389-0.04571-0.00573-0.07136l-0.001-.04973a0.11406,0.11406,0,0,0-.02891-0.08309,0.131,0.131,0,0,0-.08723-0.02512H16.5V19.181H16.41456V18.556ZM16.5,18.83893h0.20832a0.12176,0.12176,0,0,0,.08645-0.02733,0.10325,0.10325,0,0,0,.02683-0.07981,0.09859,0.09859,0,0,0-.02917-0.07931,0.13552,0.13552,0,0,0-.09088-0.02448H16.5v0.21093Z"/><path class="cls-1" d="M18.05989,14.18816a0.59294,0.59294,0,0,0-.24949-0.45027,0.97711,0.97711,0,0,0-.59165-0.166,0.78445,0.78445,0,0,0-.49611.13917,0.464,0.464,0,0,0-.17837.38816,0.30224,0.30224,0,0,0,.18672.27592,3.72588,3.72588,0,0,0,.78253.22995,2.85552,2.85552,0,0,1,1.16173.44973,1.01607,1.01607,0,0,1,.29192.80939,1.05161,1.05161,0,0,1-.44141.88917,1.94892,1.94892,0,0,1-1.19243.32877,1.80707,1.80707,0,0,1-1.181-.34933,1.29691,1.29691,0,0,1-.45363-0.99323H16.5a0.61963,0.61963,0,0,0,.22888.48789,0.95415,0.95415,0,0,0,.60445.16939,1.24853,1.24853,0,0,0,.62029-0.12787,0.39717,0.39717,0,0,0,.22344-0.35651A0.36561,0.36561,0,0,0,18.0156,15.583a2.23109,2.23109,0,0,0-.67005-0.22005,3.53591,3.53591,0,0,1-1.26613-.457,0.89848,0.89848,0,0,1-.3172-0.76067,1.1201,1.1201,0,0,1,.41981-0.91851,1.75084,1.75084,0,0,1,1.13384-.34035,1.63609,1.63609,0,0,1,1.08776.35208,1.31522,1.31522,0,0,1,.46536.94973H18.05989Z"/><polygon class="cls-1" points="19.146 16.974 19.146 12.995 22.075 12.995 22.075 13.347 22.075 13.701 19.977 13.701 19.977 14.546 21.924 14.546 21.924 14.887 21.924 15.231 19.977 15.231 19.977 16.267 22.167 16.267 22.167 16.62 22.167 16.974 19.146 16.974"/><path class="cls-1" d="M24.09947,17.08216a1.77048,1.77048,0,0,1-1.37837-.56027,2.162,2.162,0,0,1-.51016-1.51589,2.18874,2.18874,0,0,1,.52968-1.54688,1.86322,1.86322,0,0,1,1.43568-.57277,1.8977,1.8977,0,0,1,1.1948.36328,1.41236,1.41236,0,0,1,.54869.97955h-0.832a0.675,0.675,0,0,0-.29245-0.45611,0.93473,0.93473,0,0,0-.57421-0.19675,1.03359,1.03359,0,0,0-.84872.37552,1.60262,1.60262,0,0,0-.306,1.04048,1.5759,1.5759,0,0,0,.29349,1.03061,1.05764,1.05764,0,0,0,.85936.35339H24.21667a0.88149,0.88149,0,0,0,.75336-0.369A1.40178,1.40178,0,0,0,25.1888,15.518V15.50912H24.25232V14.82435h1.66747v2.14741H25.36456l-0.08149-.51459-0.04869.06472a1.34507,1.34507,0,0,1-1.13672.56027h0.00181Z"/><path class="cls-1" d="M29.31821,15.475a1.68113,1.68113,0,0,1-.37344,1.22941,1.68828,1.68828,0,0,1-1.23149.37773,1.65475,1.65475,0,0,1-1.21147-.39373A1.66263,1.66263,0,0,1,26.106,15.475V12.9948h0.831v2.50611a0.935,0.935,0,0,0,.19323.64272,0.752,0.752,0,0,0,.58309.21315,0.77093,0.77093,0,0,0,.59581-0.19648,0.97046,0.97046,0,0,0,.17917-0.65939V12.9948h0.82995V15.475Z"/><path class="cls-1" d="M29.56379,12.9948h2.00495a1.34184,1.34184,0,0,1,.91615.30416,1.01674,1.01674,0,0,1,.34766.80221,0.94565,0.94565,0,0,1-.38672.83984,1.10768,1.10768,0,0,1-.23255.11915,1.079,1.079,0,0,1,.13229.065,0.758,0.758,0,0,1,.35417.68293L32.71926,16.46a0.81946,0.81946,0,0,0,.04036.27565,0.26655,0.26655,0,0,0,.13542.13061v0.10547h-0.918a0.96419,0.96419,0,0,1-.05781-0.26733,4.377,4.377,0,0,1-.0263-0.43971l-0.00573-.36888a0.46084,0.46084,0,0,0-.15729-0.38072,0.86731,0.86731,0,0,0-.5078-0.11432H30.394V16.974H29.56379V12.9948ZM30.394,14.73256h0.96379a0.74867,0.74867,0,0,0,.48335-0.13139,0.48424,0.48424,0,0,0,.16068-0.39648,0.492,0.492,0,0,0-.15286-0.39349,0.6847,0.6847,0,0,0-.45887-0.13189H30.394v1.05325Z"/><path class="cls-1" d="M33.38905,16.52253A2.15024,2.15024,0,0,1,32.8716,15.006a2.21923,2.21923,0,0,1,.51745-1.54688,1.98814,1.98814,0,0,1,2.79245,0,2.22581,2.22581,0,0,1,.51562,1.54688,2.15653,2.15653,0,0,1-.51562,1.51653,2.02155,2.02155,0,0,1-2.79245,0"/><path class="cls-1" d="M39.09219,14.18816a0.59184,0.59184,0,0,0-.24845-0.45027,0.9807,0.9807,0,0,0-.59245-0.166,0.78184,0.78184,0,0,0-.49557.13917,0.46452,0.46452,0,0,0-.17811.38816,0.29934,0.29934,0,0,0,.18749.27592,3.69047,3.69047,0,0,0,.78125.22995,2.84589,2.84589,0,0,1,1.1612.44973A1.01454,1.01454,0,0,1,40,15.86421a1.051,1.051,0,0,1-.44141.88917,1.94855,1.94855,0,0,1-1.193.32877,1.79873,1.79873,0,0,1-1.17864-.34933,1.28924,1.28924,0,0,1-.456-0.99323h0.80156a0.61866,0.61866,0,0,0,.22971.48789,0.95227,0.95227,0,0,0,.60336.16939,1.25313,1.25313,0,0,0,.62109-0.12787,0.39639,0.39639,0,0,0,.22267-0.35651,0.36454,0.36454,0,0,0-.16067-0.32955,2.2281,2.2281,0,0,0-.67032-0.22005,3.53547,3.53547,0,0,1-1.26667-.457,0.90046,0.90046,0,0,1-.31693-0.76067,1.11962,1.11962,0,0,1,.42005-0.91851,1.7479,1.7479,0,0,1,1.13333-.34035,1.64273,1.64273,0,0,1,1.0888.35208,1.31572,1.31572,0,0,1,.46485.94973H39.09219Z"/><path class="cls-1" d="M0,16.98739l1.42576-3.97307H2.75128l1.42448,3.97307H2.87237l-0.14792-.51771H1.42811l-0.14245.51771H0ZM1.67629,15.644H2.49219L2.07941,14.22619Z"/><path class="cls-1" d="M4.36952,16.98739V13.01432H6.27291q1.60232,0,1.60261.99557a0.93462,0.93462,0,0,1-.14064.50248,1.0335,1.0335,0,0,1-.38776.36472,0.87158,0.87158,0,0,1,.50781.33984,1.03923,1.03923,0,0,1,.16459.59856q0,1.17248-1.65443,1.17189H4.36952Zm1.30365-2.3832H6.21536a0.35678,0.35678,0,0,0,.43749-0.36133q0-.2996-0.46405-0.29987H5.67317v0.6612Zm0,1.45533H6.27525q0.52068,0,.52109-0.35627A0.29169,0.29169,0,0,0,6.62941,15.4a1.38769,1.38769,0,0,0-.50832-0.06979H5.67317v0.72931Z"/><path class="cls-1" d="M7.92576,16.98739l1.42632-3.97307h1.325l1.425,3.97307H10.79816l-0.14843-.51771H9.35336l-0.14243.51771H7.92576ZM9.60208,15.644h0.81587l-0.41352-1.41784Z"/><rect class="cls-1" x="13.27472" y="10.81901" width="1.29299" height="8.36197"/></svg>