<svg id="Capa_1" data-name="Capa 1" xmlns="http://www.w3.org/2000/svg" viewBox="0 0 40 30"><defs><style>.cls-1{fill:#00008f;}.cls-2{fill:#ff1721;}.cls-3{fill:#fff;}</style></defs><title>asegurdoras</title><rect class="cls-1" x="5.00048" width="29.99905" height="30"/><polygon class="cls-2" points="23.591 14.816 35 0 33.314 0 21.867 14.816 23.591 14.816"/><path class="cls-3" d="M27.92358,21.42825c0.52245,1.46265,1.59985,5.2695,2.0281,5.57225H27.123a4.7739,4.7739,0,0,0-.1318-0.997c-0.12235-.43605-1.146-3.7266-1.146-3.7266H21.352l-0.7063.9983s0.8479,2.65845.9009,2.78785c0.09205,0.2344.49635,0.9375,0.49635,0.9375h-2.7107s-0.0701-.4048-0.09595-0.5735C19.21507,26.2893,18.98,25.54225,18.98,25.54225a8.16018,8.16018,0,0,0-.78295.9861c-0.16845.311-.2434,0.47215-0.2434,0.47215H15.832s-0.0708-.4048-0.0967-0.5735c-0.0205-.1377-0.28075-0.94455-0.28075-0.94455a10.85491,10.85491,0,0,0-.7617,1.03245c-0.1675.311-.24025,0.4856-0.24025,0.4856H12.35548s0.5918-.56345.7998-0.80565c0.3486-.41115,1.65065-2.1116,1.65065-2.1116l-0.52175-1.8064H9.82467s-2.5415,3.33985-2.64255,3.4424a10.15669,10.15669,0,0,0-.8584,1.28125H5.00048V26.1609a0.47769,0.47769,0,0,1,.05275-0.05275c0.04075-.0293,1.92725-2.3718,3.66065-4.6799,1.55665-2.0149,3.0183-3.97315,3.147-4.15895a13.18681,13.18681,0,0,0,.7576-1.4243h2.30465a10.21416,10.21416,0,0,0,.13915,1.112c0.06035,0.19285,1.46485,4.80175,1.49735,4.85105l0.77735-.9939-1.3274-4.0869a7.23119,7.23119,0,0,0-.4126-0.8823h2.69215a2.33021,2.33021,0,0,0,.08785.7312c0.1099,0.3364.6868,2.4194,0.6868,2.4194s1.83665-2.3022,1.945-2.4675a1.48683,1.48683,0,0,0,.2261-0.6831h2.24365a7.00147,7.00147,0,0,0-1.1309,1.2092c-0.24215.30665-2.6108,3.31765-2.6108,3.31765s0.20655,0.70555.3076,1.0564c0.0276,0.10155.0464,0.1682,0.0464,0.177,0,0.0012.05175-.06325,0.1423-0.177,0.6111-.77515,3.39185-4.4202,3.5603-4.73315a7.06544,7.06544,0,0,0,.4534-0.8501h2.18825a5.489,5.489,0,0,0,.11815.83325Zm-3.3308-3.45215a29.56033,29.56033,0,0,1-2.21365,2.9946h2.99635s-0.58105-1.78955-.6826-2.1914a3.18889,3.18889,0,0,1-.0586-0.7827C24.63428,17.959,24.62768,17.8992,24.59278,17.9761Zm-11.5122,0a29.6822,29.6822,0,0,1-2.2134,2.9946h2.99635s-0.581-1.78955-.68115-2.1914a3.16649,3.16649,0,0,1-.05935-0.7827C13.123,17.959,13.11573,17.8992,13.08058,17.9761Zm4.51025,6.9824,0.8259-1.1301c-0.0774-.08325-0.542-1.49195-0.542-1.49195l-0.7966,1.03415Z"/></svg>