<svg id="Capa_1" data-name="Capa 1" xmlns="http://www.w3.org/2000/svg" viewBox="0 0 40 30"><defs><style>.cls-1{fill:#039638;}.cls-2{fill:#e20812;}</style></defs><title>asegurdoras</title><rect class="cls-1" y="7.74354" width="4.89688" height="14.39452"/><rect class="cls-1" x="9.5406" y="7.74354" width="4.89376" height="14.39452"/><rect class="cls-1" x="35.10468" y="7.74354" width="4.89532" height="14.39452"/><rect class="cls-2" x="4.89688" y="12.40018" width="4.64372" height="5.05508"/><path class="cls-1" d="M18.39688,7.74354V22.2451c4.02344,0,13.92028,1.3672,13.8406-7.92344C31.58124,9.37518,28.07968,7.2955,18.39688,7.74354ZM23.45,18.63886a3.88145,3.88145,0,0,1-.64532-0.05236l0.0172-7.2164a4.29623,4.29623,0,0,1,.62812-0.048,3.76057,3.76057,0,0,1,3.85468,3.6582A3.76064,3.76064,0,0,1,23.45,18.63886Z"/></svg>