<?xml version="1.0" encoding="utf-8"?>
<!-- Generator: Adobe Illustrator 21.0.0, SVG Export Plug-In . SVG Version: 6.00 Build 0)  -->
<svg version="1.1" id="Capa_1" xmlns="http://www.w3.org/2000/svg" xmlns:xlink="http://www.w3.org/1999/xlink" x="0px" y="0px"
	 viewBox="0 0 72 50" style="enable-background:new 0 0 72 50;" xml:space="preserve">
<style type="text/css">
	.st0{fill:#FFFFFF;}
</style>
<title>productos menu on-01</title>
<path class="st0" d="M10.4,37.8c0.3,0.2,0.6,0.5,0.7,0.8c0.4,0.7,0.4,1.5,0,2.3c-0.2,0.3-0.4,0.6-0.7,0.8c-0.3,0.2-0.6,0.3-1,0.3
	H7.7v1.9c0,0.2-0.1,0.3-0.2,0.4c-0.1,0.1-0.3,0.2-0.4,0.2c-0.2,0-0.3-0.1-0.4-0.2c-0.1-0.1-0.2-0.3-0.2-0.4v-5.8
	c0-0.3,0.3-0.6,0.6-0.6c0,0,0,0,0,0h2.3C9.7,37.5,10.1,37.6,10.4,37.8z M9.8,40.7c0.1-0.1,0.2-0.3,0.3-0.4c0.2-0.3,0.2-0.7,0-1.1
	C10,39,9.9,38.9,9.8,38.8c-0.1-0.1-0.2-0.1-0.4-0.2H7.7v2.2h1.7C9.5,40.8,9.7,40.8,9.8,40.7z"/>
<path class="st0" d="M18.2,43.7c0.1,0.1,0.1,0.2,0.1,0.3c0,0.1,0,0.2-0.1,0.3c-0.1,0.1-0.3,0.2-0.5,0.2c-0.2,0-0.3,0-0.4-0.1
	c-0.5-0.4-0.8-1-0.7-1.7c0-0.2-0.1-0.4-0.2-0.6c-0.2-0.1-0.4-0.2-0.7-0.2h-1.9v1.9c0,0.2,0,0.3-0.1,0.4c-0.1,0.1-0.2,0.2-0.4,0.2
	c-0.2,0-0.4-0.1-0.5-0.2c-0.1-0.1-0.2-0.3-0.2-0.4v-5.8c0-0.3,0.3-0.6,0.6-0.6c0,0,0,0,0,0H16c0.4,0,0.7,0.1,1,0.3
	c0.3,0.2,0.6,0.5,0.7,0.8c0.2,0.3,0.3,0.7,0.3,1.1c0,0.4-0.1,0.7-0.3,1c-0.2,0.3-0.4,0.6-0.7,0.8c0.4,0.3,0.7,0.7,0.7,1.2
	c0,0.1,0,0.2,0,0.3c0,0.2,0,0.3,0.1,0.5c0,0.1,0.1,0.2,0.2,0.2C18.1,43.5,18.2,43.6,18.2,43.7z M16.3,40.7c0.1-0.1,0.2-0.3,0.3-0.5
	c0.1-0.2,0.1-0.4,0.1-0.6c0-0.2,0-0.4-0.1-0.5c-0.1-0.1-0.2-0.3-0.3-0.4c-0.1-0.1-0.2-0.1-0.3-0.1h-2.2v2.3H16
	C16.1,40.9,16.2,40.8,16.3,40.7L16.3,40.7z"/>
<path class="st0" d="M25.3,42.8c-0.3,0.5-0.7,1-1.2,1.3c-1.1,0.6-2.4,0.6-3.5,0c-0.5-0.3-0.9-0.8-1.2-1.3c-0.6-1.1-0.6-2.5,0-3.6
	c0.3-0.5,0.7-1,1.2-1.3c1.1-0.6,2.4-0.6,3.5,0c0.5,0.3,0.9,0.8,1.2,1.3C25.9,40.3,26,41.7,25.3,42.8z M24.2,39.8
	c-0.2-0.4-0.4-0.7-0.8-0.9c-0.7-0.4-1.5-0.4-2.2,0c-0.3,0.2-0.6,0.5-0.7,0.9c-0.4,0.8-0.4,1.7,0,2.4c0.2,0.4,0.4,0.7,0.7,0.9
	c0.7,0.4,1.5,0.4,2.2,0c0.3-0.2,0.6-0.5,0.8-0.9C24.6,41.4,24.6,40.5,24.2,39.8L24.2,39.8z"/>
<path class="st0" d="M31.5,37.9c0.4,0.3,0.8,0.8,1,1.3c0.5,1.1,0.5,2.4,0,3.5c-0.2,0.5-0.6,0.9-1,1.3c-0.5,0.3-1,0.5-1.6,0.5h-2.4
	c-0.3,0-0.6-0.3-0.6-0.6c0,0,0,0,0,0v-5.8c0-0.3,0.3-0.6,0.6-0.6c0,0,0,0,0,0h2.4C30.5,37.5,31,37.6,31.5,37.9z M31.1,42.7
	c0.6-1,0.6-2.3,0-3.4c-0.3-0.4-0.8-0.7-1.4-0.7h-1.6v4.7h1.6C30.3,43.3,30.8,43.1,31.1,42.7z"/>
<path class="st0" d="M39.4,37.6c0.1,0.1,0.2,0.3,0.2,0.4v3.6c0,0.5-0.1,1-0.3,1.5c-0.2,0.4-0.6,0.8-1,1c-0.9,0.5-2,0.5-2.9,0
	c-0.4-0.2-0.8-0.6-1-1c-0.2-0.5-0.4-1-0.3-1.5v-3.6c0-0.2,0.1-0.3,0.2-0.4c0.1-0.1,0.3-0.2,0.5-0.2c0.3,0,0.6,0.3,0.6,0.6v3.6
	c0,0.3,0.1,0.6,0.2,0.9c0.1,0.2,0.3,0.4,0.6,0.6c0.2,0.1,0.5,0.2,0.8,0.2c0.3,0,0.6-0.1,0.8-0.2c0.2-0.1,0.5-0.3,0.6-0.6
	c0.2-0.3,0.2-0.6,0.2-0.9v-3.6c0-0.2,0-0.3,0.2-0.4c0.1-0.1,0.3-0.2,0.5-0.2C39.2,37.4,39.3,37.5,39.4,37.6z"/>
<path class="st0" d="M46.3,38.3c0,0.1-0.1,0.3-0.2,0.4c-0.1,0.1-0.2,0.2-0.4,0.2c-0.1,0-0.2,0-0.3-0.1c-0.3-0.2-0.7-0.2-1.1-0.2
	c-0.4,0-0.8,0.1-1.2,0.3c-0.3,0.2-0.6,0.5-0.8,0.8C42.1,40.1,42,40.6,42,41c0,0.7,0.2,1.3,0.6,1.8c0.8,0.6,1.8,0.8,2.7,0.4
	c0.1,0,0.2-0.1,0.3-0.1c0.2,0,0.3,0.1,0.4,0.2c0.1,0.1,0.1,0.3,0.2,0.4c0,0.1,0,0.2-0.1,0.3c-0.1,0.1-0.1,0.2-0.2,0.2
	c-0.5,0.3-1.1,0.4-1.7,0.4c-0.6,0-1.2-0.1-1.8-0.4c-0.5-0.3-1-0.7-1.3-1.2c-0.3-0.6-0.5-1.3-0.5-2c0-0.6,0.1-1.3,0.5-1.8
	c0.3-0.5,0.8-1,1.3-1.3c0.6-0.3,1.2-0.5,1.8-0.5c0.6,0,1.1,0.1,1.7,0.4C46.2,37.9,46.3,38.1,46.3,38.3z"/>
<path class="st0" d="M52.4,37.6c0.1,0.1,0.2,0.3,0.2,0.4c0,0.2-0.1,0.3-0.2,0.4c-0.1,0.1-0.3,0.2-0.4,0.2h-1.6v5.2
	c0,0.2-0.1,0.3-0.2,0.4c-0.1,0.1-0.3,0.2-0.5,0.2c-0.2,0-0.3-0.1-0.5-0.2c-0.1-0.1-0.2-0.3-0.2-0.4v-5.2h-1.6
	c-0.2,0-0.3-0.1-0.4-0.2c-0.1-0.1-0.2-0.3-0.2-0.5c0-0.2,0.1-0.3,0.2-0.4c0.1-0.1,0.3-0.2,0.4-0.2H52C52.2,37.4,52.3,37.5,52.4,37.6
	z"/>
<path class="st0" d="M59.4,42.8c-0.3,0.5-0.7,1-1.2,1.3c-1.1,0.6-2.4,0.6-3.5,0c-0.5-0.3-0.9-0.8-1.2-1.3c-0.6-1.1-0.6-2.5,0-3.6
	c0.3-0.5,0.7-1,1.2-1.3c1.1-0.6,2.4-0.6,3.5,0c0.5,0.3,0.9,0.8,1.2,1.3C60,40.3,60,41.6,59.4,42.8z M58.3,39.8
	c-0.2-0.4-0.4-0.7-0.8-0.9c-0.7-0.4-1.5-0.4-2.2,0c-0.3,0.2-0.6,0.5-0.7,0.9c-0.4,0.8-0.4,1.7,0,2.4c0.2,0.4,0.4,0.7,0.7,0.9
	c0.7,0.4,1.5,0.4,2.2,0c0.3-0.2,0.6-0.5,0.8-0.9C58.7,41.5,58.7,40.5,58.3,39.8L58.3,39.8z"/>
<path class="st0" d="M62,44.4c-0.4-0.1-0.7-0.3-1-0.6c-0.2-0.1-0.3-0.3-0.3-0.5c0-0.2,0.1-0.3,0.2-0.4c0.1-0.1,0.3-0.2,0.4-0.2
	c0.1,0,0.2,0,0.3,0.1c0.2,0.2,0.5,0.4,0.8,0.5c0.3,0.1,0.6,0.2,0.9,0.2c0.4,0,0.7-0.1,1-0.3c0.2-0.1,0.4-0.4,0.4-0.6
	c0-0.3-0.1-0.6-0.4-0.7c-0.4-0.2-0.9-0.3-1.3-0.4c-1.5-0.2-2.2-0.9-2.2-2c0-0.4,0.1-0.8,0.3-1.1c0.2-0.3,0.5-0.6,0.9-0.7
	c0.4-0.2,0.8-0.2,1.3-0.2c0.4,0,0.8,0.1,1.2,0.2c0.3,0.1,0.6,0.3,0.9,0.5c0.2,0.1,0.3,0.3,0.3,0.5c0,0.2-0.1,0.3-0.2,0.4
	c-0.1,0.1-0.2,0.2-0.4,0.2c-0.1,0-0.2,0-0.3-0.1c-0.2-0.2-0.5-0.3-0.7-0.4c-0.3-0.1-0.5-0.2-0.8-0.2c-0.4,0-0.7,0.1-1,0.2
	c-0.3,0.2-0.4,0.7-0.2,1c0.1,0.1,0.1,0.2,0.2,0.2c0.3,0.2,0.7,0.3,1.1,0.4c0.5,0.1,0.9,0.2,1.4,0.4c0.3,0.1,0.6,0.4,0.8,0.6
	c0.2,0.3,0.3,0.7,0.3,1.1c0,0.4-0.1,0.8-0.4,1.1c-0.2,0.3-0.6,0.6-0.9,0.7c-0.4,0.2-0.8,0.3-1.3,0.3C62.8,44.6,62.4,44.5,62,44.4z"
	/>
<path class="st0" d="M49,8.4h-6.5V7.1c0-1.4-1.2-2.6-2.6-2.6h-7.8c-1.4,0-2.6,1.2-2.6,2.6l0,0v1.3H23c-1.4,0-2.6,1.2-2.6,2.6
	c0,0,0,0,0,0v16.9c0,1.4,1.2,2.6,2.6,2.6c0,0,0,0,0,0h26c1.4,0,2.6-1.2,2.6-2.6V11C51.6,9.6,50.4,8.4,49,8.4z M30.8,7.1
	c0-0.7,0.6-1.3,1.3-1.3h7.8c0.7,0,1.3,0.6,1.3,1.3v1.3H30.8V7.1z M50.3,27.9c0,0.7-0.6,1.3-1.3,1.3l0,0H23c-0.7,0-1.3-0.6-1.3-1.3
	v-9.5c0.4,0.2,0.8,0.4,1.3,0.4h10.4v2c0,0.4,0.3,0.6,0.7,0.6l0,0H38c0.4,0,0.7-0.3,0.7-0.6c0,0,0,0,0,0v-2H49c0.5,0,0.9-0.1,1.3-0.4
	V27.9L50.3,27.9z M34.7,20.1v-2.6h2.6v2.6H34.7z M50.3,16.2c0,0.7-0.6,1.3-1.3,1.3c0,0,0,0,0,0H38.6v-0.6c0-0.4-0.3-0.6-0.7-0.6l0,0
	H34c-0.4,0-0.7,0.3-0.7,0.6c0,0,0,0,0,0v0.6H23c-0.7,0-1.3-0.6-1.3-1.3V11c0-0.7,0.6-1.3,1.3-1.3h26c0.7,0,1.3,0.6,1.3,1.3
	C50.3,11,50.3,16.2,50.3,16.2z"/>
</svg>
