<?xml version="1.0" encoding="utf-8"?>
<!-- Generator: Adobe Illustrator 21.0.0, SVG Export Plug-In . SVG Version: 6.00 Build 0)  -->
<svg version="1.1" id="Capa_1" xmlns="http://www.w3.org/2000/svg" xmlns:xlink="http://www.w3.org/1999/xlink" x="0px" y="0px"
	 viewBox="0 0 72 50" style="enable-background:new 0 0 72 50;" xml:space="preserve">
<style type="text/css">
	.st0{fill:#FFFFFF;}
</style>
<title>termometro menu on-01</title>
<path class="st0" d="M7.2,37.6c0.1,0.1,0.2,0.3,0.2,0.4c0,0.2-0.1,0.3-0.2,0.4c-0.1,0.1-0.3,0.2-0.4,0.2H5.2v5.2
	c0,0.2-0.1,0.3-0.2,0.4c-0.1,0.1-0.3,0.2-0.5,0.2c-0.2,0-0.3-0.1-0.5-0.2C4,44.2,3.9,44,3.9,43.9v-5.2H2.3c-0.2,0-0.3-0.1-0.4-0.2
	c-0.1-0.1-0.2-0.3-0.2-0.5c0-0.2,0.1-0.3,0.2-0.4c0.1-0.1,0.3-0.2,0.4-0.2h4.4C6.9,37.4,7.1,37.5,7.2,37.6z"/>
<path class="st0" d="M12.8,43.5c0.1,0.1,0.2,0.2,0.2,0.4c0,0.2-0.1,0.3-0.2,0.4c-0.1,0.1-0.3,0.2-0.4,0.2H9c-0.3,0-0.6-0.3-0.6-0.6
	c0,0,0,0,0,0v-5.8c0-0.3,0.3-0.6,0.6-0.6c0,0,0,0,0,0h3.4c0.2,0,0.3,0.1,0.4,0.2c0.1,0.1,0.2,0.3,0.2,0.4c0,0.2-0.1,0.3-0.2,0.4
	c-0.1,0.1-0.3,0.2-0.4,0.2H9.7v1.7h2.3c0.2,0,0.3,0.1,0.4,0.2c0.1,0.1,0.2,0.3,0.2,0.4c0,0.2-0.1,0.3-0.2,0.4
	c-0.1,0.1-0.3,0.2-0.4,0.2H9.7v1.8h2.7C12.6,43.3,12.7,43.4,12.8,43.5z"/>
<path class="st0" d="M19.9,43.7c0.1,0.1,0.1,0.2,0.1,0.3c0,0.1,0,0.2-0.1,0.3c-0.1,0.1-0.3,0.2-0.5,0.2c-0.2,0-0.3,0-0.4-0.1
	c-0.5-0.4-0.8-1-0.7-1.7c0-0.2-0.1-0.4-0.2-0.6c-0.2-0.1-0.4-0.2-0.7-0.2h-1.9v1.9c0,0.2,0,0.3-0.1,0.4c-0.1,0.1-0.2,0.2-0.4,0.2
	c-0.2,0-0.4-0.1-0.5-0.2c-0.1-0.1-0.2-0.3-0.2-0.4v-5.8c0-0.3,0.3-0.6,0.6-0.6c0,0,0,0,0,0h2.9c0.4,0,0.7,0.1,1,0.3
	c0.3,0.2,0.6,0.5,0.7,0.8c0.2,0.3,0.3,0.7,0.3,1.1c0,0.4-0.1,0.7-0.3,1c-0.2,0.3-0.4,0.6-0.7,0.8c0.4,0.3,0.7,0.7,0.7,1.2
	c0,0.1,0,0.2,0,0.3c0,0.2,0,0.3,0.1,0.5c0,0.1,0.1,0.2,0.2,0.2C19.7,43.6,19.8,43.6,19.9,43.7z M18,40.7c0.1-0.1,0.2-0.3,0.3-0.5
	c0.1-0.2,0.1-0.4,0.1-0.6c0-0.2,0-0.4-0.1-0.5c-0.1-0.1-0.2-0.3-0.3-0.4c-0.1-0.1-0.2-0.1-0.4-0.1h-2.2v2.3h2.2
	C17.7,40.9,17.8,40.8,18,40.7L18,40.7z"/>
<path class="st0" d="M27.5,37.6c0.1,0.1,0.2,0.3,0.2,0.4v5.8c0,0.3-0.2,0.6-0.6,0.6c0,0,0,0-0.1,0c-0.2,0-0.3-0.1-0.5-0.2
	c-0.1-0.1-0.2-0.3-0.2-0.4v-4l-1.6,2.5c-0.1,0.1-0.1,0.1-0.2,0.2c-0.1,0-0.2,0.1-0.3,0.1c-0.1,0-0.2,0-0.3-0.1
	c-0.1-0.1-0.2-0.1-0.2-0.2l-1.6-2.6v4.1c0,0.2-0.1,0.3-0.2,0.4c-0.1,0.1-0.3,0.2-0.4,0.2c-0.2,0-0.3-0.1-0.4-0.2
	C21,44.2,21,44,21,43.9v-5.8c0-0.2,0.1-0.3,0.2-0.4c0.1-0.1,0.3-0.2,0.4-0.2c0.1,0,0.2,0,0.3,0.1c0.1,0,0.2,0.1,0.2,0.2l2.2,3.3
	l2.2-3.3c0.1-0.1,0.1-0.1,0.2-0.2c0.1,0,0.2-0.1,0.3-0.1C27.2,37.4,27.4,37.5,27.5,37.6z"/>
<path class="st0" d="M35.2,42.8c-0.3,0.5-0.7,1-1.2,1.3c-1.1,0.6-2.4,0.6-3.5,0c-0.5-0.3-0.9-0.8-1.2-1.3c-0.6-1.1-0.6-2.5,0-3.6
	c0.3-0.5,0.7-1,1.2-1.3c1.1-0.6,2.4-0.6,3.5,0c0.5,0.3,0.9,0.8,1.2,1.3C35.8,40.3,35.8,41.6,35.2,42.8z M34.1,39.8
	c-0.2-0.4-0.4-0.7-0.8-0.9c-0.7-0.4-1.5-0.4-2.2,0c-0.3,0.2-0.6,0.5-0.7,0.9c-0.4,0.8-0.4,1.7,0,2.4c0.2,0.4,0.4,0.7,0.7,0.9
	c0.7,0.4,1.5,0.4,2.2,0c0.3-0.2,0.6-0.5,0.8-0.9C34.5,41.5,34.4,40.5,34.1,39.8L34.1,39.8z M32,37c-0.1-0.1-0.1-0.2-0.1-0.3
	c0-0.1,0-0.2,0.1-0.3l0.9-0.8c0.1-0.1,0.3-0.2,0.5-0.2c0.1,0,0.3,0.1,0.4,0.1c0.1,0.1,0.2,0.2,0.2,0.3c0,0.1,0,0.2-0.1,0.3
	c-0.1,0.1-0.2,0.2-0.3,0.2l-1,0.5c-0.1,0-0.1,0.1-0.2,0.1C32.2,37.1,32.1,37.1,32,37z"/>
<path class="st0" d="M43.3,37.6c0.1,0.1,0.2,0.3,0.2,0.4v5.8c0,0.3-0.2,0.6-0.6,0.6c0,0,0,0-0.1,0c-0.2,0-0.3-0.1-0.5-0.2
	c-0.1-0.1-0.2-0.3-0.2-0.4v-4l-1.7,2.5c-0.1,0.1-0.1,0.1-0.2,0.2c-0.1,0-0.2,0.1-0.3,0.1c-0.1,0-0.2,0-0.3-0.1
	c-0.1-0.1-0.2-0.1-0.2-0.2l-1.7-2.6v4.1c0,0.2-0.1,0.3-0.2,0.4c-0.1,0.1-0.3,0.2-0.4,0.2c-0.1,0-0.3-0.1-0.4-0.2
	c-0.1-0.1-0.2-0.3-0.2-0.4v-5.8c0-0.2,0-0.3,0.2-0.4c0.1-0.1,0.3-0.2,0.4-0.2c0.1,0,0.2,0,0.3,0.1c0.1,0,0.2,0.1,0.2,0.2l2.2,3.3
	l2.2-3.3c0.1-0.1,0.1-0.1,0.2-0.2c0.1,0,0.2-0.1,0.3-0.1C43,37.5,43.2,37.5,43.3,37.6z"/>
<path class="st0" d="M49.4,43.5c0.1,0.1,0.2,0.2,0.2,0.4c0,0.2-0.1,0.3-0.2,0.4c-0.1,0.1-0.3,0.2-0.4,0.2h-3.3
	c-0.3,0-0.6-0.3-0.6-0.6c0,0,0,0,0,0v-5.8c0-0.3,0.3-0.6,0.6-0.6c0,0,0,0,0,0H49c0.2,0,0.3,0.1,0.4,0.2c0.1,0.1,0.2,0.3,0.2,0.4
	c0,0.2-0.1,0.3-0.2,0.4c-0.1,0.1-0.3,0.2-0.4,0.2h-2.7v1.7h2.3c0.2,0,0.3,0.1,0.4,0.2c0.1,0.1,0.2,0.3,0.2,0.4
	c0,0.2-0.1,0.3-0.2,0.4c-0.1,0.1-0.3,0.2-0.4,0.2h-2.3v1.8H49C49.1,43.3,49.3,43.4,49.4,43.5z"/>
<path class="st0" d="M55.8,37.6c0.1,0.1,0.2,0.3,0.2,0.4c0,0.2-0.1,0.3-0.2,0.4c-0.1,0.1-0.3,0.2-0.4,0.2h-1.6v5.2
	c0,0.2-0.1,0.3-0.2,0.4c-0.1,0.1-0.3,0.2-0.5,0.2c-0.2,0-0.3-0.1-0.5-0.2c-0.1-0.1-0.2-0.3-0.2-0.4v-5.2h-1.6
	c-0.2,0-0.3-0.1-0.4-0.2c-0.1-0.1-0.2-0.3-0.2-0.5c0-0.2,0.1-0.3,0.2-0.4c0.1-0.1,0.3-0.2,0.4-0.2h4.4
	C55.5,37.4,55.6,37.5,55.8,37.6z"/>
<path class="st0" d="M62.7,43.7c0,0.1,0.1,0.2,0.1,0.3c0,0.1,0,0.2-0.1,0.3c-0.1,0.1-0.3,0.2-0.5,0.2c-0.2,0-0.3,0-0.4-0.1
	c-0.5-0.4-0.8-1-0.7-1.7c0-0.2-0.1-0.4-0.2-0.6c-0.2-0.1-0.4-0.2-0.7-0.2h-1.9v1.9c0,0.2,0,0.3-0.1,0.4c-0.1,0.1-0.2,0.2-0.4,0.2
	c-0.2,0-0.4-0.1-0.5-0.2C57.1,44.2,57,44,57,43.9v-5.8c0-0.3,0.3-0.6,0.6-0.6c0,0,0,0,0,0h2.9c0.4,0,0.7,0.1,1,0.3
	c0.3,0.2,0.6,0.5,0.7,0.8c0.2,0.3,0.3,0.7,0.3,1.1c0,0.4-0.1,0.7-0.3,1c-0.2,0.3-0.4,0.6-0.7,0.8c0.4,0.3,0.7,0.7,0.7,1.2
	c0,0.1,0,0.2,0,0.3c0,0.2,0,0.3,0.1,0.5c0,0.1,0.1,0.2,0.2,0.2C62.6,43.6,62.6,43.6,62.7,43.7z M60.8,40.7c0.1-0.1,0.2-0.3,0.3-0.4
	c0.1-0.2,0.1-0.4,0.1-0.6c0-0.2,0-0.4-0.1-0.5c-0.1-0.1-0.2-0.3-0.3-0.4c-0.1-0.1-0.2-0.1-0.3-0.1h-2.2v2.3h2.2
	C60.5,40.9,60.7,40.8,60.8,40.7L60.8,40.7z"/>
<path class="st0" d="M69.7,42.8c-0.3,0.5-0.7,1-1.2,1.3c-1.1,0.6-2.4,0.6-3.5,0c-0.5-0.3-0.9-0.8-1.2-1.3c-0.6-1.1-0.6-2.5,0-3.6
	c0.3-0.5,0.7-1,1.2-1.3c1.1-0.6,2.4-0.6,3.5,0c0.5,0.3,0.9,0.8,1.2,1.3C70.3,40.3,70.3,41.6,69.7,42.8z M68.6,39.8
	c-0.2-0.4-0.4-0.7-0.8-0.9c-0.7-0.4-1.5-0.4-2.2,0c-0.3,0.2-0.6,0.5-0.7,0.9c-0.4,0.8-0.4,1.7,0,2.4c0.2,0.4,0.4,0.7,0.7,0.9
	c0.7,0.4,1.5,0.4,2.2,0c0.3-0.2,0.6-0.5,0.8-0.9C69,41.4,69,40.5,68.6,39.8L68.6,39.8z"/>
<path class="st0" d="M36,4.5c-6,0-12.4,1.1-12.4,3.4C23.6,8.5,24,9,24.5,9.3l7.3,9.6c0.5,0.7,0.8,1.5,0.8,2.4v7.5
	c0,1.2,1.8,1.7,3.4,1.7s3.4-0.5,3.4-1.7v-7.5c0-0.9,0.3-1.7,0.8-2.4l0.6-0.8h3.6c0.9,0,1.8-0.6,2.1-1.5l0.6-1.6
	c0.4-1-0.1-2.1-1.1-2.5c-0.2-0.1-0.5-0.1-0.7-0.1h-0.2l2.4-3.2C48,9,48.4,8.5,48.4,7.9C48.4,5.6,42,4.5,36,4.5z M45.3,13.5
	c0.4,0,0.8,0.4,0.8,0.8c0,0.1,0,0.2-0.1,0.3l-0.6,1.6c-0.2,0.4-0.6,0.7-1.1,0.7h-2.7l2.6-3.4L45.3,13.5L45.3,13.5z M39.3,18.2
	c-0.7,0.9-1,2-1,3.1v7.5c-0.7,0.5-1.5,0.7-2.3,0.6c-0.8,0.1-1.6-0.1-2.3-0.6v-7.5c0-1.1-0.3-2.2-1-3.1l-6.1-8c3,0.8,6.1,1.1,9.3,1.1
	c3.2,0.1,6.3-0.3,9.4-1.1L39.3,18.2z M36,10.1c-7.3,0-11.3-1.5-11.3-2.3s4-2.3,11.3-2.3s11.3,1.5,11.3,2.3S43.3,10.1,36,10.1z"/>
</svg>
